<svg xmlns="http://www.w3.org/2000/svg" viewBox="0 0 420 100" role="img" aria-labelledby="title">
  <title id="title">MODEC logo</title>
  <rect width="420" height="100" fill="none"/>
  <g fill="#005596">
    <path d="M12 82V18h17l22 34 22-34h17v64H73V45L56 72H46L29 45v37H12z"/>
    <path d="M130 84c-20 0-35-15-35-34s15-34 35-34 35 15 35 34-15 34-35 34zm0-15c10 0 18-8 18-19s-8-19-18-19-18 8-18 19 8 19 18 19z"/>
    <path d="M174 82V18h27c22 0 37 13 37 32s-15 32-37 32h-27zm17-15h10c12 0 20-6 20-17s-8-17-20-17h-10v34z"/>
    <path d="M247 82V18h50v14h-33v11h30v14h-30v11h34v14h-51z"/>
    <path d="M337 84c-21 0-36-14-36-34s15-34 37-34c13 0 24 5 31 14l-11 10c-5-6-11-9-19-9-12 0-21 8-21 19s9 19 21 19c8 0 14-3 19-9l11 10c-7 9-18 14-32 14z"/>
  </g>
</svg>
