<?xml version='1.0' encoding='utf-8'?>
<svg id="Group_228" data-name="Group 228" xmlns="http://www.w3.org/2000/svg" class="img-fluid menu-logo" viewBox="0 0 160.99 183.44">
  <path id="Path_303" data-name="Path 303" d="M139.22,73.41H33.47l36.58-22.82c5.6-4.19,13.54-3.04,17.72,2.56,3.32,4.44,3.37,10.51,.12,15-.17,.22-.12,.54,.11,.71,.09,.06,.19,.1,.3,.1h13.16c2.21,0,4.37-.72,6.13-2.05l30.47-23c2.21-1.62,2.79-4.67,1.34-6.99-1.55-2.36-4.72-3.02-7.08-1.48-.09,.06-.19,.13-.28,.2l-31.37,23.67,14.59-45.04c.87-2.69-.6-5.57-3.29-6.44-2.69-.87-5.57,.6-6.44,3.29l-11.47,35.38L80.98,3.77c-.8-2.72-3.61-4.3-6.35-3.58-2.72,.78-4.29,3.61-3.51,6.32,0,.03,.02,.06,.03,.09l10.03,32.7L48.21,13.6c-2.14-1.71-5.23-1.49-7.1,.52-1.88,2.11-1.7,5.34,.41,7.22,.08,.08,.17,.15,.26,.22l23.79,18.56-37.99-1.96c-2.73-.18-5.14,1.79-5.52,4.5-.33,2.81,1.67,5.35,4.48,5.68,.11,.01,.23,.02,.34,.03l25.26,1.3-33.62,21.05c-3.28,2.05-4.27,6.37-2.22,9.65,1.28,2.04,3.52,3.28,5.93,3.29h117.2c2.83,0,5.12-2.29,5.12-5.12,0-.11,0-.21,0-.32-.24-2.74-2.55-4.84-5.31-4.8" style="fill: #58d7e8;"/>
  <path id="Path_304" data-name="Path 304" d="M2.58,163.75c-.37,.03-.74-.1-1.02-.35-.25-.28-.38-.65-.35-1.02v-18.73c-.03-.37,.1-.74,.35-1.02,.28-.25,.65-.38,1.02-.35H13.9c.29-.02,.58,.08,.79,.27,.19,.21,.29,.48,.27,.76,.06,.53-.31,1-.84,1.07-.08,0-.15,0-.23,0H3.64v7.43H13.26c.29-.02,.57,.07,.79,.26,.2,.21,.3,.49,.27,.78,.06,.53-.31,1-.84,1.07-.07,0-.15,0-.23,0H3.64v7.73H13.9c.29-.02,.58,.08,.79,.27,.19,.21,.29,.48,.27,.76,.06,.53-.31,1-.84,1.07-.08,0-.15,0-.23,0H2.58Z" style="fill: #1f4666;"/>
  <path id="Path_305" data-name="Path 305" d="M28.46,164.17c-.33,.02-.65-.09-.88-.32-.22-.26-.32-.59-.3-.93v-19.37c-.02-.34,.08-.68,.3-.94,.2-.22,.49-.35,.79-.33,.25-.02,.5,.04,.72,.17,.21,.17,.39,.37,.53,.59l13.28,17.7h-.73v-17.24c-.02-.33,.09-.65,.3-.9,.24-.23,.56-.34,.88-.32,.31-.02,.62,.1,.84,.32,.21,.25,.31,.57,.29,.9v19.46c.02,.32-.07,.64-.26,.9-.18,.22-.46,.34-.75,.32-.26,.01-.51-.05-.73-.18-.22-.16-.42-.36-.58-.58l-13.24-17.69h.7v17.2c.02,.34-.08,.67-.3,.93-.23,.22-.54,.34-.85,.32" style="fill: #1f4666;"/>
  <path id="Path_306" data-name="Path 306" d="M59.69,163.75c-.67,.08-1.29-.39-1.37-1.07-.01-.1-.01-.2,0-.3v-18.73c-.08-.67,.39-1.29,1.07-1.37,.1-.01,.2-.01,.3,0h11.33c.29-.02,.58,.08,.79,.27,.19,.21,.29,.48,.27,.76,.06,.53-.31,1-.84,1.07-.08,0-.15,0-.23,0h-10.26v7.43h9.62c.29-.02,.57,.07,.79,.26,.2,.21,.3,.49,.27,.78,.06,.53-.31,1-.84,1.07-.07,0-.15,0-.23,0h-9.62v7.73h10.26c.29-.02,.58,.08,.79,.27,.19,.21,.29,.48,.27,.76,.06,.53-.31,1-.84,1.07-.08,0-.15,0-.23,0h-11.33Z" style="fill: #1f4666;"/>
  <path id="Path_307" data-name="Path 307" d="M97.6,156.74c-.38-.77-.93-1.43-1.61-1.95-.26-.17-.53-.31-.83-.41,.59-.11,1.16-.28,1.71-.52,1.02-.43,1.87-1.16,2.45-2.1,.58-.99,.87-2.13,.84-3.27,.11-1.73-.58-3.42-1.86-4.6-1.51-1.17-3.4-1.74-5.3-1.61h-7.22c-.34-.02-.68,.09-.94,.32-.24,.26-.36,.61-.34,.96v19.09c-.02,.35,.09,.69,.32,.96,.54,.47,1.34,.47,1.87,0,.21-.27,.32-.61,.3-.96v-7.98h3.9c.82-.03,1.65,.12,2.41,.44,.71,.4,1.27,1.01,1.61,1.75l3.32,6.15c.14,.27,.34,.51,.58,.7,.25,.17,.55,.26,.85,.24,.29,.02,.57-.07,.79-.26,.18-.17,.29-.42,.29-.67,0-.3-.07-.59-.23-.84l-2.92-5.45Zm-10.6-4.05v-8.34h5.64c1.34-.1,2.68,.28,3.78,1.05,.89,.77,1.36,1.92,1.28,3.09,.09,1.19-.39,2.36-1.28,3.15-1.1,.77-2.43,1.15-3.78,1.05h-5.64Z" style="fill: #1f4666;"/>
  <path id="Path_308" data-name="Path 308" d="M128.95,152.84h-5.45c-.29-.02-.59,.06-.82,.24-.19,.19-.29,.46-.27,.73-.01,.27,.09,.54,.27,.73,.23,.2,.52,.3,.82,.27h4.36v6.36c-.68,.25-1.39,.45-2.1,.6-.94,.19-1.9,.29-2.86,.29-2.68,0-4.68-.75-6.01-2.25-1.33-1.5-1.99-3.67-1.99-6.52-.05-1.63,.25-3.25,.87-4.75,.52-1.24,1.42-2.28,2.56-2.98,1.25-.72,2.68-1.08,4.13-1.04,1.05-.01,2.1,.14,3.11,.44,.96,.31,1.86,.79,2.65,1.42,.21,.15,.46,.23,.72,.21,.22-.01,.42-.11,.58-.26,.16-.16,.27-.35,.33-.56,.17-.48-.02-1.01-.44-1.28-.94-.77-2.03-1.35-3.2-1.69-1.21-.36-2.46-.54-3.71-.53-1.47-.02-2.94,.24-4.31,.78-1.22,.49-2.32,1.23-3.23,2.19-.91,.99-1.6,2.17-2.01,3.46-.48,1.49-.71,3.04-.68,4.6-.05,2.04,.36,4.06,1.22,5.91,.77,1.6,2.02,2.92,3.58,3.78,1.79,.92,3.79,1.37,5.8,1.31,1.16,0,2.32-.12,3.46-.35,1.05-.19,2.07-.48,3.06-.87,.22-.08,.41-.25,.52-.46,.11-.24,.16-.5,.15-.76v-7.95c.06-.53-.31-1-.84-1.07-.08,0-.15,0-.23,0" style="fill: #1f4666;"/>
  <path id="Path_309" data-name="Path 309" d="M158.46,143.21c0-.25-.11-.5-.29-.67-.21-.18-.48-.27-.76-.26-.26,0-.51,.06-.73,.18-.25,.17-.47,.39-.64,.64l-6.17,8.51-6.17-8.51c-.15-.25-.36-.47-.61-.62-.23-.13-.49-.2-.76-.2-.29-.01-.57,.09-.79,.27-.2,.17-.31,.42-.32,.68,0,.29,.09,.57,.26,.81l7.1,9.78v9.01c-.02,.36,.09,.71,.32,.99,.24,.25,.58,.37,.93,.35,.83,0,1.25-.45,1.25-1.34v-8.97l7.1-9.79c.19-.25,.29-.55,.29-.87" style="fill: #1f4666;"/>
  <path id="Path_310" data-name="Path 310" d="M21.57,102.23c-.31-.8-.85-1.5-1.53-2.02-.6-.4-1.3-.62-2.02-.61-.74-.01-1.46,.2-2.07,.61-.69,.52-1.22,1.22-1.54,2.02L1.55,130.72c-.31,.63-.42,1.33-.34,2.02,.08,.57,.39,1.09,.85,1.44,.55,.38,1.21,.57,1.87,.54,.71,.05,1.4-.18,1.95-.63,.57-.59,1.02-1.29,1.32-2.05l2.4-5.65H26.34l2.43,5.65c.29,.76,.75,1.45,1.34,2.02,.6,.47,1.36,.7,2.12,.66,.64,.03,1.27-.15,1.8-.51,.46-.35,.76-.87,.83-1.44,.08-.71-.05-1.42-.39-2.05l-12.9-28.49Zm-3.65,4.53h.1l6.21,14.66H11.75l6.16-14.66Z" style="fill: #1f4666;"/>
  <path id="Path_311" data-name="Path 311" d="M65.5,129.77c-.58-.48-1.32-.71-2.07-.66h-16.48l17.16-23.23c.51-.65,.88-1.4,1.1-2.19,.18-.62,.18-1.28,0-1.9-.17-.55-.54-1.01-1.02-1.32-.6-.35-1.28-.52-1.97-.49h-20.16c-.75-.05-1.49,.18-2.07,.66-.5,.51-.76,1.21-.71,1.92-.05,.72,.21,1.43,.71,1.95,.57,.49,1.32,.74,2.07,.68h15.72l-17.13,23.22c-.5,.64-.88,1.38-1.1,2.17-.18,.62-.18,1.28,0,1.9,.17,.56,.53,1.03,1.02,1.34,.6,.35,1.28,.52,1.98,.49h20.89c.75,.05,1.5-.19,2.07-.68,.5-.52,.75-1.23,.71-1.95,.05-.71-.21-1.41-.71-1.92" style="fill: #1f4666;"/>
  <path id="Path_312" data-name="Path 312" d="M85.17,134.81c-2.12,.04-4.24-.27-6.26-.92-1.71-.56-3.26-1.5-4.55-2.75-1.27-1.28-2.22-2.84-2.78-4.55-.65-2.05-.96-4.18-.93-6.33v-17.48c-.15-1.72,1.12-3.24,2.84-3.39s3.24,1.12,3.39,2.84c.02,.18,.02,.37,0,.55v17.43c0,3.09,.71,5.4,2.12,6.94,3.52,3.09,8.78,3.09,12.3,0,1.4-1.54,2.09-3.86,2.09-6.94v-17.43c-.22-1.53,.84-2.94,2.36-3.16,.25-.04,.5-.04,.75,0,.83-.05,1.64,.23,2.26,.78,.58,.65,.87,1.51,.8,2.39v17.48c.09,2.77-.47,5.52-1.63,8.04-1.03,2.12-2.74,3.84-4.85,4.89-2.48,1.16-5.2,1.72-7.94,1.63" style="fill: #1f4666;"/>
  <path id="Path_313" data-name="Path 313" d="M110.22,134.32c-.86,.05-1.71-.25-2.34-.85-.58-.64-.88-1.5-.83-2.36v-28.1c-.06-.86,.22-1.72,.8-2.36,1.36-1.07,3.27-1.07,4.63,0,.58,.65,.86,1.5,.8,2.36v26h14.12c.74-.05,1.46,.2,2.02,.68,.5,.52,.75,1.23,.71,1.95,.04,.73-.21,1.44-.71,1.97-.55,.5-1.28,.75-2.02,.71h-17.18Z" style="fill: #1f4666;"/>
  <path id="Path_314" data-name="Path 314" d="M138.66,134.32c-1.63,.19-3.12-.97-3.31-2.61-.03-.23-.03-.47,0-.7v-27.71c-.19-1.63,.97-3.12,2.61-3.31,.23-.03,.47-.03,.7,0h17.39c.68-.04,1.36,.18,1.87,.63,.46,.48,.7,1.13,.66,1.8,.14,1.26-.77,2.39-2.03,2.53-.17,.02-.34,.02-.51,0h-14.71v9.45h13.64c.69-.05,1.38,.18,1.9,.63,.84,1.09,.84,2.61,0,3.7-.52,.46-1.21,.69-1.9,.63h-13.64v9.98h14.71c.68-.04,1.36,.18,1.87,.63,.88,1.08,.88,2.62,0,3.7-.52,.45-1.19,.68-1.87,.63h-17.39Z" style="fill: #1f4666;"/>
  <path id="Path_315" data-name="Path 315" d="M3.21,181.19c-.39,0-.78-.08-1.13-.25-.32-.15-.59-.38-.79-.68-.19-.28-.29-.62-.29-.96-.02-.39,.1-.77,.35-1.07,.31-.3,.72-.5,1.15-.56,.72-.12,1.46-.18,2.19-.16h.57v.67h-.56c-.54,0-1.08,.03-1.61,.1-.3,.02-.58,.14-.82,.32-.16,.17-.25,.41-.23,.64,0,.32,.12,.63,.36,.85,.27,.23,.62,.35,.98,.33,.31,0,.62-.08,.89-.24,.26-.16,.47-.39,.61-.66,.15-.3,.23-.63,.22-.96v-1.44c.04-.4-.08-.81-.32-1.13-.28-.26-.66-.38-1.04-.35-.3,0-.6,.04-.88,.11-.32,.09-.64,.21-.94,.37-.09,.05-.2,.07-.3,.06-.08-.02-.15-.07-.2-.13-.05-.07-.08-.15-.09-.23,0-.09,.01-.18,.06-.26,.05-.09,.13-.16,.22-.2,.35-.18,.72-.31,1.1-.4,.34-.08,.69-.12,1.04-.13,.45-.02,.9,.07,1.31,.26,.34,.17,.61,.44,.77,.78,.18,.42,.27,.88,.25,1.35v3.42c0,.14-.03,.28-.12,.39-.09,.1-.22,.15-.35,.14-.14,0-.27-.04-.37-.14-.09-.11-.14-.25-.13-.39v-.99h.11c-.06,.3-.19,.58-.38,.82-.19,.23-.43,.41-.7,.53-.29,.13-.61,.19-.93,.19" style="fill: #1f4666;"/>
  <path id="Path_316" data-name="Path 316" d="M18.13,181.19c-.51,.01-1.01-.14-1.44-.43-.39-.28-.68-.68-.8-1.15l.14-.14v1.16c0,.14-.04,.28-.13,.39-.22,.19-.54,.19-.75,0-.09-.11-.13-.25-.13-.39v-8.04c0-.14,.04-.28,.13-.39,.1-.1,.24-.14,.38-.13,.14,0,.28,.04,.38,.13,.1,.1,.15,.24,.14,.39v3.77h-.15c.13-.46,.42-.85,.81-1.12,.42-.29,.92-.43,1.43-.42,.51-.01,1.01,.12,1.44,.39,.41,.27,.74,.65,.94,1.1,.45,1.08,.45,2.3,0,3.39-.2,.45-.53,.84-.95,1.11-.43,.27-.93,.4-1.43,.39m-.22-.82c.35,0,.7-.09,1-.28,.29-.2,.52-.48,.66-.81,.17-.4,.25-.84,.23-1.28,.04-.63-.14-1.25-.51-1.76-.34-.41-.85-.63-1.38-.61-.35,0-.7,.09-1,.27-.3,.19-.53,.47-.66,.8-.17,.41-.25,.86-.23,1.3-.04,.63,.14,1.25,.52,1.75,.34,.41,.85,.63,1.38,.61" style="fill: #1f4666;"/>
  <path id="Path_317" data-name="Path 317" d="M24.64,183.44c-.14,.01-.28-.04-.38-.13-.09-.11-.14-.25-.13-.39v-7.56c0-.14,.04-.28,.13-.39,.1-.09,.23-.14,.37-.13,.25-.03,.49,.15,.52,.41,0,.04,0,.08,0,.11v1.2l-.14-.18c.12-.46,.41-.87,.8-1.14,.42-.29,.92-.44,1.44-.42,.51-.01,1,.12,1.43,.39,.42,.27,.75,.65,.95,1.1,.45,1.08,.45,2.3,0,3.39-.41,.94-1.35,1.54-2.38,1.5-.51,.01-1.01-.13-1.43-.42-.39-.27-.68-.67-.81-1.13h.16v3.29c0,.14-.04,.28-.14,.39-.1,.09-.24,.14-.38,.13m2.39-3.07c.35,0,.7-.09,1-.28,.29-.2,.52-.48,.66-.81,.17-.4,.25-.84,.23-1.28,.04-.63-.14-1.25-.51-1.76-.34-.41-.85-.63-1.38-.61-.35,0-.7,.09-1,.27-.3,.19-.53,.47-.66,.8-.17,.41-.25,.86-.23,1.3-.04,.63,.14,1.25,.52,1.75,.34,.41,.85,.63,1.38,.61" style="fill: #1f4666;"/>
  <path id="Path_318" data-name="Path 318" d="M40.49,181.19c-.39,0-.78-.08-1.13-.25-.32-.15-.59-.38-.79-.68-.19-.28-.29-.62-.29-.96-.02-.39,.1-.77,.35-1.07,.31-.3,.72-.5,1.15-.56,.72-.12,1.46-.18,2.19-.16h.57v.67h-.56c-.54,0-1.08,.03-1.61,.1-.3,.02-.58,.14-.82,.32-.16,.17-.25,.41-.23,.64,0,.32,.12,.63,.36,.85,.27,.23,.62,.35,.98,.33,.31,0,.62-.08,.89-.24,.26-.16,.47-.39,.61-.66,.15-.3,.23-.63,.22-.96v-1.44c.04-.4-.08-.81-.32-1.13-.28-.26-.66-.38-1.04-.35-.3,0-.6,.04-.89,.11-.32,.09-.64,.21-.93,.37-.09,.05-.2,.07-.3,.06-.08-.02-.15-.07-.2-.13-.05-.07-.08-.15-.09-.23,0-.09,.01-.18,.06-.26,.05-.09,.13-.16,.22-.2,.35-.18,.72-.31,1.1-.4,.34-.08,.69-.12,1.04-.13,.45-.02,.9,.07,1.31,.26,.34,.17,.61,.44,.77,.78,.18,.42,.27,.88,.25,1.35v3.42c0,.14-.03,.28-.12,.39-.09,.1-.22,.15-.35,.14-.14,0-.27-.04-.37-.14-.09-.11-.14-.25-.13-.39v-.99h.11c-.06,.3-.19,.58-.39,.82-.19,.23-.43,.41-.7,.53-.29,.13-.61,.19-.93,.19" style="fill: #1f4666;"/>
  <path id="Path_319" data-name="Path 319" d="M47.44,181.17c-.14,.01-.28-.04-.38-.14-.09-.11-.14-.25-.13-.39v-5.27c0-.14,.04-.28,.13-.39,.1-.09,.23-.14,.37-.13,.14,0,.27,.04,.37,.13,.09,.11,.14,.24,.13,.39v1.09l-.14-.15c.15-.46,.46-.85,.87-1.11,.42-.25,.9-.38,1.38-.37,.42-.02,.84,.08,1.22,.27,.33,.18,.58,.46,.73,.8,.17,.43,.26,.89,.24,1.36v3.39c0,.14-.04,.28-.13,.39-.1,.1-.23,.15-.37,.14-.14,0-.28-.04-.39-.14-.09-.11-.14-.25-.13-.39v-3.32c.04-.45-.08-.89-.33-1.26-.28-.29-.67-.43-1.07-.4-.5-.02-.99,.17-1.35,.52-.35,.38-.53,.89-.5,1.4v3.06c.04,.25-.13,.49-.39,.53-.04,0-.09,0-.13,0" style="fill: #1f4666;"/>
  <path id="Path_320" data-name="Path 320" d="M58.18,181.19c-.51,.01-1-.12-1.43-.39-.42-.27-.75-.65-.95-1.11-.45-1.08-.45-2.3,0-3.39,.2-.45,.53-.83,.95-1.1,.43-.26,.93-.4,1.43-.39,.51-.01,1.01,.13,1.43,.42,.39,.27,.67,.67,.8,1.12h-.14v-3.76c-.03-.25,.15-.49,.41-.52,.04,0,.08,0,.11,0,.14,0,.27,.04,.37,.13,.09,.1,.14,.24,.13,.39v8.04c0,.14-.04,.28-.13,.39-.22,.19-.54,.19-.75,0-.09-.11-.14-.25-.13-.39v-1.2l.14,.18c-.12,.47-.41,.87-.8,1.15-.42,.29-.92,.44-1.43,.43m.21-.82c.73,.02,1.39-.41,1.66-1.09,.17-.4,.25-.84,.23-1.28,.04-.63-.14-1.25-.51-1.76-.34-.41-.85-.63-1.38-.61-.35,0-.7,.09-1,.27-.29,.2-.52,.47-.66,.8-.17,.41-.25,.86-.23,1.3-.04,.63,.14,1.25,.52,1.75,.34,.41,.85,.63,1.38,.61" style="fill: #1f4666;"/>
  <path id="Path_321" data-name="Path 321" d="M70.98,181.08c-.28,.03-.53-.16-.57-.44,0-.04,0-.08,0-.13v-7.77c-.03-.28,.16-.53,.44-.57,.04,0,.08,0,.12,0h4.7c.12,0,.24,.03,.33,.11,.08,.09,.12,.2,.11,.32,.03,.22-.13,.42-.35,.44-.03,0-.06,0-.09,0h-4.26v3.08h3.99c.12,0,.24,.03,.33,.11,.08,.09,.12,.2,.11,.32,.02,.22-.13,.42-.35,.44-.03,0-.06,0-.09,0h-3.99v3.21h4.26c.12,0,.24,.03,.33,.11,.08,.09,.12,.2,.11,.32,.02,.22-.13,.42-.35,.44-.03,0-.06,0-.09,0h-4.7Z" style="fill: #1f4666;"/>
  <path id="Path_322" data-name="Path 322" d="M79.88,181.17c-.14,.01-.28-.04-.38-.14-.09-.11-.14-.25-.13-.39v-5.27c0-.14,.04-.28,.13-.39,.1-.09,.23-.14,.37-.13,.14,0,.27,.04,.37,.13,.09,.11,.14,.24,.13,.39v1.09l-.14-.16c.15-.46,.46-.85,.87-1.11,.42-.25,.9-.38,1.38-.37,.42-.02,.84,.08,1.22,.27,.33,.18,.58,.46,.73,.8,.17,.43,.26,.89,.24,1.36v3.39c0,.14-.04,.28-.13,.39-.1,.1-.23,.15-.37,.14-.14,0-.28-.04-.38-.14-.09-.11-.14-.25-.13-.39v-3.32c.04-.45-.08-.89-.34-1.26-.28-.29-.67-.43-1.07-.4-.5-.02-.99,.17-1.35,.52-.35,.38-.53,.89-.5,1.4v3.06c.04,.25-.13,.49-.39,.53-.04,0-.09,0-.13,0" style="fill: #1f4666;"/>
  <path id="Path_323" data-name="Path 323" d="M88.71,173.45c-.18,.01-.36-.05-.49-.17-.12-.12-.19-.29-.18-.46-.01-.17,.05-.34,.18-.46,.3-.21,.69-.21,.99,0,.12,.12,.18,.29,.17,.46,0,.17-.05,.34-.17,.46-.14,.12-.32,.18-.5,.17m0,7.68c-.14,.01-.28-.04-.38-.14-.09-.12-.14-.26-.13-.41v-5.17c0-.14,.04-.29,.13-.4,.1-.1,.24-.15,.38-.14,.14,0,.28,.04,.38,.14,.1,.11,.15,.25,.14,.4v5.17c0,.15-.04,.3-.13,.41-.1,.1-.24,.15-.38,.14" style="fill: #1f4666;"/>
  <path id="Path_324" data-name="Path 324" d="M100.8,181.19c-.56,.02-1.11-.12-1.59-.4-.45-.27-.8-.66-1.03-1.13-.25-.53-.37-1.1-.36-1.69,0-.45,.06-.89,.2-1.31,.12-.37,.33-.71,.59-.99,.26-.28,.59-.49,.94-.62,.4-.15,.82-.22,1.24-.21,.32,0,.64,.05,.95,.14,.33,.09,.64,.26,.9,.48,.15,.1,.22,.29,.16,.46-.02,.08-.07,.15-.13,.2-.06,.06-.14,.09-.22,.1-.1,0-.2-.03-.27-.09-.2-.16-.43-.28-.67-.35-.21-.06-.43-.1-.66-.1-.29,0-.59,.05-.86,.16-.24,.1-.45,.25-.62,.45-.18,.21-.31,.46-.39,.72-.09,.32-.14,.66-.13,1-.03,.62,.15,1.24,.52,1.74,.36,.43,.91,.67,1.48,.64,.48,0,.95-.16,1.33-.45,.07-.06,.17-.09,.27-.09,.08,0,.16,.04,.21,.1,.06,.06,.1,.13,.12,.21,.02,.08,.02,.17,0,.25-.03,.09-.09,.16-.16,.21-.26,.21-.56,.38-.88,.47-.3,.09-.62,.14-.93,.14" style="fill: #1f4666;"/>
  <path id="Path_325" data-name="Path 325" d="M108.33,181.19c-.54,.01-1.08-.12-1.55-.39-.44-.26-.79-.65-1.02-1.11-.25-.53-.37-1.1-.36-1.69,0-.45,.06-.89,.2-1.32,.12-.37,.33-.71,.59-1,.26-.28,.58-.49,.93-.64,.38-.15,.79-.23,1.21-.22,.54-.01,1.08,.12,1.55,.39,.44,.26,.79,.65,1.02,1.11,.25,.53,.37,1.1,.36,1.69,0,.45-.06,.89-.2,1.32-.13,.37-.33,.71-.59,1.01-.26,.28-.58,.5-.93,.64-.38,.15-.79,.23-1.21,.22m0-.82c.73,.02,1.39-.41,1.66-1.09,.17-.4,.25-.84,.23-1.28,.04-.63-.14-1.25-.51-1.76-.34-.41-.85-.63-1.38-.61-.35,0-.7,.09-1,.27-.29,.2-.52,.47-.66,.8-.17,.41-.25,.86-.23,1.3-.04,.63,.14,1.25,.52,1.75,.34,.41,.85,.63,1.38,.61" style="fill: #1f4666;"/>
  <path id="Path_326" data-name="Path 326" d="M115.05,181.17c-.14,.01-.28-.04-.38-.14-.09-.11-.13-.25-.13-.39v-5.27c0-.14,.04-.28,.13-.39,.1-.09,.23-.14,.37-.13,.14,0,.27,.04,.37,.13,.09,.11,.14,.24,.13,.39v1.11l-.14-.18c.27-.91,1.12-1.51,2.06-1.48,.45-.02,.9,.11,1.27,.37,.35,.29,.58,.7,.65,1.16h-.19c.14-.45,.43-.85,.82-1.12,.4-.28,.88-.42,1.37-.41,.4-.02,.79,.08,1.14,.27,.31,.19,.54,.47,.68,.8,.16,.43,.24,.9,.23,1.36v3.39c0,.14-.04,.28-.13,.39-.1,.1-.24,.15-.39,.14-.14,0-.27-.04-.37-.14-.09-.11-.14-.25-.13-.39v-3.34c.03-.44-.07-.87-.29-1.24-.24-.29-.61-.44-.99-.4-.46-.02-.9,.17-1.19,.52-.31,.41-.46,.91-.44,1.42v3.03c0,.14-.04,.28-.13,.39-.1,.1-.24,.15-.39,.14-.14,0-.27-.04-.37-.14-.09-.11-.14-.25-.13-.39v-3.34c.03-.44-.07-.87-.3-1.24-.24-.29-.61-.43-.98-.4-.46-.02-.9,.17-1.19,.52-.31,.41-.46,.91-.44,1.42v3.03c.04,.25-.13,.49-.39,.53-.04,0-.09,0-.13,0" style="fill: #1f4666;"/>
  <path id="Path_327" data-name="Path 327" d="M127.51,183.44c-.14,.01-.28-.04-.38-.13-.09-.11-.14-.25-.13-.39v-7.56c0-.14,.04-.28,.13-.39,.1-.09,.23-.14,.37-.13,.25-.03,.49,.15,.52,.41,0,.04,0,.08,0,.11v1.2l-.14-.18c.12-.46,.41-.87,.8-1.14,.42-.29,.92-.44,1.43-.42,.51-.01,1,.12,1.43,.39,.42,.27,.75,.65,.95,1.1,.45,1.08,.45,2.3,0,3.39-.41,.94-1.35,1.54-2.38,1.5-.51,.01-1.01-.13-1.43-.42-.39-.27-.68-.67-.81-1.13h.15v3.29c0,.14-.04,.28-.14,.39-.1,.09-.24,.14-.38,.13m2.39-3.07c.36,0,.71-.09,1.01-.28,.29-.2,.52-.48,.66-.81,.17-.4,.25-.84,.23-1.28,.04-.63-.14-1.25-.51-1.76-.34-.41-.85-.63-1.38-.61-.35,0-.7,.09-1,.27-.3,.19-.53,.47-.66,.8-.17,.41-.25,.86-.23,1.3-.04,.63,.14,1.25,.52,1.75,.34,.41,.85,.63,1.38,.61" style="fill: #1f4666;"/>
  <path id="Path_328" data-name="Path 328" d="M138,181.19c-.39,0-.78-.08-1.13-.25-.32-.15-.59-.38-.79-.68-.19-.28-.29-.62-.29-.96-.02-.39,.1-.77,.35-1.07,.31-.3,.72-.5,1.15-.56,.72-.12,1.46-.18,2.19-.16h.57v.67h-.56c-.54,0-1.08,.03-1.61,.1-.3,.02-.58,.14-.82,.32-.16,.17-.25,.41-.23,.64,0,.32,.12,.63,.36,.85,.27,.23,.62,.35,.98,.33,.31,0,.62-.08,.89-.24,.26-.16,.47-.39,.61-.66,.15-.3,.23-.63,.22-.96v-1.44c.04-.4-.08-.81-.32-1.13-.28-.26-.66-.38-1.04-.35-.3,0-.6,.04-.88,.11-.32,.09-.64,.21-.93,.37-.09,.05-.2,.07-.3,.06-.08-.02-.15-.07-.2-.13-.05-.07-.08-.15-.09-.23,0-.09,.01-.18,.06-.26,.05-.09,.13-.16,.22-.2,.35-.18,.72-.31,1.1-.4,.34-.08,.69-.12,1.04-.13,.45-.02,.9,.07,1.32,.26,.34,.17,.61,.44,.77,.78,.18,.42,.27,.88,.25,1.35v3.42c0,.14-.03,.28-.12,.39-.09,.1-.22,.15-.35,.14-.14,0-.27-.04-.37-.14-.09-.11-.14-.25-.13-.39v-.99h.11c-.06,.3-.19,.58-.39,.82-.19,.23-.43,.41-.7,.53-.29,.13-.61,.19-.93,.19" style="fill: #1f4666;"/>
  <path id="Path_329" data-name="Path 329" d="M144.96,181.17c-.14,.01-.28-.04-.38-.14-.09-.11-.14-.25-.13-.39v-5.27c0-.14,.04-.28,.13-.39,.1-.09,.23-.14,.37-.13,.14,0,.27,.04,.37,.13,.09,.11,.14,.24,.13,.39v1.09l-.14-.15c.15-.46,.46-.85,.87-1.11,.42-.25,.9-.38,1.38-.37,.42-.02,.84,.08,1.22,.27,.33,.18,.58,.46,.73,.8,.17,.43,.26,.89,.24,1.36v3.39c0,.14-.04,.28-.13,.39-.1,.1-.23,.15-.37,.14-.14,0-.28-.04-.39-.14-.09-.11-.14-.25-.13-.39v-3.32c.04-.45-.08-.89-.33-1.26-.28-.29-.67-.43-1.07-.4-.5-.02-.99,.17-1.35,.52-.35,.38-.53,.89-.5,1.4v3.06c.04,.25-.13,.49-.39,.53-.04,0-.09,0-.13,0" style="fill: #1f4666;"/>
  <path id="Path_330" data-name="Path 330" d="M154.55,183.44c-.11,0-.22-.03-.3-.1-.08-.07-.13-.17-.13-.27-.01-.12,0-.24,.06-.35l.87-1.96v.44l-2.43-5.64c-.05-.11-.07-.23-.05-.35,.01-.1,.07-.2,.15-.27,.1-.07,.23-.11,.35-.1,.11,0,.22,.02,.32,.09,.09,.09,.16,.2,.2,.32l2.07,5.08h-.34l2.1-5.08c.05-.12,.12-.23,.21-.32,.1-.07,.21-.1,.33-.09,.11,0,.22,.03,.31,.1,.07,.07,.12,.16,.13,.26,.01,.12,0,.24-.06,.35l-3.23,7.48c-.05,.12-.12,.23-.22,.32-.1,.06-.22,.1-.33,.09" style="fill: #1f4666;"/>
  <path id="Path_331" data-name="Path 331" d="M3.21,181.19c-.39,0-.78-.08-1.13-.25-.32-.15-.59-.38-.79-.68-.19-.28-.29-.62-.29-.96-.02-.39,.1-.77,.35-1.07,.31-.3,.72-.5,1.15-.56,.72-.12,1.46-.18,2.19-.16h.57v.67h-.56c-.54,0-1.08,.03-1.61,.1-.3,.02-.58,.14-.82,.32-.16,.17-.25,.41-.23,.64,0,.32,.12,.63,.36,.85,.27,.23,.62,.35,.98,.33,.31,0,.62-.08,.89-.24,.26-.16,.47-.39,.61-.66,.15-.3,.23-.63,.22-.96v-1.44c.04-.4-.08-.81-.32-1.13-.28-.26-.66-.38-1.04-.35-.3,0-.6,.04-.88,.11-.32,.09-.64,.21-.94,.37-.09,.05-.2,.07-.3,.06-.08-.02-.15-.07-.2-.13-.05-.07-.08-.15-.09-.23,0-.09,.01-.18,.06-.26,.05-.09,.13-.16,.22-.2,.35-.18,.72-.31,1.1-.4,.34-.08,.69-.12,1.04-.13,.45-.02,.9,.07,1.31,.26,.34,.17,.61,.44,.77,.78,.18,.42,.27,.88,.25,1.35v3.42c0,.14-.03,.28-.12,.39-.09,.1-.22,.15-.35,.14-.14,0-.27-.04-.37-.14-.09-.11-.14-.25-.13-.39v-.99h.11c-.06,.3-.19,.58-.38,.82-.19,.23-.43,.41-.7,.53-.29,.13-.61,.19-.93,.19" style="fill: #1f4666;"/>
  <path id="Path_332" data-name="Path 332" d="M18.13,181.19c-.51,.01-1.01-.14-1.44-.43-.39-.28-.68-.68-.8-1.15l.14-.14v1.16c0,.14-.04,.28-.13,.39-.22,.19-.54,.19-.75,0-.09-.11-.13-.25-.13-.39v-8.04c0-.14,.04-.28,.13-.39,.1-.1,.24-.14,.38-.13,.14,0,.28,.04,.38,.13,.1,.1,.15,.24,.14,.39v3.77h-.15c.13-.46,.42-.85,.81-1.12,.42-.29,.92-.43,1.43-.42,.51-.01,1.01,.12,1.44,.39,.41,.27,.74,.65,.94,1.1,.45,1.08,.45,2.3,0,3.39-.2,.45-.53,.84-.95,1.11-.43,.27-.93,.4-1.43,.39m-.22-.82c.35,0,.7-.09,1-.28,.29-.2,.52-.48,.66-.81,.17-.4,.25-.84,.23-1.28,.04-.63-.14-1.25-.51-1.76-.34-.41-.85-.63-1.38-.61-.35,0-.7,.09-1,.27-.3,.19-.53,.47-.66,.8-.17,.41-.25,.86-.23,1.3-.04,.63,.14,1.25,.52,1.75,.34,.41,.85,.63,1.38,.61" style="fill: #1f4666;"/>
  <path id="Path_333" data-name="Path 333" d="M24.64,183.44c-.14,.01-.28-.04-.38-.13-.09-.11-.14-.25-.13-.39v-7.56c0-.14,.04-.28,.13-.39,.1-.09,.23-.14,.37-.13,.25-.03,.49,.15,.52,.41,0,.04,0,.08,0,.11v1.2l-.14-.18c.12-.46,.41-.87,.8-1.14,.42-.29,.92-.44,1.44-.42,.51-.01,1,.12,1.43,.39,.42,.27,.75,.65,.95,1.1,.45,1.08,.45,2.3,0,3.39-.41,.94-1.35,1.54-2.38,1.5-.51,.01-1.01-.13-1.43-.42-.39-.27-.68-.67-.81-1.13h.16v3.29c0,.14-.04,.28-.14,.39-.1,.09-.24,.14-.38,.13m2.39-3.07c.35,0,.7-.09,1-.28,.29-.2,.52-.48,.66-.81,.17-.4,.25-.84,.23-1.28,.04-.63-.14-1.25-.51-1.76-.34-.41-.85-.63-1.38-.61-.35,0-.7,.09-1,.27-.3,.19-.53,.47-.66,.8-.17,.41-.25,.86-.23,1.3-.04,.63,.14,1.25,.52,1.75,.34,.41,.85,.63,1.38,.61" style="fill: #1f4666;"/>
  <path id="Path_334" data-name="Path 334" d="M40.49,181.19c-.39,0-.78-.08-1.13-.25-.32-.15-.59-.38-.79-.68-.19-.28-.29-.62-.29-.96-.02-.39,.1-.77,.35-1.07,.31-.3,.72-.5,1.15-.56,.72-.12,1.46-.18,2.19-.16h.57v.67h-.56c-.54,0-1.08,.03-1.61,.1-.3,.02-.58,.14-.82,.32-.16,.17-.25,.41-.23,.64,0,.32,.12,.63,.36,.85,.27,.23,.62,.35,.98,.33,.31,0,.62-.08,.89-.24,.26-.16,.47-.39,.61-.66,.15-.3,.23-.63,.22-.96v-1.44c.04-.4-.08-.81-.32-1.13-.28-.26-.66-.38-1.04-.35-.3,0-.6,.04-.89,.11-.32,.09-.64,.21-.93,.37-.09,.05-.2,.07-.3,.06-.08-.02-.15-.07-.2-.13-.05-.07-.08-.15-.09-.23,0-.09,.01-.18,.06-.26,.05-.09,.13-.16,.22-.2,.35-.18,.72-.31,1.1-.4,.34-.08,.69-.12,1.04-.13,.45-.02,.9,.07,1.31,.26,.34,.17,.61,.44,.77,.78,.18,.42,.27,.88,.25,1.35v3.42c0,.14-.03,.28-.12,.39-.09,.1-.22,.15-.35,.14-.14,0-.27-.04-.37-.14-.09-.11-.14-.25-.13-.39v-.99h.11c-.06,.3-.19,.58-.39,.82-.19,.23-.43,.41-.7,.53-.29,.13-.61,.19-.93,.19" style="fill: #1f4666;"/>
  <path id="Path_335" data-name="Path 335" d="M47.44,181.17c-.14,.01-.28-.04-.38-.14-.09-.11-.14-.25-.13-.39v-5.27c0-.14,.04-.28,.13-.39,.1-.09,.23-.14,.37-.13,.14,0,.27,.04,.37,.13,.09,.11,.14,.24,.13,.39v1.09l-.14-.15c.15-.46,.46-.85,.87-1.11,.42-.25,.9-.38,1.38-.37,.42-.02,.84,.08,1.22,.27,.33,.18,.58,.46,.73,.8,.17,.43,.26,.89,.24,1.36v3.39c0,.14-.04,.28-.13,.39-.1,.1-.23,.15-.37,.14-.14,0-.28-.04-.39-.14-.09-.11-.14-.25-.13-.39v-3.32c.04-.45-.08-.89-.33-1.26-.28-.29-.67-.43-1.07-.4-.5-.02-.99,.17-1.35,.52-.35,.38-.53,.89-.5,1.4v3.06c.04,.25-.13,.49-.39,.53-.04,0-.09,0-.13,0" style="fill: #1f4666;"/>
  <path id="Path_336" data-name="Path 336" d="M58.18,181.19c-.51,.01-1-.12-1.43-.39-.42-.27-.75-.65-.95-1.11-.45-1.08-.45-2.3,0-3.39,.2-.45,.53-.83,.95-1.1,.43-.26,.93-.4,1.43-.39,.51-.01,1.01,.13,1.43,.42,.39,.27,.67,.67,.8,1.12h-.14v-3.76c-.03-.25,.15-.49,.41-.52,.04,0,.08,0,.11,0,.14,0,.27,.04,.37,.13,.09,.1,.14,.24,.13,.39v8.04c0,.14-.04,.28-.13,.39-.22,.19-.54,.19-.75,0-.09-.11-.14-.25-.13-.39v-1.2l.14,.18c-.12,.47-.41,.87-.8,1.15-.42,.29-.92,.44-1.43,.43m.21-.82c.73,.02,1.39-.41,1.66-1.09,.17-.4,.25-.84,.23-1.28,.04-.63-.14-1.25-.51-1.76-.34-.41-.85-.63-1.38-.61-.35,0-.7,.09-1,.27-.29,.2-.52,.47-.66,.8-.17,.41-.25,.86-.23,1.3-.04,.63,.14,1.25,.52,1.75,.34,.41,.85,.63,1.38,.61" style="fill: #1f4666;"/>
  <path id="Path_337" data-name="Path 337" d="M70.98,181.08c-.28,.03-.53-.16-.57-.44,0-.04,0-.08,0-.13v-7.77c-.03-.28,.16-.53,.44-.57,.04,0,.08,0,.12,0h4.7c.12,0,.24,.03,.33,.11,.08,.09,.12,.2,.11,.32,.03,.22-.13,.42-.35,.44-.03,0-.06,0-.09,0h-4.26v3.08h3.99c.12,0,.24,.03,.33,.11,.08,.09,.12,.2,.11,.32,.02,.22-.13,.42-.35,.44-.03,0-.06,0-.09,0h-3.99v3.21h4.26c.12,0,.24,.03,.33,.11,.08,.09,.12,.2,.11,.32,.02,.22-.13,.42-.35,.44-.03,0-.06,0-.09,0h-4.7Z" style="fill: #1f4666;"/>
  <path id="Path_338" data-name="Path 338" d="M79.88,181.17c-.14,.01-.28-.04-.38-.14-.09-.11-.14-.25-.13-.39v-5.27c0-.14,.04-.28,.13-.39,.1-.09,.23-.14,.37-.13,.14,0,.27,.04,.37,.13,.09,.11,.14,.24,.13,.39v1.09l-.14-.16c.15-.46,.46-.85,.87-1.11,.42-.25,.9-.38,1.38-.37,.42-.02,.84,.08,1.22,.27,.33,.18,.58,.46,.73,.8,.17,.43,.26,.89,.24,1.36v3.39c0,.14-.04,.28-.13,.39-.1,.1-.23,.15-.37,.14-.14,0-.28-.04-.38-.14-.09-.11-.14-.25-.13-.39v-3.32c.04-.45-.08-.89-.34-1.26-.28-.29-.67-.43-1.07-.4-.5-.02-.99,.17-1.35,.52-.35,.38-.53,.89-.5,1.4v3.06c.04,.25-.13,.49-.39,.53-.04,0-.09,0-.13,0" style="fill: #1f4666;"/>
  <path id="Path_339" data-name="Path 339" d="M88.71,173.45c-.18,.01-.36-.05-.49-.17-.12-.12-.19-.29-.18-.46-.01-.17,.05-.34,.18-.46,.3-.21,.69-.21,.99,0,.12,.12,.18,.29,.17,.46,0,.17-.05,.34-.17,.46-.14,.12-.32,.18-.5,.17m0,7.68c-.14,.01-.28-.04-.38-.14-.09-.12-.14-.26-.13-.41v-5.17c0-.14,.04-.29,.13-.4,.1-.1,.24-.15,.38-.14,.14,0,.28,.04,.38,.14,.1,.11,.15,.25,.14,.4v5.17c0,.15-.04,.3-.13,.41-.1,.1-.24,.15-.38,.14" style="fill: #1f4666;"/>
  <path id="Path_340" data-name="Path 340" d="M100.8,181.19c-.56,.02-1.11-.12-1.59-.4-.45-.27-.8-.66-1.03-1.13-.25-.53-.37-1.1-.36-1.69,0-.45,.06-.89,.2-1.31,.12-.37,.33-.71,.59-.99,.26-.28,.59-.49,.94-.62,.4-.15,.82-.22,1.24-.21,.32,0,.64,.05,.95,.14,.33,.09,.64,.26,.9,.48,.15,.1,.22,.29,.16,.46-.02,.08-.07,.15-.13,.2-.06,.06-.14,.09-.22,.1-.1,0-.2-.03-.27-.09-.2-.16-.43-.28-.67-.35-.21-.06-.43-.1-.66-.1-.29,0-.59,.05-.86,.16-.24,.1-.45,.25-.62,.45-.18,.21-.31,.46-.39,.72-.09,.32-.14,.66-.13,1-.03,.62,.15,1.24,.52,1.74,.36,.43,.91,.67,1.48,.64,.48,0,.95-.16,1.33-.45,.07-.06,.17-.09,.27-.09,.08,0,.16,.04,.21,.1,.06,.06,.1,.13,.12,.21,.02,.08,.02,.17,0,.25-.03,.09-.09,.16-.16,.21-.26,.21-.56,.38-.88,.47-.3,.09-.62,.14-.93,.14" style="fill: #1f4666;"/>
  <path id="Path_341" data-name="Path 341" d="M108.33,181.19c-.54,.01-1.08-.12-1.55-.39-.44-.26-.79-.65-1.02-1.11-.25-.53-.37-1.1-.36-1.69,0-.45,.06-.89,.2-1.32,.12-.37,.33-.71,.59-1,.26-.28,.58-.49,.93-.64,.38-.15,.79-.23,1.21-.22,.54-.01,1.08,.12,1.55,.39,.44,.26,.79,.65,1.02,1.11,.25,.53,.37,1.1,.36,1.69,0,.45-.06,.89-.2,1.32-.13,.37-.33,.71-.59,1.01-.26,.28-.58,.5-.93,.64-.38,.15-.79,.23-1.21,.22m0-.82c.73,.02,1.39-.41,1.66-1.09,.17-.4,.25-.84,.23-1.28,.04-.63-.14-1.25-.51-1.76-.34-.41-.85-.63-1.38-.61-.35,0-.7,.09-1,.27-.29,.2-.52,.47-.66,.8-.17,.41-.25,.86-.23,1.3-.04,.63,.14,1.25,.52,1.75,.34,.41,.85,.63,1.38,.61" style="fill: #1f4666;"/>
  <path id="Path_342" data-name="Path 342" d="M115.05,181.17c-.14,.01-.28-.04-.38-.14-.09-.11-.13-.25-.13-.39v-5.27c0-.14,.04-.28,.13-.39,.1-.09,.23-.14,.37-.13,.14,0,.27,.04,.37,.13,.09,.11,.14,.24,.13,.39v1.11l-.14-.18c.27-.91,1.12-1.51,2.06-1.48,.45-.02,.9,.11,1.27,.37,.35,.29,.58,.7,.65,1.16h-.19c.14-.45,.43-.85,.82-1.12,.4-.28,.88-.42,1.37-.41,.4-.02,.79,.08,1.14,.27,.31,.19,.54,.47,.68,.8,.16,.43,.24,.9,.23,1.36v3.39c0,.14-.04,.28-.13,.39-.1,.1-.24,.15-.39,.14-.14,0-.27-.04-.37-.14-.09-.11-.14-.25-.13-.39v-3.34c.03-.44-.07-.87-.29-1.24-.24-.29-.61-.44-.99-.4-.46-.02-.9,.17-1.19,.52-.31,.41-.46,.91-.44,1.42v3.03c0,.14-.04,.28-.13,.39-.1,.1-.24,.15-.39,.14-.14,0-.27-.04-.37-.14-.09-.11-.14-.25-.13-.39v-3.34c.03-.44-.07-.87-.3-1.24-.24-.29-.61-.43-.98-.4-.46-.02-.9,.17-1.19,.52-.31,.41-.46,.91-.44,1.42v3.03c.04,.25-.13,.49-.39,.53-.04,0-.09,0-.13,0" style="fill: #1f4666;"/>
  <path id="Path_343" data-name="Path 343" d="M127.51,183.44c-.14,.01-.28-.04-.38-.13-.09-.11-.14-.25-.13-.39v-7.56c0-.14,.04-.28,.13-.39,.1-.09,.23-.14,.37-.13,.25-.03,.49,.15,.52,.41,0,.04,0,.08,0,.11v1.2l-.14-.18c.12-.46,.41-.87,.8-1.14,.42-.29,.92-.44,1.43-.42,.51-.01,1,.12,1.43,.39,.42,.27,.75,.65,.95,1.1,.45,1.08,.45,2.3,0,3.39-.41,.94-1.35,1.54-2.38,1.5-.51,.01-1.01-.13-1.43-.42-.39-.27-.68-.67-.81-1.13h.15v3.29c0,.14-.04,.28-.14,.39-.1,.09-.24,.14-.38,.13m2.39-3.07c.36,0,.71-.09,1.01-.28,.29-.2,.52-.48,.66-.81,.17-.4,.25-.84,.23-1.28,.04-.63-.14-1.25-.51-1.76-.34-.41-.85-.63-1.38-.61-.35,0-.7,.09-1,.27-.3,.19-.53,.47-.66,.8-.17,.41-.25,.86-.23,1.3-.04,.63,.14,1.25,.52,1.75,.34,.41,.85,.63,1.38,.61" style="fill: #1f4666;"/>
  <path id="Path_344" data-name="Path 344" d="M138,181.19c-.39,0-.78-.08-1.13-.25-.32-.15-.59-.38-.79-.68-.19-.28-.29-.62-.29-.96-.02-.39,.1-.77,.35-1.07,.31-.3,.72-.5,1.15-.56,.72-.12,1.46-.18,2.19-.16h.57v.67h-.56c-.54,0-1.08,.03-1.61,.1-.3,.02-.58,.14-.82,.32-.16,.17-.25,.41-.23,.64,0,.32,.12,.63,.36,.85,.27,.23,.62,.35,.98,.33,.31,0,.62-.08,.89-.24,.26-.16,.47-.39,.61-.66,.15-.3,.23-.63,.22-.96v-1.44c.04-.4-.08-.81-.32-1.13-.28-.26-.66-.38-1.04-.35-.3,0-.6,.04-.88,.11-.32,.09-.64,.21-.93,.37-.09,.05-.2,.07-.3,.06-.08-.02-.15-.07-.2-.13-.05-.07-.08-.15-.09-.23,0-.09,.01-.18,.06-.26,.05-.09,.13-.16,.22-.2,.35-.18,.72-.31,1.1-.4,.34-.08,.69-.12,1.04-.13,.45-.02,.9,.07,1.32,.26,.34,.17,.61,.44,.77,.78,.18,.42,.27,.88,.25,1.35v3.42c0,.14-.03,.28-.12,.39-.09,.1-.22,.15-.35,.14-.14,0-.27-.04-.37-.14-.09-.11-.14-.25-.13-.39v-.99h.11c-.06,.3-.19,.58-.39,.82-.19,.23-.43,.41-.7,.53-.29,.13-.61,.19-.93,.19" style="fill: #1f4666;"/>
  <path id="Path_345" data-name="Path 345" d="M144.96,181.17c-.14,.01-.28-.04-.38-.14-.09-.11-.14-.25-.13-.39v-5.27c0-.14,.04-.28,.13-.39,.1-.09,.23-.14,.37-.13,.14,0,.27,.04,.37,.13,.09,.11,.14,.24,.13,.39v1.09l-.14-.15c.15-.46,.46-.85,.87-1.11,.42-.25,.9-.38,1.38-.37,.42-.02,.84,.08,1.22,.27,.33,.18,.58,.46,.73,.8,.17,.43,.26,.89,.24,1.36v3.39c0,.14-.04,.28-.13,.39-.1,.1-.23,.15-.37,.14-.14,0-.28-.04-.39-.14-.09-.11-.14-.25-.13-.39v-3.32c.04-.45-.08-.89-.33-1.26-.28-.29-.67-.43-1.07-.4-.5-.02-.99,.17-1.35,.52-.35,.38-.53,.89-.5,1.4v3.06c.04,.25-.13,.49-.39,.53-.04,0-.09,0-.13,0" style="fill: #1f4666;"/>
  <path id="Path_346" data-name="Path 346" d="M154.55,183.44c-.11,0-.22-.03-.3-.1-.08-.07-.13-.17-.13-.27-.01-.12,0-.24,.06-.35l.87-1.96v.44l-2.43-5.64c-.05-.11-.07-.23-.05-.35,.01-.1,.07-.2,.15-.27,.1-.07,.23-.11,.35-.1,.11,0,.22,.02,.32,.09,.09,.09,.16,.2,.2,.32l2.07,5.08h-.34l2.1-5.08c.05-.12,.12-.23,.21-.32,.1-.07,.21-.1,.33-.09,.11,0,.22,.03,.31,.1,.07,.07,.12,.16,.13,.26,.01,.12,0,.24-.06,.35l-3.23,7.48c-.05,.12-.12,.23-.22,.32-.1,.06-.22,.1-.33,.09" style="fill: #1f4666;"/>
</svg>