<svg fill="none" height="525" viewBox="0 0 1800 525" width="1800" xmlns="http://www.w3.org/2000/svg"><g clip-rule="evenodd" fill-rule="evenodd"><g fill="#000"><path d="m171.772 187.856c-10.438 7.455-21.77 11.034-34.295 11.034-13.121 0-24.155-4.771-33.102-14.016-8.9461-9.245-13.7175-22.664-13.7175-40.259 0-18.787 3.8768-35.786 11.9285-51.5911 7.754-15.5071 17.297-26.8392 28.629-33.4 11.332-6.5607 22.962-9.841 34.891-9.841 11.928 0 21.471 2.6839 28.927 8.0518 7.455 5.3678 12.525 14.6125 15.208 27.7339l45.329-3.8768c-2.982-22.9625-12.525-40.5571-28.629-52.7839-16.103-11.9286-36.382-18.1911-60.537-18.1911-21.77 0-41.75 5.0696-60.239 14.9107-18.4896 9.8411-33.9968 25.05-45.9253 45.6268-11.9286 20.5768-17.8929 44.1357-17.8929 70.9747 0 31.313 8.35 54.872 24.7518 70.379 16.4018 15.805 38.7674 23.559 67.0984 23.559 25.348 0 47.416-6.263 66.502-19.086 19.085-12.525 33.698-31.611 43.539-56.959l-48.609-6.262c-5.666 15.507-13.42 26.839-23.857 33.996z"/><path d="m431.814 135.084h-90.358l-22.068 98.113h-48.609l49.503-219.4861h48.609l-19.085 84.6929h90.358l19.086-84.3946h48.609l-49.504 219.4858h-48.608z"/><path d="m515.612 233.197 49.205-219.4861h174.157l-8.35 36.6804h-125.846l-10.736 49.8017h121.97l-8.35 36.68h-121.97l-13.42 59.941h136.284l-8.052 36.681h-184.892z"/><path d="m930.131 233.197h-45.031l-63.221-147.3182-32.804 147.3182h-45.328l49.205-219.4861h45.03l63.222 146.7211 33.698-146.7211h45.329z"/><path d="m983.213 233.191 51.587-219.1871h48.61l-51.59 219.4861h-48.607z"/><path d="m1088.18 233.197 49.21-219.4861h174.16l-8.35 36.6804h-125.85l-10.74 49.8017h121.97l-8.35 36.68h-121.97l-13.42 59.941h136.29l-8.05 36.681h-184.9z"/><path d="m1405.78 50.6895h53.68c13.72 0 22.67 1.1929 26.84 3.5786 6.86 3.8768 10.44 9.8411 10.44 18.1911 0 7.7535-2.69 14.6125-8.35 20.875-5.67 6.2625-12.53 10.7358-21.17 13.1218-8.35 2.385-24.76 3.578-48.61 3.578h-25.95zm-20.28 91.5515h19.98c8.95 0 15.51.895 19.39 2.386s7.75 4.473 11.33 8.35c5.07 5.964 10.74 16.104 17.3 29.821 12.22 27.436 19.38 44.136 21.47 50.1h51.89c-12.53-29.523-24.16-52.783-34.59-69.782-6.27-10.139-12.83-17.594-19.09-23.26 23.26-2.684 41.15-10.14 53.68-21.77 12.52-11.929 18.79-27.4358 18.79-47.1179 0-13.1214-2.99-24.1554-8.95-32.8036-5.97-8.6482-13.42-14.9107-22.96-18.7875-9.55-3.8768-23.86-5.6661-42.95-5.6661h-104.97l-49.2 219.4861h48.61z"/><path d="m1561.15 233.191 49.21-219.1871h174.16l-8.35 36.6804h-125.85l-10.74 49.5037h121.97l-8.35 36.68h-121.97l-13.42 59.941h136.29l-8.05 36.681h-184.9z"/></g><path d="m1789.29 289.546h-958.763c-4.772 0-520.682-11.928-810.5466 212.03l.5964.597-.5964-.597s-6.5608 5.667-9.2447 9.245c-2.68391 3.28-10.7357 10.736-10.7357 10.736h35.4875l.2982.298c241.5533-186.682 646.5283-205.47 762.5343-206.961-66.8 5.368-406.466 39.066-584.799 186.682 0 0-6.56 5.667-9.244 9.245-2.684 3.28-10.14 10.736-10.14 10.736h35.19l.298.298c186.086-154.475 571.677-181.314 581.518-181.911h70.677c-110.638 17.893-340.263 64.713-474.161 161.036 0 0 0 0-.298.298 0 0-.298 0-.298.298-1.492 1.193-7.158 5.368-10.438 8.649-2.982 2.982-11.332 11.928-11.332 11.928h36.68l.298.298s.299 0 .299-.298h.298v-.298c169.386-121.671 509.946-163.421 524.559-165.211h72.463c-105.863 15.507-295.826 54.275-412.726 144.634-.298 0-.298.298-.596.298-1.789 1.492-6.859 6.561-9.543 9.543-2.982 3.579-9.841 10.736-9.841 10.736h35.189c157.457-121.97 466.407-147.914 476.547-148.809h93.04c-106.16 13.718-315.508 49.802-388.571 127.338-1.491 1.789-3.28 3.578-4.771 5.367-1.491 1.79-3.281 3.877-4.473 5.07-2.983 2.982-10.438 11.034-10.438 11.034h34.295.298c82.904-98.411 426.74-129.723 438.38-130.618h72.46c-98.11 14.613-246.32 45.925-328.33 110.339-2.09 1.79-5.967 5.07-8.353 7.456-2.982 2.982-12.227 12.227-12.227 12.227h36.38c119.29-93.938 401.7-115.409 411.24-116.006.89 0 320.28.597 320.28.597v-.299l.6.299z" fill="#006DB7"/></g></svg>