<svg fill="none" xmlns="http://www.w3.org/2000/svg" viewBox="0 0 410 128">
  <g clip-path="url(#a)" fill-rule="evenodd" clip-rule="evenodd">
    <path d="M386.398 113.376c2.566 1.328 6.151 2.286 10.315 2.286 8.914 0 13.287-4.338 13.287-9.742-.036-4.771-2.756-7.5705-8.865-9.3967-4.205-1.2659-5.933-2.2004-5.933-4.2469 0-1.9755 1.674-3.2812 4.588-3.2812 3.085 0 5.948 1.1924 7.284 1.9242l1.598-5.6279c-1.917-1.0568-5.23-1.952-8.924-1.952-7.733 0-12.446 4.3289-12.446 9.7836-.035 3.8227 2.758 7.2109 9.271 9.0529 4.096 1.195 5.494 2.183 5.494 4.323 0 1.946-1.551 3.436-5.318 3.436-3.036 0-6.8-1.283-8.708-2.458l-1.643 5.899Zm-28.062-15.5248c0-.6047.136-1.2568.281-1.8649.952-3.8831 4.384-6.3715 8.088-6.3715 5.647 0 8.69 4.5362 8.69 9.7762 0 6.245-3.476 10.103-8.927 10.103-4.04 0-7.163-2.833-7.96-6.055-.118-.651-.172-1.294-.172-1.974v-3.6138Zm-8.142 29.7048h8.142v-16.294h.126c1.811 2.798 5.53 4.4 9.807 4.4 7.678 0 15.413-5.553 15.413-16.7237 0-9.7375-6.775-15.5988-14.148-15.5988-5.392 0-9.389 2.1462-11.919 5.8248h-.126l-.397-5.0652h-7.152c.156 3.001.254 6.4456.254 10.3833v33.0736Zm-15.103-12.654h8.143V84.0991h-8.143v30.8029Zm4.103-43.9138c-2.824 0-4.611 1.9418-4.611 4.3056 0 2.3273 1.733 4.305 4.521 4.305 2.941 0 4.673-1.9777 4.673-4.305-.036-2.3922-1.761-4.3056-4.583-4.3056Zm-19.189 43.9138h8.143V69.5977h-8.143v45.3043Zm-15.084 0h8.142V69.5977h-8.142v45.3043Zm-15.085 0h8.143V84.0991h-8.143v30.8029Zm4.103-43.9138c-2.824 0-4.612 1.9418-4.612 4.3056 0 2.3273 1.734 4.305 4.521 4.305 2.942 0 4.675-1.9777 4.675-4.305-.037-2.3922-1.761-4.3056-4.584-4.3056Zm-41.15 43.9138h8.144V96.8325c0-.8866.052-1.6651.36-2.3626.915-2.2203 3.273-4.5567 6.748-4.5567 4.791 0 6.71 3.5134 6.71 8.3531v16.6357h8.142V97.206c0-10.5842-6.472-13.8665-11.833-13.8665-2.034 0-4.079.5415-5.715 1.4578-1.802.9481-3.23 2.2447-4.287 3.8187h-.125V69.5977h-8.144v45.3043Zm-27.343-36.478c.906-.1805 2.688-.3895 5.231-.3895 5.673 0 9.514 2.2425 9.514 7.1711 0 5.031-3.916 7.8839-10.199 7.8839-1.901 0-3.386-.119-4.546-.4356V78.424Zm-8.07 36.478h8.07V98.9747c1.197.2825 2.745.3816 4.454.3816 6.172 0 11.223-1.5114 14.566-4.657 2.513-2.2948 3.795-5.7451 3.795-9.6936 0-4.1291-1.806-7.4882-4.427-9.5496-2.782-2.259-7.109-3.5812-13.199-3.5812-5.977 0-10.214.4157-13.259.8963v42.1308Zm-22.164-25.7542c6.003 0 8.605 5.3044 8.605 10.2711 0 6.7151-3.879 10.4341-8.715 10.4341-5.068 0-8.722-4.125-8.722-10.2986 0-5.359 2.748-10.4066 8.832-10.4066Zm.253-5.8083c-10.459 0-17.512 6.6779-17.512 16.4416 0 9.7039 7.481 15.8809 16.889 15.8809 8.942 0 17.403-5.584 17.403-16.5404 0-9.0661-6.714-15.7821-16.78-15.7821Zm-21.104 24.5785c-1.697.687-3.914 1.378-7.057 1.378-5.702 0-10.388-3.552-10.388-9.8771-.037-5.6386 3.897-9.8577 10.354-9.8577 3.203 0 5.32.6521 6.769 1.3775l1.498-6.0236c-2.094-.8872-5.322-1.5756-8.554-1.5756-11.723 0-18.425 7.2718-18.425 16.4951 0 9.3704 6.678 15.8274 17.115 15.8274 4.397 0 8.03-.935 9.862-1.783l-1.174-5.961Zm-46.458-18.7702c6.004 0 8.605 5.3044 8.605 10.2711 0 6.7151-3.879 10.4341-8.716 10.4341-5.066 0-8.721-4.125-8.721-10.2986 0-5.359 2.747-10.4066 8.832-10.4066Zm.253-5.8083c-10.46 0-17.513 6.6779-17.513 16.4416 0 9.7039 7.481 15.8809 16.889 15.8809 8.943 0 17.404-5.584 17.404-16.5404 0-9.0661-6.714-15.7821-16.78-15.7821ZM76.9177 114.902h8.1402V97.083c0-.8057.1088-1.7373.3633-2.3603.8866-2.3484 3.2436-4.8374 6.8197-4.8374 4.6928 0 6.638 3.4889 6.638 8.3554v16.6613h8.1401V97.2317c0-10.6099-6.526-13.8922-11.9742-13.8922-5.7491 0-9.3309 3.3512-10.6622 5.7178h-.1988l-.3975-4.9582h-7.1231c.1549 2.6479.2545 5.7349.2545 9.3196v21.4833Zm-20.91-25.7542c6.0031 0 8.6049 5.3044 8.6049 10.2711 0 6.7151-3.8796 10.4341-8.7159 10.4341-5.0669 0-8.7216-4.125-8.7216-10.2986 0-5.359 2.7475-10.4066 8.8326-10.4066Zm.2523-5.8083c-10.4596 0-17.5127 6.6779-17.5127 16.4416 0 9.7039 7.4813 15.8809 16.8891 15.8809 8.9426 0 17.404-5.584 17.404-16.5404 0-9.0661-6.7138-15.7821-16.7804-15.7821ZM36.5959 113.446c-2.0454 1.021-6.7103 2.216-12.6667 2.216C9.13674 115.662 0 106.982 0 94.0564c0-13.2253 10.1708-22.5608 25.0248-22.5608 5.9137 0 10.0963 1.2044 11.9116 2.1519l-1.8387 6.3761c-2.3159-1.0512-5.752-1.9355-9.7392-1.9355-10.0387 0-16.8026 5.8208-16.8026 15.6102 0 8.7027 5.8704 15.2717 16.6557 15.2717 3.6729 0 7.5235-.714 9.9317-1.81l1.4526 6.286Z" fill="#111"/>
    <path d="M263.567.172528c-1.834-.05125-10.38 2.908152-20.666 11.035272-4.711 3.7219-8.264 6.6995-11.086 9.1424-2.768 2.3951-6.172 3.9298-9.799 4.4183-5.064.6822-18.45 1.8325-33.421-1.271-17.507-3.6285-33.904-11.6246-41.54-16.1346-.458-.27048-1.045-.15147-1.362.27561-.325.43791-.257 1.05177.158 1.40653 2.882 2.46966 13.49 12.04886 19.54 24.15016 4.122 8.2427 4.615 14.6842 4.942 18.9471.363 4.7429.011 8.5832 11.036 4.2156 9.476-3.7549 24.826-12.9287 41.174-26.2548 4.004-3.2635 5.026-4.9844 8.507-5.9535 4.926-1.3713 9.448-3.2949 13.698-5.8181 12.235-7.2638 19.376-15.2064 19.736-17.07931.143-.745968-.387-1.064856-.917-1.079662Z" fill="#E40015"/>
  </g>
  <defs>
    <clipPath id="a">
      <path fill="#fff" d="M0 0h410v127.556H0z"/>
    </clipPath>
  </defs>
</svg>
