<svg width="113" height="30" viewBox="0 0 113 30" fill="none" xmlns="http://www.w3.org/2000/svg">
<g clip-path="url(#clip0_731_3207)">
<path d="M52.8085 0.168587C52.28 0.280925 51.7571 0.449433 51.2511 0.685344C49.0076 1.73009 47.4051 4.16784 46.1793 6.37529C46.1793 6.38091 46.1681 6.38652 46.1569 6.39214C45.4034 6.48201 44.1214 6.74601 42.7214 7.59416C41.7543 8.18394 41.2089 8.86359 40.7309 9.45337C40.5791 9.63872 40.7365 9.92519 40.9558 9.85217C41.445 9.69489 41.9848 9.61626 42.7382 9.8634C43.1262 9.99259 43.4411 10.1836 43.6772 10.3633C43.6885 10.3689 43.6941 10.3858 43.6885 10.4026C43.3455 11.2115 42.8619 12.3068 42.2097 13.5593C41.6137 14.7108 40.7984 16.2723 39.4939 18.0753C38.1388 19.957 37.0143 21.5129 35.0407 22.7149C35.0295 22.7149 35.0239 22.7262 35.0126 22.7318C33.3876 23.7147 31.4534 23.8832 29.7497 23.1811C29.03 22.8834 28.2035 22.3442 27.9392 22.1757C27.8886 22.142 27.838 22.2038 27.8549 22.26C28.9344 25.6975 30.9417 25.3998 30.9417 25.3998C30.1489 28.2251 32.2069 29.781 32.6342 30.0057C32.6792 30.0282 32.7298 29.9832 32.7185 29.9271C32.4992 29.0564 32.4711 27.2253 32.876 26.4052C33.337 25.4728 34.2985 25.3043 35.1194 25.0235C41.5125 22.8048 46.0332 17.3901 49.643 11.453C52.0326 7.52114 53.5789 4.24647 57.8296 1.48856C58.1839 1.25827 58.1276 0.690961 57.7397 0.561771C56.1878 0.0450142 54.4504 -0.162812 52.8029 0.17982L52.8085 0.168587Z" fill="white"/>
<path d="M2.2997 3.22949H6.88222C10.2671 3.22949 12.2688 5.67847 12.2688 9.00369C12.2688 13.0423 9.6486 16.3113 4.5769 16.3113H0L2.2997 3.22949ZM4.8974 13.9185C7.85495 13.9185 9.57551 12.0144 9.57551 9.1722C9.57551 6.89173 8.45096 5.6223 6.37618 5.6223H4.58252L3.10375 13.9185H4.8974Z" fill="white"/>
<path d="M16.7667 3.22949H25.9318L25.5213 5.6223H19.0102L18.5435 8.20047H23.8008L23.3903 10.5933H18.1331L17.537 13.9185H24.1438L23.7333 16.3113H14.4727L16.7724 3.22949H16.7667Z" fill="white"/>
<path d="M29.5644 3.22949H32.2577L30.3684 13.9185H36.9751L36.5422 16.3113H27.2422L29.5644 3.22949Z" fill="white"/>
<path d="M59.8974 3.22949H62.5906L60.2909 16.3113H57.5977L59.8974 3.22949Z" fill="white"/>
<path d="M66.505 3.22949H69.2545L72.6619 11.8627L74.18 3.22949H76.8733L74.5736 16.3113H71.8803L68.383 7.65563L66.8311 16.3113H64.2109L66.5106 3.22949H66.505Z" fill="white"/>
<path d="M56.7124 21.1416H58.298L59.7543 27.8931L63.5384 21.1416H65.2533L63.8083 29.23H62.8355L64.1175 21.9617L59.9961 29.23H59.0683L57.5164 21.9617L56.2345 29.23H55.2617L56.7068 21.1416H56.7124Z" fill="white"/>
<path d="M66.7888 23.1303H67.7165L66.6426 29.2303H65.7148L66.7888 23.1303ZM67.1037 20.9229H68.1664L67.9583 22.1586H66.8956L67.1037 20.9229Z" fill="white"/>
<path d="M75.4412 21.0244L73.9961 29.2307H73.164L73.0571 28.5623C72.6523 29.0341 72.0844 29.3487 71.1229 29.3487C69.7791 29.3487 68.6602 28.2253 68.6602 26.4728C68.6602 24.5069 69.9927 23.0184 72.0844 23.0184C72.9053 23.0184 73.6813 23.4902 73.9793 24.0463L74.5134 21.03H75.4412V21.0244ZM73.7037 25.7258C73.7037 24.7316 73.1696 23.8441 71.9326 23.8441C70.5775 23.8441 69.5823 24.9282 69.5823 26.4897C69.5823 27.7366 70.302 28.5118 71.2691 28.5118C72.7872 28.5118 73.6981 27.1693 73.6981 25.7258H73.7037Z" fill="white"/>
<path d="M75.5547 27.843L76.3981 27.4948C76.6286 28.1295 77.264 28.5114 78.0174 28.5114C79.0352 28.5114 79.44 28.0733 79.44 27.5397C79.44 26.9275 78.9058 26.7196 78.2255 26.5792C76.8929 26.304 76.2913 25.7254 76.2913 24.7874C76.2913 23.6528 77.3315 23.0068 78.6191 23.0068C79.6143 23.0068 80.3453 23.4113 80.7726 24.1302L80.0191 24.6245C79.7774 24.1752 79.1757 23.8381 78.4673 23.8381C77.7251 23.8381 77.1965 24.2089 77.1965 24.7425C77.1965 25.1918 77.5114 25.5401 78.3885 25.7254C79.7099 26.0007 80.3677 26.4781 80.3677 27.4948C80.3677 28.5114 79.5131 29.3427 77.8713 29.3427C76.6343 29.3427 75.8358 28.6238 75.5547 27.8374V27.843Z" fill="white"/>
<path d="M82.2666 28.1908C82.2666 28.028 82.2891 27.8201 82.334 27.5786L82.9807 23.9613H81.918L82.0698 23.13H83.1212L83.4811 21.1416H84.4088L84.049 23.13H85.5559L85.4153 23.9613H83.9084L83.2618 27.5898C83.2393 27.7303 83.2281 27.8089 83.2281 27.9268C83.2281 28.2021 83.3349 28.5166 83.8522 28.5166C84.1896 28.5166 84.3976 28.4829 84.6281 28.4099L84.4876 29.2412C84.1727 29.3086 83.9759 29.3479 83.5992 29.3479C82.8907 29.3479 82.2666 28.9884 82.2666 28.1908Z" fill="white"/>
<path d="M90.5033 23.0796L90.3403 23.9952C90.1885 23.939 89.9917 23.8941 89.7386 23.8941C88.4454 23.8941 87.692 24.8096 87.4389 26.2756L86.916 29.2358H85.9883L87.0622 23.1358H87.8944L88.0012 23.866C88.3836 23.3942 88.9627 23.0234 89.913 23.0234C90.1435 23.0234 90.3403 23.0459 90.5033 23.0908V23.0796Z" fill="white"/>
<path d="M90.9214 26.5626C90.9214 24.4113 92.5183 23.0127 94.4244 23.0127C95.9987 23.0127 96.8421 24.1585 96.8421 25.4167C96.8421 25.6358 96.8197 25.8549 96.7241 26.4222H91.866C91.8548 26.5008 91.8435 26.5963 91.8435 26.7086C91.8435 27.6804 92.6082 28.5117 93.6372 28.5117C94.4918 28.5117 95.0597 28.2364 95.532 27.5624L96.2236 28.0342C95.667 28.7869 94.9754 29.343 93.4797 29.343C91.9841 29.343 90.9102 28.3038 90.9102 26.557L90.9214 26.5626ZM95.9537 25.5909C95.965 25.501 95.9762 25.383 95.9762 25.2651C95.9762 24.6528 95.4646 23.844 94.2613 23.844C93.1761 23.844 92.2934 24.5517 92.0066 25.5909H95.9537Z" fill="white"/>
<path d="M97.7539 27.5673C97.7539 26.1237 99.0471 25.6856 100.413 25.6856C101.673 25.6856 102.218 25.2587 102.218 24.6577C102.218 24.1466 101.628 23.8489 100.785 23.8489C100.127 23.8489 99.5026 24.1971 99.1315 24.6128L98.5748 23.9893C99.1202 23.3658 100.02 23.0176 100.925 23.0176C102.477 23.0176 103.298 23.8714 103.067 25.1464L102.544 28.0447C102.466 28.5165 102.466 28.8423 102.601 29.2355H101.701C101.622 29.0389 101.538 28.7974 101.538 28.5053C101.234 28.9884 100.683 29.3479 99.7331 29.3479C98.6704 29.3479 97.7539 28.7356 97.7539 27.5673ZM101.875 26.6517L101.993 25.9721C101.74 26.2866 101.184 26.4551 100.397 26.4551C99.3002 26.4551 98.6817 26.8034 98.6817 27.5673C98.6817 28.1683 99.1427 28.539 99.8737 28.539C101.33 28.539 101.712 27.601 101.875 26.6573V26.6517Z" fill="white"/>
<path d="M113.002 24.4675C113.002 24.6978 112.979 24.9505 112.934 25.2201L112.226 29.2306H111.298L111.99 25.2651C112.024 25.091 112.046 24.9168 112.046 24.7315C112.046 24.2709 111.827 23.8328 111.141 23.8328C109.971 23.8328 109.533 24.8157 109.268 26.3154L108.746 29.2306H107.818L108.526 25.2089C108.549 25.046 108.56 24.8944 108.56 24.7596C108.56 24.2372 108.223 23.8328 107.576 23.8328C106.558 23.8328 105.934 24.8045 105.653 26.3885L105.158 29.2306H104.23L105.304 23.1307H106.137L106.255 23.7991C106.626 23.3497 107.205 23.0127 107.852 23.0127C108.684 23.0127 109.252 23.462 109.415 24.0743C109.819 23.4396 110.539 23.0127 111.338 23.0127C112.496 23.0127 112.991 23.6249 112.991 24.4675H113.002Z" fill="white"/>
</g>
<defs>
<clipPath id="clip0_731_3207">
<rect width="113" height="30" fill="white"/>
</clipPath>
</defs>
</svg>
