<svg id="invert-cmyk" xmlns="http://www.w3.org/2000/svg" viewBox="0 0 221.37 43.17"><defs><style>.cls-1{fill:#fff;}.cls-2{fill:#002f70;}.cls-3{fill:#0085dd;}</style></defs><polygon id="fullLogo" class="cls-1" points="45.7 15.86 45.7 1.73 60.42 1.73 60.42 4.43 49 4.43 49 7.35 56.93 7.35 56.93 10.05 49 10.05 49 13.17 60.94 13.17 60.94 15.86 45.7 15.86"/><polygon id="fullLogo-2" data-name="fullLogo" class="cls-1" points="77.28 15.86 72.05 10.77 66.76 15.86 62.37 15.86 69.8 8.7 62.62 1.73 67 1.73 72.01 6.63 77.04 1.73 81.43 1.73 74.24 8.7 81.67 15.86 77.28 15.86"/><path id="fullLogo-3" data-name="fullLogo" class="cls-1" d="M101.52,17a9.16,9.16,0,0,0-2.62-1.87,7.69,7.69,0,0,0-3.31-.69,7.27,7.27,0,0,0-2.31.35,5.2,5.2,0,0,0-1.78,1,4.46,4.46,0,0,0-1.16,1.5,4.39,4.39,0,0,0,1.2,5.31,5.54,5.54,0,0,0,1.87,1,7.83,7.83,0,0,0,2.45.36A7.3,7.3,0,0,0,99,23.29a8,8,0,0,0,2.59-2l2.79,1.56a12.29,12.29,0,0,1-1.75,1.72,9.48,9.48,0,0,1-1.93,1.19,9.37,9.37,0,0,1-2.18.68,13,13,0,0,1-2.48.22,12.38,12.38,0,0,1-3.37-.44,11,11,0,0,1-3-1.38,6.29,6.29,0,0,1-2.19-2.38,7.11,7.11,0,0,1-.22-6.13A6.62,6.62,0,0,1,89,14a9.32,9.32,0,0,1,3.06-1.72,11.71,11.71,0,0,1,3.81-.6,11.18,11.18,0,0,1,4.88,1,10.7,10.7,0,0,1,3.78,3.16Z" transform="translate(-5.32 -10.42)"/><polygon id="fullLogo-4" data-name="fullLogo" class="cls-1" points="101.8 15.86 101.8 1.73 116.52 1.73 116.52 4.43 105.1 4.43 105.1 7.35 113.03 7.35 113.03 10.05 105.1 10.05 105.1 13.17 117.05 13.17 117.05 15.86 101.8 15.86"/><polygon id="fullLogo-5" data-name="fullLogo" class="cls-1" points="119.68 15.86 119.68 1.73 122.98 1.73 122.98 13.17 133.42 13.17 133.42 15.86 119.68 15.86"/><polygon id="fullLogo-6" data-name="fullLogo" class="cls-1" points="135.52 15.86 135.52 1.73 150.24 1.73 150.24 4.43 138.82 4.43 138.82 7.35 146.75 7.35 146.75 10.05 138.82 10.05 138.82 13.17 150.76 13.17 150.76 15.86 135.52 15.86"/><path id="fullLogo-7" data-name="fullLogo" class="cls-1" d="M171.59,26.28l-3.33-5H162v5h-3.3V12.15h11.12a6.36,6.36,0,0,1,2.11.33,4.52,4.52,0,0,1,1.61.95,4.08,4.08,0,0,1,1,1.46,4.61,4.61,0,0,1,.37,1.88A4,4,0,0,1,171.86,21l3.45,5.25Zm-.47-8.2a1.8,1.8,0,0,0,.57-1.4,1.71,1.71,0,0,0-.58-1.34,2.48,2.48,0,0,0-1.65-.5H162v3.75h7.46a2.41,2.41,0,0,0,1.65-.51" transform="translate(-5.32 -10.42)"/><path id="fullLogo-8" data-name="fullLogo" class="cls-1" d="M191.76,26.28l-1.55-3.05H181.5L180,26.28h-3.34l7.22-14.13h4.07l7.2,14.13Zm-5.92-11.54-3,5.8h6Z" transform="translate(-5.32 -10.42)"/><polygon id="fullLogo-9" data-name="fullLogo" class="cls-1" points="197.56 4.43 197.56 15.86 194.26 15.86 194.26 4.43 187.79 4.43 187.79 1.73 204.03 1.73 204.03 4.43 197.56 4.43"/><polygon id="fullLogo-10" data-name="fullLogo" class="cls-1" points="206.12 15.86 206.12 1.73 220.84 1.73 220.84 4.43 209.42 4.43 209.42 7.35 217.35 7.35 217.35 10.05 209.42 10.05 209.42 13.17 221.37 13.17 221.37 15.86 206.12 15.86"/><polygon id="fullLogo-11" data-name="fullLogo" class="cls-1" points="45.7 36.71 45.7 22.58 60.42 22.58 60.42 25.27 49 25.27 49 28.2 56.93 28.2 56.93 30.89 49 30.89 49 34.01 60.94 34.01 60.94 36.71 45.7 36.71"/><polygon id="fullLogo-12" data-name="fullLogo" class="cls-1" points="75.89 36.71 66.69 26.62 66.63 26.62 66.63 36.71 63.33 36.71 63.33 22.58 67.17 22.58 76.38 32.69 76.46 32.69 76.46 22.58 79.76 22.58 79.76 36.71 75.89 36.71"/><polygon id="fullLogo-13" data-name="fullLogo" class="cls-1" points="83.04 36.71 83.04 22.58 97.76 22.58 97.76 25.27 86.34 25.27 86.34 28.2 94.27 28.2 94.27 30.89 86.34 30.89 86.34 34.01 98.28 34.01 98.28 36.71 83.04 36.71"/><path id="fullLogo-14" data-name="fullLogo" class="cls-1" d="M118.87,47.12l-3.34-5h-6.24v5H106V33h11.12a6.4,6.4,0,0,1,2.11.33,4.67,4.67,0,0,1,1.61,1,4.25,4.25,0,0,1,1,1.47,4.74,4.74,0,0,1,.37,1.88,4,4,0,0,1-3.1,4.25l3.45,5.25Zm-.48-8.2a1.79,1.79,0,0,0,.57-1.4,1.66,1.66,0,0,0-.58-1.33,2.43,2.43,0,0,0-1.65-.5h-7.44v3.74h7.46a2.39,2.39,0,0,0,1.64-.51" transform="translate(-5.32 -10.42)"/><path id="fullLogo-15" data-name="fullLogo" class="cls-1" d="M140.39,45.21a9.48,9.48,0,0,1-3.12,1.71,12.37,12.37,0,0,1-4,.61,11.56,11.56,0,0,1-3.83-.61,9.39,9.39,0,0,1-3-1.73A6.49,6.49,0,0,1,124.05,40a6.6,6.6,0,0,1,.6-2.82,6.71,6.71,0,0,1,1.77-2.3,9.34,9.34,0,0,1,3.06-1.73,11.26,11.26,0,0,1,3.8-.63,11.94,11.94,0,0,1,4.67.85,7.9,7.9,0,0,1,3.24,2.51l-3.43,1.25a5.6,5.6,0,0,0-2-1.39,6.54,6.54,0,0,0-2.52-.46,7.75,7.75,0,0,0-2.43.36,5.89,5.89,0,0,0-1.88,1,4.46,4.46,0,0,0-1.22,1.49A4.12,4.12,0,0,0,127.3,40a4.17,4.17,0,0,0,2,3.59,6.44,6.44,0,0,0,1.79.84,7.41,7.41,0,0,0,2.2.31,8.86,8.86,0,0,0,2-.21,7.2,7.2,0,0,0,1.69-.62,5.62,5.62,0,0,0,1.33-1,4.66,4.66,0,0,0,.91-1.19h-6.58V39.08h10.23v.82a6.66,6.66,0,0,1-2.43,5.31" transform="translate(-5.32 -10.42)"/><polygon id="fullLogo-16" data-name="fullLogo" class="cls-1" points="147.99 31.2 147.99 36.71 144.69 36.71 144.69 31.2 136.63 22.58 140.81 22.58 146.34 28.47 151.87 22.58 156.05 22.58 147.99 31.2"/><path class="cls-1" d="M41.67,26.08V10.42H5.33V27c0,.59,0,1.31,0,2.11,0,1.86,0,4.17,0,5.91,0,.44,0,.89,0,1.33,0,.78.07,1.8.11,2.08.19,1.58,1,4,3.75,6.82,3,3,7.61,5.75,13.7,8.07l.55.22h.06l.62-.21c6.28-2.39,11-5.18,13.91-8.27a11.47,11.47,0,0,0,3.51-6.88c0-.15.1-1.06.1-1.42,0-1.06,0-2.58,0-4.07C41.68,29.5,41.67,26.15,41.67,26.08ZM41,36.64C41,37,41,37.86,41,38a11.12,11.12,0,0,1-3.42,6.59c-2.87,3-7.37,5.68-13.39,8l-.57.2-.5-.2c-5.9-2.25-10.36-4.88-13.25-7.8-2.63-2.67-3.41-5-3.59-6.53,0-.26-.09-1.26-.11-2,0-.43,0-.86,0-1.29,0-1.68,0-3.93,0-5.73v-18H41V26.25C41,26.32,41.15,33.48,41,36.64Z" transform="translate(-5.32 -10.42)"/><path class="cls-1" d="M38.79,26.24V13.43H8.22s0,6.17,0,12.27c0,4.69,0,9.32,0,11.07a7.59,7.59,0,0,0,.11,1.09l.06.25c.69,3.07,3.86,7.86,14.65,12l.46.16.48-.16C36.51,45.3,38.76,39.62,38.79,36.77,38.81,35.09,38.8,30.74,38.79,26.24Zm-28.24,10c0-4.35,0-16.24,0-20.44h23l-1.14,1.32c-3.27,3.94-5.9,7.7-8.21,10.92l-1.3-4H19.73l2.17,7.1c-2.67,3.74-5.19,6.31-7.4,7.51a7.63,7.63,0,0,1-2.95.77A4.17,4.17,0,0,1,10.55,36.23Zm25.9.06c-.06,5.42-7.89,9.61-13,11.44-.42-.22-6.83-2.53-10.25-6l-.17-.17,0-.06c3.42-.5,6.58-2.59,9.92-7.08l1.12,3.13h3.11l-2-6.26A156.34,156.34,0,0,1,36.45,16.93C36.48,21.39,36.5,32.29,36.45,36.29Z" transform="translate(-5.32 -10.42)"/><path class="cls-2" d="M41.06,11.12H5.94V27.17c0,1.9,0,5.39,0,7.78,0,.49,0,.92,0,1.3,0,.73.07,1.74.11,2C6.5,41.66,9.67,47.58,23,52.65l.53.21.61-.21C37.72,47.46,40.67,41.39,41,38c0-.18.08-1,.09-1.38.1-3.19,0-10.39,0-10.39ZM24,50.11l-.48.16L23,50.11c-10.79-4.14-14-8.93-14.65-12l-.06-.25a7.59,7.59,0,0,1-.11-1.09c0-1.75,0-6.38,0-11.07,0-6.1,0-12.27,0-12.27H38.79V26.24c0,4.5,0,8.85,0,10.53C38.76,39.62,36.51,45.3,24,50.11Z" transform="translate(-5.32 -10.42)"/><path class="cls-3" d="M21.9,31.09,19.73,24h3.12l1.3,4c2.31-3.22,4.94-7,8.21-10.92l1.14-1.32H10.55c0,4.2,0,16.09,0,20.44a4.17,4.17,0,0,0,1,3.14,7.63,7.63,0,0,0,2.95-.77C16.71,37.4,19.23,34.83,21.9,31.09Z" transform="translate(-5.32 -10.42)"/><path class="cls-2" d="M25.18,31.24l2,6.26H24.08L23,34.37C19.62,38.86,16.46,41,13,41.45l0,.06.17.17c3.42,3.52,9.83,5.83,10.25,6,5.06-1.83,12.89-6,13-11.44,0-.38,0-.83,0-1.33,0-4.7,0-14,0-18A156.34,156.34,0,0,0,25.18,31.24Z" transform="translate(-5.32 -10.42)"/></svg>