<?xml version="1.0" encoding="UTF-8"?>
<svg xmlns="http://www.w3.org/2000/svg" viewBox="0 0 364.11 82.63">
  <defs>
    <style>.cls-1{fill:#fff;}</style>
  </defs>
  <g id="Layer_2" data-name="Layer 2">
    <g id="Layer_1-2" data-name="Layer 1">
      <path class="cls-1" d="M105.58,63.12H109V82.3h-3.37Z"></path>
      <path class="cls-1" d="M114.08,63.12h3.12l10.28,13.26V63.12h3.32V82.3H128L117.39,68.65V82.3h-3.31Z"></path>
      <path class="cls-1" d="M135.73,63.12H150v3.07H139.1v5.23h9.67v3.07H139.1V82.3h-3.37Z"></path>
      <path class="cls-1" d="M153.7,63.12h8.56A7.73,7.73,0,0,1,167.79,65a5.8,5.8,0,0,1,1.59,4.14v.06A5.76,5.76,0,0,1,164.8,75L170,82.3h-4l-4.71-6.69h-4.22V82.3H153.7ZM162,72.63c2.41,0,3.94-1.26,3.94-3.21v0c0-2.06-1.48-3.18-4-3.18h-4.9v6.44Z"></path>
      <path class="cls-1" d="M180.32,63h3.12l8.44,19.32h-3.56l-1.95-4.63H177.3l-2,4.63h-3.46Zm4.82,11.7L181.82,67l-3.29,7.67Z"></path>
      <path class="cls-1" d="M193.58,79.51l2-2.41a8.81,8.81,0,0,0,6,2.49c2.09,0,3.4-1,3.4-2.41v-.06c0-1.37-.77-2.11-4.33-2.93-4.08-1-6.39-2.19-6.39-5.73v0c0-3.29,2.75-5.57,6.56-5.57a10.66,10.66,0,0,1,7,2.41l-1.81,2.55a8.76,8.76,0,0,0-5.21-2c-2,0-3.12,1-3.12,2.27v.06c0,1.48.87,2.14,4.55,3,4,1,6.16,2.43,6.16,5.61v.06c0,3.59-2.82,5.73-6.85,5.73A11.84,11.84,0,0,1,193.58,79.51Z"></path>
      <path class="cls-1" d="M216.71,66.24h-6.08V63.12H226.2v3.12h-6.09V82.3h-3.4Z"></path>
      <path class="cls-1" d="M229.76,63.12h8.55A7.73,7.73,0,0,1,243.84,65a5.8,5.8,0,0,1,1.59,4.14v.06A5.76,5.76,0,0,1,240.86,75L246,82.3h-4l-4.71-6.69h-4.22V82.3h-3.37Zm8.3,9.51c2.41,0,3.95-1.26,3.95-3.21v0c0-2.06-1.48-3.18-4-3.18h-4.9v6.44Z"></path>
      <path class="cls-1" d="M249.27,74.16v-11h3.37V74c0,3.56,1.84,5.48,4.85,5.48s4.82-1.81,4.82-5.35v-11h3.38V74c0,5.73-3.24,8.6-8.25,8.6S249.27,79.73,249.27,74.16Z"></path>
      <path class="cls-1" d="M269.46,72.76v-.05a9.71,9.71,0,0,1,9.9-9.92,10,10,0,0,1,7.51,3l-2.17,2.49a7.61,7.61,0,0,0-5.37-2.39c-3.67,0-6.33,3-6.33,6.78v0c0,3.75,2.66,6.82,6.33,6.82A7.52,7.52,0,0,0,284.84,77L287,79.23a9.91,9.91,0,0,1-7.79,3.4A9.65,9.65,0,0,1,269.46,72.76Z"></path>
      <path class="cls-1" d="M295.25,66.24h-6.08V63.12h15.57v3.12h-6.09V82.3h-3.4Z"></path>
      <path class="cls-1" d="M308,74.16v-11h3.37V74c0,3.56,1.83,5.48,4.85,5.48S321,77.7,321,74.16v-11h3.37V74c0,5.73-3.23,8.6-8.25,8.6S308,79.73,308,74.16Z"></path>
      <path class="cls-1" d="M329,63.12h8.55A7.74,7.74,0,0,1,343.13,65a5.84,5.84,0,0,1,1.59,4.14v.06A5.76,5.76,0,0,1,340.14,75l5.18,7.26h-4l-4.72-6.69h-4.22V82.3H329Zm8.31,9.51c2.41,0,3.94-1.26,3.94-3.21v0c0-2.06-1.48-3.18-4-3.18h-4.91v6.44Z"></path>
      <path class="cls-1" d="M348.86,63.12h14.22v3H352.23v5h9.62v3h-9.62v5.16h11v3H348.86Z"></path>
      <path id="Wordmark" class="cls-1" d="M239.84,43.61h9v-13h7.56c10.49,0,17.26-5.87,17.26-15v-.12c0-8.95-6.41-14.73-16.33-14.73H239.84Zm16.84-20.95h-7.87V8.79h7.68c5,0,8.05,2.57,8.05,6.87v.13C264.54,19.9,261.38,22.66,256.68,22.66Zm50.68,21h10.45L307.3,28.24l.35-.13c5.88-2.18,9.12-6.87,9.12-13.19v-.13a13.37,13.37,0,0,0-3.64-9.72C310.31,2.25,306,.75,300.68.75H281.12V43.61h9V29.7h8Zm-7.3-21.75h-10V8.79h9.8c5,0,7.8,2.37,7.8,6.5v.13C307.68,19.39,304.76,21.86,300.06,21.86Zm54.71,21.75h9.34L345.75.44h-8.43L319,43.61h9.1l4-9.75h18.76ZM347.62,26H335.2l6.21-15.16ZM102.48,38a27.59,27.59,0,0,0,18.23,6.35c9.65,0,15.65-5.1,15.65-13.3v-.13c0-7.67-5.19-10.57-13.56-12.75-7.54-1.93-9.59-2.89-9.59-6v-.13c0-2.09,1.82-4.21,5.88-4.21a19.8,19.8,0,0,1,11.22,3.7L135,5a24.85,24.85,0,0,0-15.73-5c-8.78,0-14.91,5.32-14.91,12.93v.13c0,8.7,5.87,10.87,14.17,13,7,1.81,9,3.06,9,5.81V32c0,2.75-2.58,4.52-6.57,4.52a20.29,20.29,0,0,1-13.13-4.82Zm42.19,5.6h32.48V35.7H153.57V26h20.48V18.07H153.57V8.67h23.27V.75H144.67Zm75.59,0h8.91V.75h-9.85L207.74,19.39,196.16.75h-9.84V43.61h8.77V14.74l12.53,19,12.64-19.2Z"></path>
      <path id="Symbol" class="cls-1" d="M43.9,11.37c3.14,0,5.7,2.24,5.7,5s-2.56,5-5.7,5-5.7-2.24-5.7-5S40.75,11.37,43.9,11.37ZM77.54,21.54a11.78,11.78,0,0,0,1-2.67c0-.08.08-.38,0-.49a.28.28,0,0,0-.38,0C54.93,35.89,31.57,13.55,33.9,28c.3,1.88,2.13,5.24,4.37,8.5a.32.32,0,0,1,0,.38c-.08.11-.22.14-.33.2-12.1,6.41-20.11,16.07-25,23.82A34.48,34.48,0,0,1,66.52,17.8l.08.08.11-.05a33.89,33.89,0,0,0,5.65-3.46l.13-.1-.11-.13A41.28,41.28,0,0,0,9.28,67.36c-1.53,3-2.36,5.15-2.62,5.8-1,2.57-.11,3.35.26,3.5.75.3,1.83,0,2.93-1.45,7.71-9.82,28.51-33.94,38.82-27,5.84,3.94,5.66,8.37,1.26,12.44a43.76,43.76,0,0,1-8.68,5.57c-4,1.89-6.17,2.27-5.84,3.67s2,1.31,8.72-.45c7.75-2,24.6-7.8,17.57-21.86C58.27,40.74,46.61,35.12,46.61,35s.36-.12.36-.12c13.65-1,21.38-4.36,25.77-7.73A34.48,34.48,0,0,1,22,69.86l-.13-.09-.09.14c-1.15,1.84-2.28,3.72-3.35,5.58l-.07.12.12.08A41.25,41.25,0,0,0,77.54,21.54Z"></path>
    </g>
  </g>
</svg>
