<?xml version='1.0' encoding='utf-8'?>
<svg xmlns="http://www.w3.org/2000/svg" viewBox="0 0 1001 178"> <path class="site-logo-hoeg" d="M892.351 168.68C891.101 171.93 887.981 174.08 884.501 174.08H846.681C843.201 174.08 840.081 171.93 838.831 168.68L789.071 39.04H813.091C816.571 39.04 819.701 41.19 820.951 44.44L865.601 160.76L910.251 44.44C911.501 41.19 914.621 39.04 918.111 39.04H942.131L892.371 168.68H892.351ZM968.121 44.44L918.361 174.08H942.421C945.901 174.08 949.031 171.93 950.281 168.68L1000.04 39.04H975.981C972.501 39.04 969.371 41.19 968.121 44.44ZM767.101 44.47C765.851 41.22 762.731 39.07 759.251 39.07L730.251 39.04C726.771 39.04 723.661 41.18 722.411 44.43L716.191 60.63C714.941 63.88 711.831 66.02 708.351 66.02H702.391V93.05H705.541C709.021 93.05 712.131 90.91 713.381 87.66L719.601 71.45C720.851 68.2 723.961 66.06 727.441 66.06H775.391L767.101 44.46V44.47ZM800.711 147.08L712.621 147.05C709.341 147.05 707.091 143.76 708.261 140.71L714.111 125.47C715.361 122.22 718.471 120.08 721.951 120.08H790.261L781.971 98.48C780.721 95.23 777.601 93.08 774.121 93.08L724.771 93.05C721.291 93.05 718.181 95.19 716.931 98.44L710.711 114.64C709.461 117.89 706.351 120.03 702.871 120.03H702.411V147.05V165.66C702.411 170.31 706.181 174.08 710.831 174.08H816.861L808.571 152.48C807.321 149.23 804.201 147.08 800.721 147.08H800.711Z" style="fill: #ab5af2;"/> <path class="site-logo-evi" d="M108.779 39.04V174.08H80.7491V113.8H27.9791V174.08H0.0390625V39.04H27.9791V90.53H80.7491V39.04H108.779ZM192.369 177.83C211.669 177.83 226.419 172.58 236.619 162.07C250.239 149.18 257.049 130.62 257.049 106.37C257.049 81.63 250.239 63.07 236.619 50.67C226.419 40.17 211.669 34.91 192.369 34.91C173.069 34.91 158.319 40.16 148.119 50.67C134.439 63.07 127.599 81.63 127.599 106.37C127.599 130.62 134.439 149.19 148.119 162.07C158.319 172.58 173.069 177.83 192.369 177.83ZM219.029 141.55C212.429 149.8 203.549 153.92 192.369 153.92C181.189 153.92 172.279 149.8 165.619 141.55C158.959 133.3 155.629 121.58 155.629 106.37C155.629 91.16 158.959 79.44 165.619 71.19C172.279 62.94 181.189 58.82 192.369 58.82C203.549 58.82 212.419 62.96 218.979 71.23C225.549 79.51 228.829 91.22 228.829 106.36C228.829 121.57 225.559 133.3 219.029 141.54M162.049 22.36H185.959V0.650024H162.049V22.36ZM198.689 22.36H222.599V0.650024H198.689V22.36ZM369.039 91.62H303.449V62.95H374.909V39.04H275.869V174.08H378.199V149.8H303.439V115.08H369.029V91.63L369.039 91.62ZM480.199 170.78C484.539 168.15 489.419 163.63 494.859 157.22L497.699 174.08H516.389V101.61H460.139V124.15H491.379C489.969 133.01 486.249 140.17 480.199 145.63C474.149 151.1 466.399 153.83 456.929 153.83C447.279 153.83 438.669 150.38 431.089 143.48C423.509 136.58 419.729 124.82 419.729 108.21C419.729 91.72 423.219 79.37 430.219 71.15C437.209 62.94 446.149 58.83 457.019 58.83C462.699 58.83 467.859 59.84 472.499 61.85C480.799 65.51 486.029 71.96 488.169 81.18H515.929C514.399 68.17 508.429 57.31 498.019 48.61C487.609 39.91 473.819 35.56 456.659 35.56C436.869 35.56 420.959 42.16 408.929 55.35C396.899 68.54 390.879 86.07 390.879 107.94C390.879 129.56 396.839 146.6 408.739 159.06C420.159 171.46 434.819 177.66 452.709 177.66C463.579 177.66 472.739 175.37 480.199 170.79M650.989 174.07V39.03H622.959V90.52H570.189V39.03H542.249V174.07H570.189V113.79H622.959V174.07H650.989Z" style="fill: #fff;"/> </svg> 