<?xml version="1.0" encoding="utf-8"?>
<!-- Generator: Adobe Illustrator 26.5.0, SVG Export Plug-In . SVG Version: 6.00 Build 0)  -->
<svg version="1.1" id="Layer_1" xmlns="http://www.w3.org/2000/svg" xmlns:xlink="http://www.w3.org/1999/xlink" x="0px" y="0px"
	 viewBox="0 0 189.6 65.1" enable-background="new 0 0 189.6 65.1" xml:space="preserve">
<path fill="#AFCA0B" d="M43.6,48.9c0-0.2,0.2-0.4,0.5-0.4h10.1c0.3,0,0.5,0.2,0.5,0.4v2.6c0,0.2-0.2,0.4-0.5,0.4h-6.8v2.9H53
	c0.2,0,0.5,0.2,0.5,0.4v2.6c0,0.3-0.2,0.4-0.5,0.4h-5.6v3.2h6.8c0.3,0,0.5,0.2,0.5,0.4v2.6c0,0.2-0.2,0.4-0.5,0.4H44.1
	c-0.3,0-0.5-0.2-0.5-0.4V48.9z"/>
<path fill="#AFCA0B" d="M59.7,48.6c0-0.2,0.2-0.4,0.5-0.4h0.6l9.8,9h0v-8.3c0-0.2,0.2-0.4,0.5-0.4H74c0.2,0,0.5,0.2,0.5,0.4v15.8
	c0,0.2-0.2,0.4-0.5,0.4h-0.4c-0.1,0-0.3-0.1-0.3-0.1l-9.7-9.3h0v8.8c0,0.2-0.2,0.4-0.5,0.4h-2.9c-0.2,0-0.5-0.2-0.5-0.4L59.7,48.6z"
	/>
<path fill="#AFCA0B" d="M80.3,48.9c0-0.2,0.2-0.4,0.5-0.4h10.1c0.3,0,0.5,0.2,0.5,0.4v2.6c0,0.2-0.2,0.4-0.5,0.4h-6.8v2.9h5.6
	c0.2,0,0.5,0.2,0.5,0.4v2.6c0,0.3-0.2,0.4-0.5,0.4h-5.6v3.2h6.8c0.3,0,0.5,0.2,0.5,0.4v2.6c0,0.2-0.2,0.4-0.5,0.4H80.8
	c-0.3,0-0.5-0.2-0.5-0.4V48.9z"/>
<path fill="#AFCA0B" d="M103.9,55.4c1,0,1.9-0.9,1.9-1.9c0-1-0.9-1.8-1.9-1.8h-3.6v3.7H103.9z M96.4,48.9c0-0.2,0.2-0.4,0.5-0.4h7.3
	c2.9,0,5.3,2.3,5.3,5.1c0,2.2-1.5,3.9-3.6,4.7l3.4,6c0.2,0.3,0,0.7-0.4,0.7h-3.3c-0.2,0-0.3-0.1-0.4-0.2l-3.3-6.2h-1.7v6
	c0,0.2-0.2,0.4-0.5,0.4h-2.9c-0.3,0-0.5-0.2-0.5-0.4V48.9z"/>
<path fill="#AFCA0B" d="M122.1,48.2c2.1,0,4.3,0.8,6,2.2c0.2,0.2,0.2,0.4,0,0.6l-1.9,2c-0.2,0.2-0.5,0.2-0.7,0
	c-0.9-0.8-2-1.1-3.2-1.1c-2.7,0-4.8,2.2-4.8,4.7c0,2.6,2.2,4.7,4.9,4.7c0.7,0,1.4-0.1,2.2-0.4l0-4.1c0-0.3,0.2-0.4,0.5-0.4h2.9
	c0.2,0,0.4,0.2,0.4,0.4l0,6.3c0,0.1-0.1,0.3-0.2,0.4c0,0-2.5,1.5-6.1,1.5c-4.9,0-8.8-3.7-8.8-8.4C113.3,52,117.2,48.2,122.1,48.2"/>
<path fill="#AFCA0B" d="M136.6,56.9l-5.4-7.9c-0.2-0.3,0-0.7,0.4-0.7h3.2c0.2,0,0.3,0.1,0.4,0.2l3.4,4.8l3.4-4.8
	c0.1-0.1,0.2-0.2,0.4-0.2h3.2c0.4,0,0.6,0.4,0.4,0.7l-5.5,7.8v7.5c0,0.2-0.2,0.4-0.5,0.4h-2.9c-0.3,0-0.5-0.2-0.5-0.4V56.9z"/>
<path fill="#2A2A64" d="M0,1.8c0-0.5,0.5-1,1-1h4.9c0.5,0,1,0.5,1,1v34.9c0,0.5-0.5,1-1,1H1c-0.5,0-1-0.5-1-1V1.8z"/>
<path fill="#2A2A64" d="M22.4,7.1h-8.1c-0.6,0-1-0.5-1-1V1.8c0-0.5,0.4-1,1-1h23c0.6,0,1,0.5,1,1v4.3c0,0.5-0.4,1-1,1h-8.1v29.5
	c0,0.5-0.5,1-1,1h-4.9c-0.5,0-1-0.5-1-1V7.1z"/>
<path fill="#2A2A64" d="M45.4,1.8c0-0.5,0.5-1,1-1h4.9c0.6,0,1,0.5,1,1v14h17.2v-14c0-0.5,0.4-1,1-1h4.8c0.5,0,1,0.5,1,1v34.9
	c0,0.5-0.5,1-1,1h-4.8c-0.6,0-1-0.5-1-1V22.1H52.3v14.5c0,0.5-0.4,1-1,1h-4.9c-0.5,0-1-0.5-1-1V1.8z"/>
<path fill="#2A2A64" d="M138.1,0.3c5.3,0,9.2,1.7,12.7,4.9c0.5,0.4,0.5,1.1,0.1,1.5l-3.2,3.3c-0.4,0.4-0.9,0.4-1.3,0
	c-2.2-1.9-5.2-3.1-8.1-3.1c-6.7,0-11.7,5.6-11.7,12.3c0,6.6,5.1,12.2,11.8,12.2c3.2,0,5.8-1.2,8.1-3c0.4-0.4,1-0.3,1.3,0l3.3,3.4
	c0.4,0.4,0.3,1.1-0.1,1.4c-3.6,3.5-8.1,5.1-12.8,5.1c-10.5,0-19-8.4-19-18.9S127.6,0.3,138.1,0.3"/>
<path fill="#2A2A64" d="M189.5,36L173.3,0.6c-0.2-0.3-0.4-0.6-0.9-0.6h-0.5c-0.5,0-0.7,0.3-0.9,0.6L154.6,36
	c-0.3,0.7,0.1,1.4,0.9,1.4h4h0.6c0.5,0,1-0.3,1.3-0.8l10.4-23.4h0.4l10.6,23.3c0.2,0.5,0.7,0.8,1.3,0.8h0.5h4.1
	C189.4,37.4,189.8,36.7,189.5,36"/>
<path fill="#2A2A64" d="M99.4,26.8c0,0.2-0.1,0.4-0.3,0.5l-8.8,3.3c-0.4,0.2-0.8-0.3-0.6-0.7l8.8-19.5c0.2-0.5,1-0.3,1,0.2V26.8z
	 M116.9,36L100.6,0.6c-0.2-0.3-0.4-0.6-0.9-0.6h-0.5c-0.5,0-0.7,0.3-0.9,0.6L81.9,36c-0.3,0.7,0.1,1.4,0.9,1.4l16.6-6l16.6,6
	C116.7,37.4,117.2,36.7,116.9,36"/>
<path fill="#AFCA0B" d="M43.6,48.9c0-0.2,0.2-0.4,0.5-0.4h10.1c0.3,0,0.5,0.2,0.5,0.4v2.6c0,0.2-0.2,0.4-0.5,0.4h-6.8v2.9H53
	c0.2,0,0.5,0.2,0.5,0.4v2.6c0,0.3-0.2,0.4-0.5,0.4h-5.6v3.2h6.8c0.3,0,0.5,0.2,0.5,0.4v2.6c0,0.2-0.2,0.4-0.5,0.4H44.1
	c-0.3,0-0.5-0.2-0.5-0.4V48.9z"/>
<path fill="#AFCA0B" d="M59.7,48.6c0-0.2,0.2-0.4,0.5-0.4h0.6l9.8,9h0v-8.3c0-0.2,0.2-0.4,0.5-0.4H74c0.2,0,0.5,0.2,0.5,0.4v15.8
	c0,0.2-0.2,0.4-0.5,0.4h-0.4c-0.1,0-0.3-0.1-0.3-0.1l-9.7-9.3h0v8.8c0,0.2-0.2,0.4-0.5,0.4h-2.9c-0.2,0-0.5-0.2-0.5-0.4L59.7,48.6z"
	/>
<path fill="#AFCA0B" d="M80.3,48.9c0-0.2,0.2-0.4,0.5-0.4h10.1c0.3,0,0.5,0.2,0.5,0.4v2.6c0,0.2-0.2,0.4-0.5,0.4h-6.8v2.9h5.6
	c0.2,0,0.5,0.2,0.5,0.4v2.6c0,0.3-0.2,0.4-0.5,0.4h-5.6v3.2h6.8c0.3,0,0.5,0.2,0.5,0.4v2.6c0,0.2-0.2,0.4-0.5,0.4H80.8
	c-0.3,0-0.5-0.2-0.5-0.4V48.9z"/>
<path fill="#AFCA0B" d="M103.9,55.4c1,0,1.9-0.9,1.9-1.9c0-1-0.9-1.8-1.9-1.8h-3.6v3.7H103.9z M96.4,48.9c0-0.2,0.2-0.4,0.5-0.4h7.3
	c2.9,0,5.3,2.3,5.3,5.1c0,2.2-1.5,3.9-3.6,4.7l3.4,6c0.2,0.3,0,0.7-0.4,0.7h-3.3c-0.2,0-0.3-0.1-0.4-0.2l-3.3-6.2h-1.7v6
	c0,0.2-0.2,0.4-0.5,0.4h-2.9c-0.3,0-0.5-0.2-0.5-0.4V48.9z"/>
<path fill="#AFCA0B" d="M122.1,48.2c2.1,0,4.3,0.8,6,2.2c0.2,0.2,0.2,0.4,0,0.6l-1.9,2c-0.2,0.2-0.5,0.2-0.7,0
	c-0.9-0.8-2-1.1-3.2-1.1c-2.7,0-4.8,2.2-4.8,4.7c0,2.6,2.2,4.7,4.9,4.7c0.7,0,1.4-0.1,2.2-0.4l0-4.1c0-0.3,0.2-0.4,0.5-0.4h2.9
	c0.2,0,0.4,0.2,0.4,0.4l0,6.3c0,0.1-0.1,0.3-0.2,0.4c0,0-2.5,1.5-6.1,1.5c-4.9,0-8.8-3.7-8.8-8.4C113.3,52,117.2,48.2,122.1,48.2"/>
<path fill="#AFCA0B" d="M136.6,56.9l-5.4-7.9c-0.2-0.3,0-0.7,0.4-0.7h3.2c0.2,0,0.3,0.1,0.4,0.2l3.4,4.8l3.4-4.8
	c0.1-0.1,0.2-0.2,0.4-0.2h3.2c0.4,0,0.6,0.4,0.4,0.7l-5.5,7.8v7.5c0,0.2-0.2,0.4-0.5,0.4h-2.9c-0.3,0-0.5-0.2-0.5-0.4V56.9z"/>
<path fill="#2A2A64" d="M0,1.8c0-0.5,0.5-1,1-1h4.9c0.5,0,1,0.5,1,1v34.9c0,0.5-0.5,1-1,1H1c-0.5,0-1-0.5-1-1V1.8z"/>
<path fill="#2A2A64" d="M22.4,7.1h-8.1c-0.6,0-1-0.5-1-1V1.8c0-0.5,0.4-1,1-1h23c0.6,0,1,0.5,1,1v4.3c0,0.5-0.4,1-1,1h-8.1v29.5
	c0,0.5-0.5,1-1,1h-4.9c-0.5,0-1-0.5-1-1V7.1z"/>
<path fill="#2A2A64" d="M45.4,1.8c0-0.5,0.5-1,1-1h4.9c0.6,0,1,0.5,1,1v14h17.2v-14c0-0.5,0.4-1,1-1h4.8c0.5,0,1,0.5,1,1v34.9
	c0,0.5-0.5,1-1,1h-4.8c-0.6,0-1-0.5-1-1V22.1H52.3v14.5c0,0.5-0.4,1-1,1h-4.9c-0.5,0-1-0.5-1-1V1.8z"/>
<path fill="#2A2A64" d="M138.1,0.3c5.3,0,9.2,1.7,12.7,4.9c0.5,0.4,0.5,1.1,0.1,1.5l-3.2,3.3c-0.4,0.4-0.9,0.4-1.3,0
	c-2.2-1.9-5.2-3.1-8.1-3.1c-6.7,0-11.7,5.6-11.7,12.3c0,6.6,5.1,12.2,11.8,12.2c3.2,0,5.8-1.2,8.1-3c0.4-0.4,1-0.3,1.3,0l3.3,3.4
	c0.4,0.4,0.3,1.1-0.1,1.4c-3.6,3.5-8.1,5.1-12.8,5.1c-10.5,0-19-8.4-19-18.9S127.6,0.3,138.1,0.3"/>
<path fill="#2A2A64" d="M99.4,26.8c0,0.2-0.1,0.4-0.3,0.5l-8.8,3.3c-0.4,0.2-0.8-0.3-0.6-0.7l8.8-19.5c0.2-0.5,1-0.3,1,0.2V26.8z
	 M116.9,36L100.6,0.6c-0.2-0.3-0.4-0.6-0.9-0.6h-0.5c-0.5,0-0.7,0.3-0.9,0.6L81.9,36c-0.3,0.7,0.1,1.4,0.9,1.4l16.6-6l16.6,6
	C116.7,37.4,117.2,36.7,116.9,36"/>
<path fill="#2A2A64" d="M177.4,24.8l-5.3-11.6h-0.2l-5.2,11.6H177.4z M154.6,36L171,0.6c0.2-0.3,0.4-0.6,0.9-0.6h0.5
	c0.5,0,0.7,0.3,0.9,0.6L189.5,36c0.3,0.7-0.1,1.4-0.9,1.4h-4.6c-0.8,0-1.2-0.3-1.5-1.1l-2.6-5.7h-15.7l-2.6,5.7
	c-0.2,0.5-0.7,1.1-1.5,1.1h-4.6C154.7,37.4,154.3,36.7,154.6,36"/>
</svg>
