<svg width="117" height="24" viewBox="0 0 117 24" fill="none" xmlns="http://www.w3.org/2000/svg">
<path d="M80.7516 9.16016C76.8658 9.16016 73.6914 12.3321 73.6914 16.2205C73.6914 20.1089 76.8633 23.2808 80.7516 23.2808C84.6375 23.2808 87.772 20.1089 87.772 16.2205C87.772 12.3346 84.6375 9.16016 80.7516 9.16016ZM80.7516 20.0691C78.6097 20.0691 76.9031 18.3251 76.9031 16.2205C76.9031 14.1183 78.6097 12.4142 80.7516 12.4142C82.8538 12.4142 84.5579 14.1208 84.5579 16.2205C84.5579 18.3226 82.8513 20.0691 80.7516 20.0691Z" fill="#5F646A"/>
<path d="M54.8904 9C53.343 9 51.7559 9.31844 50.4871 9.83341C49.4547 9.23883 48.4646 9 47.0366 9C45.2529 9 43.4269 9.23883 41.4442 9.91301L41.0859 10.0324V23.0012H44.616V12.3709C45.33 12.1321 45.8848 12.0525 46.5988 12.0525C48.3452 12.0525 48.8601 12.6073 48.8601 14.4333V23.0012H52.43V14.197C52.43 13.4034 52.3902 12.8884 52.2708 12.4132C52.9848 12.1744 53.5396 12.055 54.1739 12.055C55.8407 12.055 56.592 12.8088 56.592 14.4358V23.0037H60.1221V14.1596C60.1221 12.4132 59.846 11.3833 59.0524 10.5101C58.1842 9.55726 56.7164 9 54.8904 9Z" fill="#5F646A"/>
<path d="M69.0422 20.2044C66.6913 20.2044 65.3405 18.7441 65.3405 16.1941C65.3405 13.5844 66.7038 12.0843 69.0771 12.0843C69.5697 12.0843 69.9851 12.1365 70.3807 12.2559C70.3807 12.2559 71.1096 12.4624 71.7489 12.965L73.244 10.4025C72.4306 9.72339 71.4703 9.42983 71.1469 9.34773C70.2314 9.07159 68.8855 9.0293 68.8855 9.0293C64.6414 9.0293 61.793 11.9723 61.793 16.3483C61.793 20.5577 64.4947 23.2743 68.6815 23.2743C68.6815 23.2743 71.4877 23.3987 73.3709 21.6523L71.6146 19.3959C70.6667 20.0004 70.005 20.2044 69.0422 20.2044Z" fill="#5F646A"/>
<path d="M23.0207 9.1211C17.983 9.1211 15.6445 11.3427 15.6445 16.062V23.0029H19.2542V16.3381V16.0197C19.2542 13.6389 20.6026 12.1711 22.7047 12.1711C23.5779 12.1711 24.2521 12.3303 24.7273 12.4497L25.5607 9.31763C24.1626 9.11861 23.0207 9.1211 23.0207 9.1211Z" fill="#5F646A"/>
<path d="M39.0296 15.6652V23.0017H34.1909C30.8598 23.0017 29.392 22.7629 27.6457 21.6135C26.1381 20.5811 25.3047 18.6381 25.3047 16.1006C25.3047 12.6102 27.6059 9.08008 32.6808 9.08008C36.8055 9.08008 39.0296 11.3813 39.0296 15.6652ZM35.497 16.0608C35.497 13.4038 34.4646 12.0953 32.4022 12.0953C30.3001 12.0953 28.9517 13.6427 28.9517 15.9812C28.9517 18.7973 30.3001 20.0263 33.3152 20.0263H35.497V16.0608Z" fill="#5F646A"/>
<path d="M13.6851 15.6652V23.0017H8.88622C5.55513 23.0017 4.08736 22.7629 2.34097 21.6135C0.833394 20.5811 0 18.6381 0 16.1006C0 12.6102 2.30116 9.08008 7.37616 9.08008C11.5033 9.08008 13.6851 11.3813 13.6851 15.6652ZM10.038 16.0608C10.038 13.364 9.08524 12.0953 6.98309 12.0953C4.88095 12.0953 3.53259 13.6427 3.53259 15.9812C3.53259 18.7973 4.88095 20.0263 7.89609 20.0263H10.038V16.0608Z" fill="#5F646A"/>
<path d="M117 0H94V23H117V0Z" fill="url(#paint0_radial_2210_60375)"/>
<path d="M106.685 9.65249C106.958 9.78996 107.138 10.0649 107.105 10.2923C107.063 10.5198 106.818 10.5948 106.535 10.4598C106.255 10.3198 106.073 10.0349 106.116 9.80745C106.165 9.5875 106.408 9.52251 106.685 9.65249Z" fill="white"/>
<path d="M107.499 5.22528C107.721 5.34276 107.876 5.54021 107.859 5.68268C107.834 5.82265 107.641 5.84265 107.411 5.72767C107.184 5.6077 107.027 5.40524 107.049 5.26277C107.082 5.1228 107.271 5.10781 107.499 5.22528Z" fill="white"/>
<path d="M107.567 4.78453C107.752 4.8845 107.885 5.04697 107.87 5.16194C107.85 5.27442 107.69 5.28692 107.5 5.18944C107.31 5.08946 107.177 4.922 107.197 4.80952C107.217 4.69704 107.38 4.68955 107.567 4.78453Z" fill="white"/>
<path d="M107.644 4.34518C107.817 4.43766 107.939 4.58763 107.927 4.69011C107.909 4.79259 107.762 4.80008 107.584 4.7076C107.407 4.61263 107.287 4.46266 107.302 4.36018C107.325 4.2602 107.472 4.2552 107.644 4.34518Z" fill="white"/>
<path d="M107.707 3.9225C107.866 4.00998 107.979 4.14495 107.969 4.23493C107.954 4.32491 107.816 4.32991 107.654 4.24493C107.492 4.15745 107.379 4.01748 107.392 3.9275C107.409 3.83752 107.547 3.83752 107.707 3.9225Z" fill="white"/>
<path d="M107.774 3.53C107.921 3.60998 108.026 3.73496 108.016 3.81494C108.004 3.89742 107.879 3.89742 107.726 3.81744C107.576 3.73496 107.471 3.60998 107.481 3.5275C107.504 3.44752 107.629 3.45002 107.774 3.53Z" fill="white"/>
<path d="M107.831 3.17483C107.968 3.24981 108.063 3.36228 108.056 3.43477C108.043 3.50725 107.929 3.50475 107.789 3.42977C107.649 3.35229 107.551 3.23731 107.564 3.16483C107.581 3.09734 107.691 3.10234 107.831 3.17483Z" fill="white"/>
<path d="M107.886 2.82944C108.011 2.8996 108.101 2.98979 108.093 3.06747C108.081 3.14263 107.978 3.1276 107.848 3.05995C107.72 2.98729 107.627 2.89458 107.637 2.81942C107.655 2.74425 107.758 2.75928 107.886 2.82944Z" fill="white"/>
<path d="M107.94 2.47771C108.048 2.54031 108.128 2.61793 108.123 2.68304C108.113 2.74814 108.023 2.73061 107.91 2.67052C107.797 2.60792 107.72 2.53029 107.727 2.46519C107.737 2.40008 107.83 2.41761 107.94 2.47771Z" fill="white"/>
<path d="M107.998 2.1522C108.098 2.20979 108.171 2.2799 108.166 2.3375C108.156 2.39509 108.076 2.37756 107.973 2.32247C107.87 2.26488 107.798 2.19477 107.805 2.13717C107.815 2.07958 107.898 2.09711 107.998 2.1522Z" fill="white"/>
<path d="M108.041 1.82883C108.126 1.87892 108.189 1.93901 108.186 1.98659C108.179 2.03667 108.108 2.01914 108.021 1.96906C107.933 1.91898 107.868 1.85888 107.876 1.81131C107.883 1.76373 107.953 1.78126 108.041 1.82883Z" fill="white"/>
<path d="M108.091 1.52638C108.168 1.57146 108.224 1.62154 108.219 1.6641C108.211 1.70667 108.151 1.68914 108.073 1.64658C107.996 1.60401 107.941 1.55142 107.946 1.50885C107.953 1.46629 108.016 1.48381 108.091 1.52638Z" fill="white"/>
<path d="M106.396 11.1998C106.161 11.0823 106.013 10.8398 106.048 10.6424C106.091 10.4499 106.298 10.3874 106.53 10.4974C106.758 10.6124 106.905 10.8473 106.875 11.0448C106.838 11.2423 106.633 11.3097 106.396 11.1998Z" fill="white"/>
<path d="M106.22 12.1454C105.99 12.033 105.847 11.7905 105.885 11.5881C105.93 11.3906 106.132 11.3231 106.36 11.4281C106.582 11.5381 106.727 11.7755 106.695 11.9755C106.655 12.1754 106.45 12.2504 106.22 12.1454Z" fill="white"/>
<path d="M106.028 13.1285C105.806 13.021 105.666 12.7785 105.706 12.5711C105.751 12.3686 105.951 12.2961 106.171 12.3961C106.388 12.5036 106.528 12.7386 106.493 12.9435C106.451 13.151 106.251 13.2309 106.028 13.1285Z" fill="white"/>
<path d="M105.818 14.206C105.6 14.1035 105.465 13.8611 105.508 13.6511C105.555 13.4437 105.75 13.3637 105.963 13.4612C106.175 13.5637 106.308 13.7986 106.273 14.0061C106.233 14.216 106.035 14.3035 105.818 14.206Z" fill="white"/>
<path d="M105.6 15.285C105.413 15.1951 105.298 14.9801 105.335 14.7876C105.378 14.6002 105.55 14.5202 105.738 14.6027C105.92 14.6902 106.035 14.9001 106.003 15.0926C105.965 15.285 105.793 15.3675 105.6 15.285Z" fill="white"/>
<path d="M105.329 16.5945C105.146 16.5095 105.039 16.2945 105.079 16.0996C105.124 15.9071 105.294 15.8221 105.474 15.8996C105.651 15.9821 105.758 16.192 105.726 16.387C105.684 16.582 105.514 16.6744 105.329 16.5945Z" fill="white"/>
<path d="M105.027 18.0066C104.865 17.9341 104.77 17.7366 104.81 17.5492C104.852 17.3667 105.005 17.2817 105.167 17.3492C105.327 17.4217 105.42 17.6142 105.387 17.7991C105.347 17.9816 105.195 18.0741 105.027 18.0066Z" fill="white"/>
<path d="M104.739 19.4242C104.599 19.3642 104.524 19.1917 104.559 19.0217C104.599 18.8543 104.732 18.7718 104.869 18.8243C105.004 18.8818 105.082 19.0517 105.052 19.2192C105.012 19.3867 104.874 19.4767 104.739 19.4242Z" fill="white"/>
<path d="M107.654 10.1856C107.869 10.2956 108.016 10.5181 107.994 10.703C107.964 10.888 107.779 10.9455 107.556 10.838C107.336 10.7255 107.189 10.4981 107.214 10.3131C107.249 10.1331 107.436 10.0781 107.654 10.1856Z" fill="white"/>
<path d="M108.605 10.5831C108.868 10.723 109.055 11.0055 109.038 11.2354C109.013 11.4704 108.788 11.5479 108.515 11.4104C108.243 11.2679 108.055 10.978 108.08 10.743C108.11 10.5181 108.338 10.4506 108.605 10.5831Z" fill="white"/>
<path d="M115.215 10.235C115.107 10.1674 115.032 10.1874 115.044 10.2852C115.059 10.3829 115.155 10.5157 115.262 10.5858C115.373 10.656 115.445 10.6334 115.433 10.5332C115.418 10.4355 115.322 10.3027 115.215 10.235Z" fill="white"/>
<path d="M114.444 9.71015C114.299 9.62517 114.199 9.65017 114.212 9.77264C114.227 9.89761 114.352 10.0651 114.497 10.1551C114.644 10.2425 114.742 10.215 114.729 10.0901C114.709 9.9651 114.584 9.80013 114.444 9.71015Z" fill="white"/>
<path d="M112.297 16.8769C112.112 16.7644 111.97 16.8444 111.965 17.0643C111.967 17.2893 112.11 17.5542 112.295 17.6767C112.482 17.7917 112.622 17.7092 112.625 17.4842C112.622 17.2568 112.48 16.9943 112.297 16.8769Z" fill="white"/>
<path d="M111.382 15.0643C111.167 14.9418 110.997 15.0243 110.984 15.2567C110.979 15.4942 111.142 15.7766 111.362 15.9091C111.582 16.0341 111.749 15.9466 111.754 15.7066C111.752 15.4692 111.592 15.1892 111.382 15.0643Z" fill="white"/>
<path d="M110.415 13.4938C110.202 13.3788 110.03 13.4513 110.012 13.6638C110.002 13.8787 110.16 14.1387 110.375 14.2636C110.592 14.3786 110.762 14.3011 110.775 14.0837C110.777 13.8662 110.622 13.6113 110.415 13.4938Z" fill="white"/>
<path d="M109.829 7.05309C109.636 6.95311 109.481 6.9731 109.469 7.10808C109.464 7.24555 109.606 7.433 109.801 7.53798C109.996 7.64046 110.151 7.61547 110.159 7.478C110.161 7.34052 110.019 7.15806 109.829 7.05309Z" fill="white"/>
<path d="M113.76 9.90737C113.61 9.81988 113.505 9.84988 113.512 9.97735C113.525 10.1073 113.652 10.2798 113.802 10.3723C113.955 10.4622 114.059 10.4298 114.049 10.2998C114.032 10.1673 113.907 9.99985 113.76 9.90737Z" fill="white"/>
<path d="M112.985 9.43913C112.825 9.34915 112.71 9.37665 112.715 9.50912C112.725 9.64409 112.855 9.81905 113.017 9.91653C113.18 10.009 113.295 9.97652 113.285 9.84155C113.27 9.70908 113.142 9.53411 112.985 9.43913Z" fill="white"/>
<path d="M111.433 9.17961C111.245 9.07713 111.103 9.11212 111.098 9.26209C111.1 9.41456 111.245 9.61451 111.435 9.72199C111.625 9.82447 111.768 9.78698 111.768 9.63201C111.765 9.47954 111.618 9.28209 111.433 9.17961Z" fill="white"/>
<path d="M112.216 8.96903C112.039 8.87156 111.906 8.90155 111.906 9.04152C111.914 9.18649 112.056 9.37645 112.239 9.48392C112.419 9.5839 112.551 9.55141 112.546 9.40394C112.534 9.25897 112.391 9.07151 112.216 8.96903Z" fill="white"/>
<path d="M111.396 8.49933C111.197 8.39186 111.042 8.42185 111.039 8.57682C111.042 8.73428 111.199 8.94424 111.401 9.05921C111.606 9.16919 111.759 9.1342 111.759 8.97423C111.749 8.81677 111.591 8.61181 111.396 8.49933Z" fill="white"/>
<path d="M110.605 8.69637C110.398 8.5864 110.233 8.62139 110.223 8.78386C110.22 8.94882 110.38 9.16627 110.59 9.28375C110.803 9.39622 110.968 9.35623 110.973 9.18877C110.965 9.0263 110.81 8.81135 110.605 8.69637Z" fill="white"/>
<path d="M109.498 11.9892C109.28 11.8793 109.098 11.9418 109.075 12.1442C109.06 12.3492 109.218 12.6016 109.44 12.7216C109.665 12.8366 109.845 12.7666 109.86 12.5591C109.87 12.3542 109.713 12.1067 109.498 11.9892Z" fill="white"/>
<path d="M109.567 11.1228C109.332 11.0003 109.137 11.0628 109.114 11.2728C109.099 11.4852 109.272 11.7502 109.512 11.8801C109.754 12.0051 109.947 11.9351 109.964 11.7202C109.972 11.5077 109.799 11.2478 109.567 11.1228Z" fill="white"/>
<path d="M109.621 10.3095C109.366 10.177 109.156 10.2395 109.134 10.4545C109.119 10.6744 109.306 10.9544 109.564 11.0968C109.826 11.2318 110.033 11.1643 110.048 10.9394C110.061 10.7194 109.873 10.447 109.621 10.3095Z" fill="white"/>
<path d="M109.674 9.54644C109.426 9.41897 109.224 9.46896 109.204 9.67141C109.191 9.87637 109.374 10.1413 109.624 10.2788C109.876 10.4088 110.079 10.3513 110.094 10.1413C110.104 9.93636 109.921 9.67891 109.674 9.54644Z" fill="white"/>
<path d="M109.715 8.88567C109.498 8.7732 109.323 8.81319 109.305 8.98315C109.295 9.15561 109.455 9.38307 109.675 9.50304C109.897 9.61801 110.072 9.57052 110.085 9.39806C110.09 9.2206 109.927 9.00065 109.715 8.88567Z" fill="white"/>
<path d="M109.759 8.21031C109.524 8.08784 109.334 8.12533 109.317 8.30029C109.307 8.48026 109.482 8.7202 109.719 8.85018C109.959 8.97515 110.147 8.93016 110.159 8.7477C110.164 8.57024 109.992 8.33529 109.759 8.21031Z" fill="white"/>
<path d="M109.79 7.59958C109.562 7.47961 109.377 7.5121 109.36 7.67457C109.35 7.84453 109.522 8.07198 109.755 8.19695C109.987 8.31943 110.172 8.28193 110.182 8.11197C110.185 7.94451 110.015 7.72205 109.79 7.59958Z" fill="white"/>
<path d="M108.309 5.72427C108.147 5.64179 108.015 5.65429 107.997 5.75427C107.985 5.85924 108.099 6.00421 108.262 6.09169C108.424 6.17418 108.559 6.15918 108.572 6.0567C108.582 5.95422 108.464 5.80926 108.309 5.72427Z" fill="white"/>
<path d="M108.34 5.24573C108.193 5.16825 108.07 5.17825 108.055 5.26573C108.045 5.35821 108.15 5.48818 108.298 5.56816C108.448 5.64565 108.57 5.63315 108.583 5.54317C108.59 5.45319 108.488 5.32322 108.34 5.24573Z" fill="white"/>
<path d="M108.371 4.79359C108.243 4.72594 108.138 4.73095 108.125 4.80612C108.118 4.88379 108.208 4.99654 108.338 5.06419C108.469 5.13184 108.571 5.12432 108.584 5.04915C108.589 4.97399 108.496 4.86374 108.371 4.79359Z" fill="white"/>
<path d="M108.385 4.3575C108.27 4.2974 108.177 4.28989 108.165 4.36501C108.157 4.44013 108.242 4.53028 108.357 4.59538C108.475 4.65548 108.568 4.66299 108.578 4.58787C108.585 4.51024 108.5 4.4201 108.385 4.3575Z" fill="white"/>
<path d="M108.406 3.94806C108.299 3.89047 108.214 3.88296 108.204 3.95057C108.196 4.02068 108.274 4.10331 108.384 4.1609C108.492 4.2185 108.579 4.22601 108.587 4.1584C108.592 4.09079 108.514 4.00816 108.406 3.94806Z" fill="white"/>
<path d="M108.431 3.54177C108.335 3.49168 108.26 3.48167 108.25 3.53926C108.245 3.59936 108.315 3.67198 108.408 3.72206C108.506 3.77464 108.581 3.78215 108.588 3.72206C108.593 3.66446 108.526 3.59435 108.431 3.54177Z" fill="white"/>
<path d="M108.449 3.178C108.362 3.13042 108.292 3.1179 108.282 3.17299C108.277 3.22808 108.342 3.29068 108.429 3.34076C108.519 3.38834 108.59 3.40086 108.595 3.34577C108.6 3.29068 108.534 3.22808 108.449 3.178Z" fill="white"/>
<path d="M108.466 2.80599C108.388 2.76342 108.325 2.7509 108.32 2.79597C108.318 2.84355 108.373 2.89864 108.451 2.94371C108.528 2.98628 108.591 2.99629 108.596 2.95122C108.596 2.90615 108.541 2.84856 108.466 2.80599Z" fill="white"/>
<path d="M107.448 11.6049C107.618 11.6873 107.766 11.6374 107.788 11.4874C107.806 11.3399 107.693 11.1625 107.526 11.0775C107.358 10.995 107.211 11.0425 107.186 11.1874C107.166 11.3349 107.278 11.5174 107.448 11.6049Z" fill="white"/>
<path d="M107.301 12.5483C107.463 12.6258 107.603 12.5733 107.628 12.4258C107.648 12.2784 107.541 12.1034 107.381 12.0209C107.218 11.9459 107.078 11.9959 107.053 12.1409C107.033 12.2884 107.141 12.4658 107.301 12.5483Z" fill="white"/>
<path d="M107.076 13.521C107.238 13.596 107.375 13.5385 107.4 13.3861C107.42 13.2336 107.315 13.0586 107.158 12.9787C107.001 12.9037 106.861 12.9587 106.831 13.1086C106.811 13.2636 106.916 13.4435 107.076 13.521Z" fill="white"/>
<path d="M106.871 14.5819C107.021 14.6519 107.153 14.5919 107.178 14.4419C107.198 14.2919 107.101 14.1245 106.956 14.052C106.806 13.9845 106.676 14.0395 106.648 14.187C106.623 14.3369 106.721 14.5094 106.871 14.5819Z" fill="white"/>
<path d="M106.617 15.6387C106.757 15.7036 106.881 15.6412 106.906 15.4937C106.926 15.3487 106.839 15.1863 106.702 15.1188C106.562 15.0563 106.437 15.1138 106.409 15.2587C106.389 15.4062 106.477 15.5712 106.617 15.6387Z" fill="white"/>
<path d="M106.327 16.8993C106.459 16.9568 106.576 16.8918 106.601 16.7493C106.621 16.6043 106.539 16.4494 106.412 16.3869C106.282 16.3294 106.164 16.3894 106.137 16.5318C106.114 16.6768 106.194 16.8368 106.327 16.8993Z" fill="white"/>
<path d="M110.589 8.06849C110.397 7.96351 110.244 7.9935 110.234 8.13597C110.232 8.28344 110.379 8.4784 110.577 8.58837C110.774 8.69085 110.924 8.65836 110.929 8.51089C110.927 8.36592 110.779 8.17347 110.589 8.06849Z" fill="white"/>
<path d="M110.543 9.3941C110.37 9.30412 110.233 9.33661 110.223 9.47658C110.22 9.61905 110.35 9.80401 110.528 9.90149C110.705 9.99397 110.843 9.95648 110.848 9.81401C110.85 9.67154 110.715 9.48908 110.543 9.3941Z" fill="white"/>
<path d="M110.532 10.076C110.334 9.97103 110.177 10.016 110.164 10.181C110.159 10.3509 110.309 10.5659 110.509 10.6784C110.712 10.7858 110.867 10.7359 110.874 10.5659C110.877 10.3984 110.732 10.186 110.532 10.076Z" fill="white"/>
<path d="M110.429 12.5308C110.234 12.4284 110.079 12.4858 110.067 12.6708C110.059 12.8583 110.202 13.0882 110.399 13.2007C110.597 13.3057 110.752 13.2407 110.762 13.0532C110.762 12.8633 110.619 12.6383 110.429 12.5308Z" fill="white"/>
<path d="M113.696 9.23476C113.531 9.14228 113.419 9.16727 113.426 9.30224C113.441 9.43721 113.579 9.61967 113.741 9.71965C113.906 9.81463 114.021 9.78464 114.009 9.64717C113.991 9.5122 113.856 9.33223 113.696 9.23476Z" fill="white"/>
<path d="M111.317 16.239C111.137 16.1365 110.997 16.2115 110.984 16.4164C110.982 16.6239 111.117 16.8688 111.297 16.9788C111.479 17.0838 111.622 17.0038 111.627 16.7938C111.629 16.5864 111.494 16.3439 111.317 16.239Z" fill="white"/>
<path d="M112.307 18.0983C112.137 17.9908 112.005 18.0708 112 18.2858C112 18.5032 112.132 18.7582 112.305 18.8731C112.477 18.9831 112.607 18.9006 112.61 18.6807C112.607 18.4607 112.477 18.2083 112.307 18.0983Z" fill="white"/>
<path d="M110.336 14.5156C110.139 14.4082 109.979 14.4831 109.961 14.6906C109.951 14.9006 110.096 15.1505 110.296 15.263C110.499 15.3705 110.656 15.2905 110.671 15.0805C110.676 14.8706 110.531 14.6256 110.336 14.5156Z" fill="white"/>
<path d="M109.421 12.9881C109.227 12.8881 109.064 12.9531 109.044 13.1406C109.029 13.333 109.169 13.563 109.367 13.6705C109.566 13.7729 109.729 13.703 109.744 13.5105C109.754 13.318 109.614 13.0931 109.421 12.9881Z" fill="white"/>
<path d="M108.526 11.4997C108.311 11.3922 108.131 11.4547 108.104 11.6446C108.081 11.8396 108.231 12.077 108.449 12.1895C108.669 12.297 108.849 12.232 108.871 12.0346C108.886 11.8446 108.734 11.6121 108.526 11.4997Z" fill="white"/>
<path d="M110.471 11.6962C110.291 11.6012 110.146 11.6512 110.133 11.8162C110.126 11.9837 110.263 12.1936 110.446 12.2961C110.63 12.3961 110.773 12.3411 110.783 12.1711C110.783 12.0012 110.653 11.7962 110.471 11.6962Z" fill="white"/>
<path d="M109.854 6.52711C109.684 6.43963 109.549 6.45462 109.539 6.5671C109.534 6.68207 109.662 6.84454 109.834 6.93702C110.007 7.027 110.139 7.0095 110.147 6.89203C110.144 6.77705 110.019 6.61959 109.854 6.52711Z" fill="white"/>
<path d="M112.94 8.84175C112.805 8.76676 112.71 8.78676 112.715 8.89423C112.723 9.00171 112.833 9.14418 112.967 9.22416C113.102 9.30165 113.2 9.27665 113.192 9.16917C113.185 9.0617 113.075 8.91923 112.94 8.84175Z" fill="white"/>
<path d="M111.439 10.642C111.287 10.5595 111.169 10.5945 111.164 10.727C111.164 10.8619 111.282 11.0319 111.437 11.1219C111.591 11.2044 111.706 11.1669 111.709 11.0319C111.704 10.8969 111.589 10.7295 111.439 10.642Z" fill="white"/>
<path d="M111.364 14.0577C111.177 13.9527 111.03 14.0177 111.02 14.2127C111.017 14.4126 111.16 14.6501 111.349 14.765C111.542 14.8725 111.687 14.8025 111.692 14.6026C111.687 14.4026 111.547 14.1677 111.364 14.0577Z" fill="white"/>
<path d="M110.503 10.9011C110.328 10.8062 110.186 10.8512 110.176 11.0061C110.171 11.1636 110.303 11.361 110.481 11.461C110.661 11.556 110.798 11.5085 110.808 11.351C110.808 11.1936 110.676 10.9986 110.503 10.9011Z" fill="white"/>
<path d="M112.312 11.9185C112.142 11.8235 112.014 11.8685 112.012 12.0285C112.014 12.1909 112.152 12.3984 112.322 12.5009C112.494 12.6009 112.622 12.5509 112.619 12.3859C112.617 12.2234 112.482 12.021 112.312 11.9185Z" fill="white"/>
<path d="M113.047 20.1858C112.91 20.0883 112.805 20.1608 112.805 20.3532C112.807 20.5482 112.917 20.7806 113.055 20.8856C113.195 20.9856 113.295 20.9131 113.295 20.7132C113.292 20.5182 113.185 20.2882 113.047 20.1858Z" fill="white"/>
<path d="M112.244 9.65905C112.086 9.57157 111.966 9.60157 111.969 9.73154C111.974 9.86401 112.101 10.039 112.259 10.1315C112.419 10.2214 112.536 10.1864 112.534 10.054C112.526 9.9215 112.401 9.74904 112.244 9.65905Z" fill="white"/>
<path d="M109.058 6.12456C108.903 6.04458 108.778 6.05707 108.766 6.15705C108.758 6.25953 108.871 6.402 109.026 6.48698C109.183 6.56696 109.308 6.55196 109.318 6.44949C109.323 6.34701 109.208 6.20704 109.058 6.12456Z" fill="white"/>
<path d="M110.617 6.45084C110.469 6.37335 110.357 6.38585 110.352 6.48333C110.352 6.58331 110.467 6.72328 110.614 6.80576C110.764 6.88324 110.876 6.87075 110.879 6.77077C110.874 6.67079 110.761 6.53332 110.617 6.45084Z" fill="white"/>
<path d="M112.187 8.42163C112.064 8.35398 111.974 8.37152 111.977 8.46673C111.982 8.55944 112.079 8.68722 112.202 8.75988C112.327 8.82753 112.418 8.80999 112.415 8.71228C112.41 8.61707 112.31 8.48928 112.187 8.42163Z" fill="white"/>
<path d="M111.401 11.4271C111.246 11.3421 111.126 11.3821 111.121 11.5246C111.121 11.667 111.241 11.8495 111.399 11.942C111.556 12.0294 111.676 11.9845 111.678 11.8395C111.673 11.6945 111.556 11.5146 111.401 11.4271Z" fill="white"/>
<path d="M112.261 11.1377C112.126 11.0627 112.023 11.0952 112.023 11.2177C112.028 11.3401 112.133 11.4976 112.268 11.5776C112.406 11.6551 112.506 11.6201 112.503 11.4951C112.501 11.3726 112.393 11.2177 112.261 11.1377Z" fill="white"/>
<path d="M113.152 12.4474C113.002 12.3574 112.892 12.3999 112.895 12.5473C112.902 12.6973 113.025 12.8873 113.175 12.9848C113.327 13.0772 113.434 13.0322 113.429 12.8798C113.419 12.7298 113.297 12.5423 113.152 12.4474Z" fill="white"/>
<path d="M114.498 10.4098C114.383 10.3422 114.305 10.3647 114.313 10.465C114.326 10.5677 114.423 10.703 114.536 10.7781C114.651 10.8483 114.729 10.8232 114.719 10.7205C114.709 10.6153 114.609 10.4825 114.498 10.4098Z" fill="white"/>
<path d="M110.62 5.98698C110.489 5.91682 110.389 5.92434 110.387 6.00953C110.387 6.09221 110.487 6.21498 110.617 6.28764C110.75 6.3578 110.85 6.34778 110.85 6.26259C110.845 6.1774 110.748 6.05964 110.62 5.98698Z" fill="white"/>
<path d="M110.607 6.97742C110.469 6.90494 110.364 6.91993 110.359 7.01241C110.359 7.10739 110.464 7.23737 110.599 7.31485C110.737 7.38733 110.842 7.37234 110.844 7.27736C110.844 7.18238 110.744 7.05241 110.607 6.97742Z" fill="white"/>
<path d="M113.197 18.9199C113.039 18.8124 112.922 18.8874 112.922 19.0973C112.927 19.3073 113.052 19.5597 113.209 19.6747C113.367 19.7847 113.484 19.7097 113.482 19.4947C113.469 19.2798 113.349 19.0323 113.197 18.9199Z" fill="white"/>
<path d="M109.876 6.06393C109.741 5.99395 109.636 6.00395 109.629 6.08893C109.626 6.17641 109.726 6.30138 109.861 6.37637C109.996 6.44885 110.104 6.43635 110.106 6.34637C110.111 6.26139 110.011 6.13642 109.876 6.06393Z" fill="white"/>
<path d="M111.402 9.91516C111.269 9.84267 111.167 9.87017 111.164 9.98264C111.164 10.0951 111.269 10.2426 111.402 10.3176C111.536 10.3901 111.639 10.3626 111.639 10.2476C111.636 10.1351 111.534 9.99014 111.402 9.91516Z" fill="white"/>
<path d="M111.397 8.0053C111.287 7.94521 111.202 7.96023 111.199 8.04286C111.202 8.1255 111.289 8.23818 111.402 8.30078C111.515 8.36338 111.6 8.34585 111.6 8.26072C111.595 8.18059 111.507 8.0679 111.397 8.0053Z" fill="white"/>
<path d="M111.379 13.1618C111.247 13.0869 111.142 13.1294 111.137 13.2618C111.134 13.3943 111.237 13.5593 111.372 13.6392C111.507 13.7142 111.609 13.6717 111.614 13.5343C111.609 13.4018 111.512 13.2393 111.379 13.1618Z" fill="white"/>
<path d="M112.322 15.7658C112.169 15.6734 112.052 15.7333 112.047 15.9083C112.049 16.0833 112.167 16.2957 112.322 16.3957C112.477 16.4907 112.594 16.4282 112.594 16.2482C112.589 16.0708 112.469 15.8608 112.322 15.7658Z" fill="white"/>
<path d="M110.601 7.58688C110.498 7.53429 110.42 7.54681 110.418 7.61943C110.418 7.69455 110.493 7.79471 110.596 7.8498C110.698 7.90489 110.779 7.88987 110.781 7.81725C110.779 7.74213 110.701 7.64447 110.601 7.58688Z" fill="white"/>
<path d="M112.239 19.3475C112.12 19.27 112.025 19.3325 112.02 19.495C112.02 19.6575 112.112 19.8474 112.234 19.9299C112.359 20.0099 112.452 19.9449 112.454 19.7799C112.449 19.6175 112.357 19.43 112.239 19.3475Z" fill="white"/>
<path d="M113.028 10.168C112.9 10.0956 112.808 10.1206 112.813 10.2305C112.82 10.3405 112.923 10.4855 113.053 10.563C113.183 10.6379 113.273 10.6104 113.268 10.498C113.255 10.3855 113.153 10.243 113.028 10.168Z" fill="white"/>
<path d="M111.383 6.42085C111.267 6.35821 111.18 6.36573 111.18 6.4434C111.182 6.52107 111.275 6.63132 111.393 6.69646C111.51 6.7591 111.598 6.74908 111.596 6.67141C111.591 6.59624 111.498 6.486 111.383 6.42085Z" fill="white"/>
<path d="M115.962 10.7443C115.87 10.6842 115.809 10.7018 115.822 10.7894C115.837 10.877 115.92 10.9922 116.01 11.0573C116.102 11.1174 116.163 11.0999 116.15 11.0098C116.135 10.9221 116.052 10.8069 115.962 10.7443Z" fill="white"/>
<path d="M114.004 13.0093C113.871 12.9243 113.776 12.9643 113.781 13.1018C113.791 13.2418 113.901 13.4192 114.036 13.5092C114.171 13.5942 114.264 13.5542 114.259 13.4117C114.246 13.2718 114.136 13.0968 114.004 13.0093Z" fill="white"/>
<path d="M113.591 21.5399C113.478 21.4474 113.398 21.5124 113.398 21.6924C113.403 21.8749 113.493 22.0898 113.603 22.1898C113.716 22.2848 113.796 22.2198 113.793 22.0373C113.788 21.8524 113.698 21.6374 113.591 21.5399Z" fill="white"/>
<path d="M111.277 17.4824C111.142 17.4049 111.035 17.4674 111.027 17.6273C111.025 17.7898 111.122 17.9772 111.26 18.0597C111.395 18.1397 111.5 18.0747 111.507 17.9123C111.51 17.7498 111.41 17.5623 111.277 17.4824Z" fill="white"/>
<path d="M113.116 11.695C113.021 11.6374 112.951 11.6624 112.953 11.7525C112.958 11.8452 113.036 11.9604 113.131 12.0205C113.229 12.0781 113.296 12.053 113.294 11.9604C113.284 11.8702 113.206 11.7525 113.116 11.695Z" fill="white"/>
<path d="M111.345 5.95073C111.247 5.89814 111.172 5.89564 111.172 5.96575C111.177 6.03587 111.252 6.121 111.352 6.1786C111.452 6.23118 111.527 6.23368 111.525 6.16107C111.52 6.09095 111.442 6.00582 111.345 5.95073Z" fill="white"/>
<path d="M112.044 6.37393C111.961 6.32885 111.904 6.32885 111.906 6.38895C111.911 6.44905 111.976 6.51916 112.059 6.56423C112.139 6.6093 112.199 6.6093 112.197 6.54921C112.189 6.48911 112.124 6.419 112.044 6.37393Z" fill="white"/>
<path d="M110.289 15.7783C110.169 15.7133 110.069 15.7633 110.059 15.8958C110.054 16.0283 110.141 16.1832 110.261 16.2507C110.384 16.3157 110.481 16.2632 110.489 16.1308C110.494 15.9983 110.406 15.8458 110.289 15.7783Z" fill="white"/>
<path d="M109.297 14.13C109.18 14.07 109.08 14.115 109.067 14.2349C109.057 14.3549 109.142 14.4974 109.26 14.5624C109.38 14.6224 109.48 14.5774 109.49 14.4574C109.502 14.3349 109.417 14.195 109.297 14.13Z" fill="white"/>
<path d="M108.389 12.5972C108.271 12.5396 108.171 12.5772 108.153 12.6849C108.143 12.7951 108.223 12.9279 108.341 12.9906C108.459 13.0482 108.559 13.0081 108.574 12.8979C108.584 12.7901 108.504 12.6599 108.389 12.5972Z" fill="white"/>
<path d="M111.999 5.928C111.912 5.88042 111.849 5.87792 111.852 5.93801C111.857 5.99811 111.927 6.07323 112.014 6.12081C112.102 6.16838 112.165 6.17089 112.162 6.10829C112.155 6.04819 112.085 5.97557 111.999 5.928Z" fill="white"/>
<path d="M112.557 5.93995C112.482 5.89988 112.427 5.89738 112.43 5.94996C112.435 6.00255 112.495 6.06765 112.57 6.11022C112.645 6.15029 112.7 6.15279 112.698 6.10021C112.693 6.04762 112.63 5.98252 112.557 5.93995Z" fill="white"/>
<path d="M114.837 13.6511C114.752 13.5935 114.695 13.6211 114.7 13.7137C114.707 13.8064 114.78 13.9266 114.865 13.9867C114.95 14.0443 115.008 14.0167 115.003 13.9216C114.992 13.8289 114.92 13.7087 114.837 13.6511Z" fill="white"/>
<path d="M114.063 13.8629C113.955 13.7954 113.88 13.8279 113.883 13.9454C113.893 14.0628 113.978 14.2103 114.088 14.2828C114.195 14.3528 114.27 14.3178 114.265 14.1978C114.255 14.0803 114.17 13.9354 114.063 13.8629Z" fill="white"/>
<path d="M113.198 13.3237C113.098 13.2636 113.025 13.2937 113.027 13.3964C113.032 13.5016 113.113 13.6319 113.213 13.6945C113.313 13.7572 113.386 13.7246 113.383 13.6194C113.376 13.5141 113.295 13.3864 113.198 13.3237Z" fill="white"/>
<path d="M112.307 12.7944C112.212 12.7418 112.145 12.7693 112.145 12.8595C112.145 12.9521 112.22 13.0673 112.31 13.1224C112.402 13.1775 112.473 13.1474 112.473 13.0548C112.468 12.9621 112.397 12.8494 112.307 12.7944Z" fill="white"/>
<path d="M111.401 12.2701C111.306 12.2175 111.233 12.2476 111.23 12.3352C111.23 12.4254 111.303 12.538 111.398 12.5931C111.493 12.6457 111.566 12.6182 111.569 12.5255C111.566 12.4354 111.493 12.3252 111.401 12.2701Z" fill="white"/>
<path d="M114.883 14.4606C114.798 14.4005 114.737 14.4306 114.742 14.5282C114.75 14.6259 114.825 14.7536 114.908 14.8137C114.993 14.8738 115.053 14.8437 115.045 14.7436C115.038 14.6459 114.965 14.5207 114.883 14.4606Z" fill="white"/>
<path d="M115.738 15.1101C115.663 15.0525 115.61 15.0801 115.618 15.1727C115.628 15.2679 115.693 15.3856 115.768 15.4457C115.846 15.5033 115.896 15.4757 115.888 15.3806C115.878 15.2879 115.811 15.1677 115.738 15.1101Z" fill="white"/>
<path d="M111.367 6.92595C111.272 6.87336 111.202 6.87837 111.199 6.94849C111.202 7.0211 111.277 7.10624 111.375 7.15882C111.47 7.21141 111.542 7.2064 111.54 7.13378C111.537 7.06618 111.462 6.98104 111.367 6.92595Z" fill="white"/>
<path d="M105.678 9.2024C105.455 9.09743 105.25 9.14992 105.203 9.32238C105.16 9.50234 105.303 9.72479 105.533 9.83727C105.76 9.94224 105.965 9.88726 106.008 9.70729C106.04 9.52983 105.9 9.31238 105.678 9.2024Z" fill="white"/>
<path d="M104.714 8.65936C104.431 8.52939 104.164 8.59188 104.094 8.80433C104.034 9.02678 104.206 9.30422 104.496 9.44169C104.789 9.57416 105.054 9.50168 105.116 9.28173C105.169 9.06177 104.996 8.79433 104.714 8.65936Z" fill="white"/>
<path d="M98.222 1.79898C98.3745 1.85147 98.447 1.94645 98.397 2.01893C98.3395 2.09142 98.177 2.10641 98.0221 2.05642C97.8671 2.00394 97.7896 1.91146 97.8471 1.83647C97.9046 1.76649 98.067 1.75149 98.222 1.79898Z" fill="white"/>
<path d="M99.2936 2.13192C99.4761 2.2019 99.5685 2.32187 99.5086 2.41435C99.4461 2.50183 99.2536 2.51933 99.0686 2.45185C98.8837 2.38186 98.7887 2.26189 98.8512 2.16941C98.9187 2.08193 99.1111 2.06693 99.2936 2.13192Z" fill="white"/>
<path d="M98.887 10.6131C99.0595 10.6831 99.142 10.8381 99.0795 10.9781C99.0145 11.118 98.8295 11.178 98.6521 11.1105C98.4771 11.0405 98.3946 10.8806 98.4596 10.7406C98.5296 10.6031 98.7145 10.5481 98.887 10.6131Z" fill="white"/>
<path d="M100.416 9.83813C100.649 9.93561 100.769 10.1481 100.696 10.338C100.616 10.5255 100.374 10.598 100.132 10.5055C99.8941 10.4055 99.7741 10.1856 99.8516 9.9956C99.9391 9.81314 100.184 9.74565 100.416 9.83813Z" fill="white"/>
<path d="M101.957 9.39611C102.202 9.50358 102.334 9.73353 102.269 9.92849C102.197 10.1234 101.952 10.1934 101.699 10.0885C101.449 9.97848 101.314 9.74353 101.387 9.54857C101.467 9.35861 101.714 9.29363 101.957 9.39611Z" fill="white"/>
<path d="M104.841 4.48185C105.045 4.58433 105.178 4.75929 105.143 4.88426C105.103 5.00923 104.911 5.02923 104.698 4.92675C104.486 4.82177 104.356 4.64431 104.393 4.51934C104.441 4.39687 104.631 4.38187 104.841 4.48185Z" fill="white"/>
<path d="M99.9638 3.00557C100.156 3.08055 100.259 3.21552 100.201 3.318C100.139 3.42048 99.9388 3.44297 99.7414 3.37049C99.5439 3.293 99.4415 3.16053 99.5014 3.05556C99.5689 2.95808 99.7689 2.93558 99.9638 3.00557Z" fill="white"/>
<path d="M100.95 3.3849C101.148 3.46738 101.255 3.60985 101.203 3.71983C101.143 3.8273 100.945 3.8498 100.741 3.76981C100.538 3.68483 100.431 3.54236 100.488 3.43239C100.551 3.32741 100.748 3.30742 100.95 3.3849Z" fill="white"/>
<path d="M102.607 4.71857C102.822 4.81855 102.947 4.99101 102.897 5.12348C102.839 5.25345 102.629 5.28094 102.407 5.18597C102.184 5.08599 102.059 4.91102 102.114 4.77605C102.177 4.64858 102.389 4.62609 102.607 4.71857Z" fill="white"/>
<path d="M101.909 3.75834C102.119 3.85082 102.239 4.01328 102.189 4.13575C102.129 4.25573 101.921 4.27822 101.701 4.18824C101.484 4.09326 101.361 3.9283 101.421 3.80583C101.486 3.68835 101.699 3.66586 101.909 3.75834Z" fill="white"/>
<path d="M102.87 4.16889C103.092 4.27137 103.222 4.45133 103.175 4.5813C103.12 4.71127 102.902 4.73627 102.67 4.63629C102.442 4.53131 102.307 4.35135 102.365 4.21638C102.425 4.08891 102.642 4.06891 102.87 4.16889Z" fill="white"/>
<path d="M103.547 5.12303C103.78 5.23301 103.92 5.42797 103.872 5.57294C103.817 5.7204 103.592 5.7504 103.352 5.64292C103.113 5.53045 102.973 5.33299 103.028 5.18552C103.09 5.04305 103.315 5.01806 103.547 5.12303Z" fill="white"/>
<path d="M103.383 9.01026C103.623 9.12274 103.763 9.34769 103.71 9.53765C103.648 9.72761 103.413 9.79259 103.165 9.68512C102.92 9.57014 102.778 9.33769 102.838 9.14773C102.905 8.96277 103.14 8.90279 103.383 9.01026Z" fill="white"/>
<path d="M103.629 8.21015C103.886 8.33263 104.041 8.57008 103.986 8.76753C103.924 8.96249 103.674 9.02498 103.406 8.9075C103.141 8.78503 102.986 8.54008 103.049 8.34013C103.116 8.15017 103.369 8.09518 103.629 8.21015Z" fill="white"/>
<path d="M103.851 7.46203C104.129 7.5945 104.296 7.84445 104.239 8.0494C104.174 8.25186 103.906 8.31185 103.619 8.18437C103.331 8.0494 103.164 7.78946 103.229 7.587C103.304 7.38955 103.571 7.33706 103.851 7.46203Z" fill="white"/>
<path d="M104.081 6.7608C104.348 6.89077 104.513 7.12822 104.461 7.31818C104.401 7.50814 104.143 7.55813 103.863 7.43315C103.586 7.30068 103.421 7.05573 103.481 6.86578C103.551 6.68082 103.811 6.63832 104.081 6.7608Z" fill="white"/>
<path d="M104.27 6.15276C104.505 6.26524 104.65 6.47269 104.605 6.63266C104.553 6.79262 104.33 6.83011 104.088 6.71764C103.845 6.60266 103.7 6.39271 103.753 6.23024C103.813 6.07528 104.035 6.04278 104.27 6.15276Z" fill="white"/>
<path d="M104.487 5.53834C104.739 5.66331 104.897 5.88076 104.852 6.04573C104.799 6.21069 104.559 6.24568 104.299 6.12321C104.039 5.99574 103.879 5.77329 103.932 5.60582C103.994 5.44836 104.234 5.41836 104.487 5.53834Z" fill="white"/>
<path d="M104.673 4.97919C104.921 5.10167 105.073 5.30912 105.031 5.46409C104.981 5.61905 104.751 5.64655 104.498 5.52657C104.243 5.4041 104.088 5.18915 104.138 5.03418C104.198 4.88421 104.428 4.86172 104.673 4.97919Z" fill="white"/>
<path d="M106.642 4.85055C106.804 4.93553 106.917 5.078 106.899 5.17798C106.874 5.27795 106.732 5.29045 106.564 5.20797C106.397 5.12049 106.287 4.97802 106.307 4.87554C106.33 4.77806 106.477 4.76807 106.642 4.85055Z" fill="white"/>
<path d="M106.768 4.40029C106.918 4.48028 107.021 4.60775 107.003 4.69523C106.983 4.78271 106.851 4.79271 106.698 4.71273C106.546 4.63274 106.443 4.50277 106.463 4.41529C106.486 4.32781 106.621 4.32281 106.768 4.40029Z" fill="white"/>
<path d="M106.898 3.98252C107.028 4.05267 107.116 4.16041 107.103 4.23558C107.085 4.30824 106.973 4.31325 106.84 4.2456C106.707 4.17545 106.619 4.0652 106.634 3.99004C106.652 3.91737 106.762 3.91487 106.898 3.98252Z" fill="white"/>
<path d="M107.017 3.57489C107.132 3.63753 107.215 3.72773 107.203 3.80039C107.185 3.87305 107.085 3.86804 106.967 3.8054C106.847 3.74026 106.764 3.65006 106.779 3.5774C106.797 3.50474 106.899 3.51225 107.017 3.57489Z" fill="white"/>
<path d="M107.129 3.21145C107.237 3.26904 107.315 3.35167 107.305 3.41928C107.29 3.48438 107.197 3.47687 107.087 3.41678C106.977 3.35668 106.899 3.27655 106.911 3.20894C106.927 3.14384 107.019 3.15385 107.129 3.21145Z" fill="white"/>
<path d="M107.232 2.86276C107.327 2.91534 107.398 2.98546 107.388 3.04305C107.375 3.10064 107.295 3.09063 107.197 3.03804C107.1 2.98295 107.032 2.91284 107.044 2.85525C107.057 2.80016 107.137 2.81017 107.232 2.86276Z" fill="white"/>
<path d="M107.313 2.56638C107.401 2.61396 107.466 2.67906 107.456 2.73165C107.443 2.78423 107.371 2.77171 107.281 2.72413C107.19 2.67405 107.128 2.60895 107.138 2.55636C107.15 2.50628 107.225 2.5163 107.313 2.56638Z" fill="white"/>
<path d="M107.41 2.26693C107.49 2.30949 107.545 2.36709 107.538 2.41216C107.528 2.45723 107.462 2.44471 107.382 2.40214C107.302 2.35707 107.247 2.30198 107.255 2.25691C107.27 2.21184 107.332 2.22436 107.41 2.26693Z" fill="white"/>
<path d="M105.353 10.5774C105.178 10.4924 105.071 10.3175 105.103 10.1725C105.141 10.0325 105.301 9.98755 105.473 10.065C105.646 10.15 105.753 10.3225 105.726 10.4649C105.688 10.6124 105.531 10.6599 105.353 10.5774Z" fill="white"/>
<path d="M105.169 11.5003C105.002 11.4203 104.899 11.2478 104.932 11.1029C104.969 10.9629 105.124 10.9129 105.289 10.9879C105.454 11.0679 105.557 11.2378 105.527 11.3828C105.489 11.5253 105.339 11.5752 105.169 11.5003Z" fill="white"/>
<path d="M104.987 12.4841C104.822 12.4066 104.722 12.2316 104.757 12.0817C104.797 11.9342 104.949 11.8817 105.114 11.9542C105.277 12.0317 105.377 12.2041 105.347 12.3516C105.309 12.5016 105.157 12.559 104.987 12.4841Z" fill="white"/>
<path d="M104.821 13.5446C104.666 13.4721 104.574 13.3046 104.609 13.1572C104.649 13.0122 104.791 12.9572 104.949 13.0247C105.101 13.0972 105.191 13.2597 105.161 13.4071C105.124 13.5521 104.979 13.6121 104.821 13.5446Z" fill="white"/>
<path d="M104.609 14.6996C104.464 14.6321 104.379 14.4721 104.414 14.3246C104.454 14.1822 104.589 14.1247 104.734 14.1872C104.877 14.2547 104.961 14.4121 104.931 14.5571C104.894 14.6971 104.759 14.762 104.609 14.6996Z" fill="white"/>
<path d="M104.385 16.0066C104.248 15.9467 104.173 15.7892 104.208 15.6467C104.245 15.5068 104.378 15.4443 104.513 15.5018C104.648 15.5617 104.723 15.7142 104.693 15.8567C104.653 15.9966 104.523 16.0641 104.385 16.0066Z" fill="white"/>
<path d="M103.782 4.59858C103.996 4.70106 104.126 4.87852 104.084 5.00849C104.036 5.13846 103.832 5.16096 103.609 5.06098C103.389 4.956 103.259 4.77604 103.307 4.64607C103.362 4.51859 103.567 4.4986 103.782 4.59858Z" fill="white"/>
<path d="M103.295 5.7503C103.49 5.84028 103.605 6.00524 103.562 6.13272C103.515 6.26019 103.327 6.28768 103.127 6.2002C102.93 6.10772 102.812 5.94026 102.857 5.81279C102.915 5.69031 103.102 5.66282 103.295 5.7503Z" fill="white"/>
<path d="M103.076 6.36148C103.298 6.46645 103.428 6.65641 103.378 6.80888C103.321 6.95885 103.106 6.99884 102.876 6.89886C102.646 6.79388 102.516 6.59893 102.571 6.44646C102.636 6.29899 102.851 6.264 103.076 6.36148Z" fill="white"/>
<path d="M102.262 8.55103C102.482 8.65101 102.607 8.85096 102.549 9.02093C102.487 9.18839 102.267 9.24588 102.039 9.1509C101.814 9.05092 101.689 8.84346 101.749 8.6735C101.817 8.50854 102.037 8.45605 102.262 8.55103Z" fill="white"/>
<path d="M100.284 2.47891C100.492 2.56639 100.599 2.70886 100.537 2.81634C100.469 2.92131 100.257 2.93631 100.044 2.85383C99.8318 2.76635 99.7218 2.62138 99.7893 2.5139C99.8618 2.41142 100.079 2.39643 100.284 2.47891Z" fill="white"/>
<path d="M100.015 10.8758C100.232 10.9683 100.342 11.1732 100.272 11.3582C100.192 11.5431 99.9646 11.6206 99.7396 11.5331C99.5172 11.4407 99.4097 11.2282 99.4847 11.0407C99.5672 10.8608 99.7946 10.7908 100.015 10.8758Z" fill="white"/>
<path d="M98.4741 11.4884C98.6941 11.5759 98.7965 11.7808 98.7141 11.9733C98.6241 12.1607 98.3841 12.2457 98.1567 12.1632C97.9317 12.0757 97.8292 11.8633 97.9192 11.6708C98.0142 11.4859 98.2542 11.4084 98.4741 11.4884Z" fill="white"/>
<path d="M101.605 10.3533C101.833 10.4533 101.955 10.6707 101.893 10.8632C101.82 11.0532 101.59 11.1257 101.355 11.0307C101.123 10.9282 101 10.7057 101.07 10.5133C101.143 10.3258 101.375 10.2583 101.605 10.3533Z" fill="white"/>
<path d="M103.088 9.92965C103.303 10.0271 103.428 10.2346 103.376 10.4145C103.318 10.592 103.106 10.657 102.883 10.562C102.663 10.462 102.538 10.2471 102.596 10.0696C102.658 9.89466 102.871 9.83467 103.088 9.92965Z" fill="white"/>
<path d="M104.45 9.51158C104.675 9.61905 104.813 9.839 104.77 10.024C104.718 10.2089 104.503 10.2714 104.268 10.1664C104.035 10.0565 103.898 9.83151 103.948 9.64405C104.008 9.46658 104.223 9.4091 104.45 9.51158Z" fill="white"/>
<path d="M102.538 7.77954C102.743 7.87202 102.861 8.05698 102.811 8.20695C102.753 8.35691 102.551 8.4044 102.341 8.31442C102.131 8.21944 102.013 8.03198 102.068 7.88202C102.131 7.73455 102.333 7.69206 102.538 7.77954Z" fill="white"/>
<path d="M104.989 4.00371C105.169 4.09618 105.286 4.24615 105.256 4.35113C105.222 4.45611 105.054 4.4686 104.869 4.37862C104.684 4.28614 104.567 4.13368 104.599 4.0262C104.642 3.92622 104.809 3.91372 104.989 4.00371Z" fill="white"/>
<path d="M101.245 2.92917C101.408 3.00165 101.495 3.12163 101.45 3.20911C101.4 3.29409 101.235 3.30659 101.068 3.2341C100.9 3.16162 100.813 3.04164 100.861 2.95416C100.915 2.86918 101.078 2.85918 101.245 2.92917Z" fill="white"/>
<path d="M102.07 5.97551C102.247 6.05549 102.347 6.20046 102.302 6.31793C102.252 6.43291 102.077 6.4629 101.895 6.38792C101.715 6.30794 101.613 6.15797 101.66 6.04299C101.713 5.92802 101.892 5.90053 102.07 5.97551Z" fill="white"/>
<path d="M100.79 8.92641C101.013 9.02139 101.133 9.22384 101.068 9.3988C100.995 9.57127 100.765 9.63375 100.533 9.54377C100.303 9.44629 100.183 9.23884 100.255 9.06638C100.33 8.89641 100.563 8.83643 100.79 8.92641Z" fill="white"/>
<path d="M102.795 7.09283C102.992 7.18531 103.109 7.35777 103.062 7.50024C103.009 7.64021 102.815 7.6802 102.61 7.59272C102.407 7.50024 102.29 7.32278 102.34 7.18031C102.4 7.04284 102.592 7.00785 102.795 7.09283Z" fill="white"/>
<path d="M100.714 6.19009C100.921 6.27757 101.034 6.44503 100.976 6.5825C100.909 6.71747 100.696 6.75996 100.481 6.67498C100.269 6.5875 100.156 6.41504 100.221 6.27757C100.291 6.1451 100.501 6.10761 100.714 6.19009Z" fill="white"/>
<path d="M97.1439 12.1478C97.2988 12.2053 97.3663 12.3503 97.2988 12.4877C97.2263 12.6252 97.0514 12.6877 96.8914 12.6327C96.7339 12.5752 96.669 12.4253 96.7389 12.2878C96.8139 12.1553 96.9889 12.0953 97.1439 12.1478Z" fill="white"/>
<path d="M101.621 4.32134C101.811 4.40382 101.916 4.55129 101.866 4.66377C101.811 4.77374 101.624 4.79874 101.429 4.71875C101.236 4.63627 101.129 4.4888 101.181 4.37383C101.239 4.26635 101.429 4.24386 101.621 4.32134Z" fill="white"/>
<path d="M105.833 4.44267C105.993 4.52765 106.101 4.66262 106.078 4.7601C106.051 4.85508 105.906 4.86758 105.741 4.7851C105.578 4.70011 105.471 4.56264 105.496 4.46517C105.528 4.37269 105.673 4.36269 105.833 4.44267Z" fill="white"/>
<path d="M103.47 2.83928C103.593 2.88689 103.673 2.97458 103.658 3.04223C103.641 3.10737 103.53 3.12241 103.405 3.0748C103.28 3.02469 103.2 2.937 103.217 2.87185C103.237 2.80671 103.348 2.79418 103.47 2.83928Z" fill="white"/>
<path d="M102.144 3.30232C102.286 3.36731 102.369 3.47478 102.336 3.55727C102.296 3.63475 102.154 3.64725 102.006 3.58476C101.859 3.51977 101.776 3.4098 101.814 3.32982C101.856 3.24983 101.999 3.23984 102.144 3.30232Z" fill="white"/>
<path d="M101.751 6.67405C101.934 6.75403 102.036 6.909 101.989 7.03397C101.936 7.15644 101.754 7.19393 101.564 7.11645C101.376 7.03397 101.274 6.8765 101.326 6.75153C101.386 6.63156 101.566 6.59656 101.751 6.67405Z" fill="white"/>
<path d="M101.037 5.57878C101.199 5.64877 101.289 5.77874 101.244 5.88122C101.194 5.98369 101.029 6.01119 100.862 5.9462C100.694 5.87622 100.604 5.74375 100.654 5.64127C100.707 5.53879 100.874 5.5138 101.037 5.57878Z" fill="white"/>
<path d="M99.625 5.81227C99.8175 5.88725 99.9175 6.03472 99.8575 6.1572C99.79 6.27717 99.5925 6.31466 99.3926 6.24468C99.1976 6.16969 99.0951 6.01973 99.1601 5.89725C99.2251 5.77728 99.4276 5.73979 99.625 5.81227Z" fill="white"/>
<path d="M98.9546 2.69547C99.1071 2.75046 99.1871 2.85044 99.1371 2.93042C99.0821 3.00791 98.9246 3.0279 98.7672 2.97541C98.6122 2.92043 98.5297 2.82045 98.5822 2.74046C98.6422 2.66548 98.7997 2.64549 98.9546 2.69547Z" fill="white"/>
<path d="M103.681 2.41921C103.811 2.47169 103.901 2.56417 103.886 2.63416C103.866 2.70414 103.748 2.71664 103.613 2.66415C103.478 2.61166 103.391 2.51668 103.408 2.4467C103.428 2.37921 103.546 2.36672 103.681 2.41921Z" fill="white"/>
<path d="M104.156 3.61377C104.319 3.69375 104.419 3.82373 104.391 3.91621C104.356 4.00869 104.204 4.01868 104.036 3.9412C103.871 3.85872 103.769 3.72625 103.804 3.63377C103.839 3.54379 103.991 3.53629 104.156 3.61377Z" fill="white"/>
<path d="M104.344 3.16341C104.487 3.2359 104.579 3.35337 104.557 3.43585C104.529 3.51583 104.399 3.52083 104.252 3.44835C104.107 3.37586 104.014 3.25589 104.039 3.17591C104.067 3.09593 104.199 3.09343 104.344 3.16341Z" fill="white"/>
<path d="M102.312 5.3905C102.467 5.46048 102.555 5.58546 102.517 5.68544C102.475 5.78291 102.322 5.80541 102.165 5.73792C102.007 5.66794 101.917 5.54047 101.96 5.44049C102.002 5.34551 102.157 5.32301 102.312 5.3905Z" fill="white"/>
<path d="M103.077 3.73664C103.205 3.79677 103.28 3.89699 103.253 3.96965C103.22 4.03981 103.097 4.04983 102.967 3.9922C102.837 3.93207 102.762 3.83185 102.792 3.75919C102.827 3.68903 102.947 3.67901 103.077 3.73664Z" fill="white"/>
<path d="M101.121 8.16066C101.278 8.22815 101.363 8.36812 101.321 8.48559C101.271 8.60057 101.108 8.64056 100.946 8.57557C100.786 8.50559 100.698 8.36562 100.748 8.24814C100.798 8.13317 100.961 8.09568 101.121 8.16066Z" fill="white"/>
<path d="M103.937 4.15972C104.05 4.21481 104.117 4.30496 104.097 4.37256C104.072 4.43767 103.965 4.44769 103.852 4.3951C103.737 4.34001 103.669 4.24736 103.692 4.17975C103.719 4.11465 103.825 4.10714 103.937 4.15972Z" fill="white"/>
<path d="M105.114 3.57492C105.242 3.64257 105.325 3.7478 105.307 3.82046C105.287 3.89312 105.174 3.89813 105.041 3.8355C104.914 3.76785 104.828 3.66011 104.846 3.58745C104.874 3.51479 104.986 3.50978 105.114 3.57492Z" fill="white"/>
<path d="M100.612 3.95059C100.772 4.01558 100.857 4.13305 100.812 4.22303C100.762 4.31302 100.602 4.33301 100.44 4.27052C100.277 4.20554 100.192 4.08806 100.24 3.99558C100.29 3.9106 100.452 3.89061 100.612 3.95059Z" fill="white"/>
<path d="M97.1613 1.45025C97.2888 1.49024 97.3488 1.56523 97.3013 1.62521C97.2488 1.6827 97.1088 1.6952 96.9789 1.65771C96.8489 1.61772 96.7864 1.54273 96.8389 1.48525C96.8914 1.42776 97.0339 1.41276 97.1613 1.45025Z" fill="white"/>
<path d="M98.51 5.4237C98.69 5.48868 98.7775 5.61866 98.72 5.72863C98.6525 5.83611 98.4625 5.8736 98.2776 5.81111C98.0951 5.74613 98.0026 5.61616 98.0676 5.50618C98.1351 5.3987 98.3251 5.36371 98.51 5.4237Z" fill="white"/>
<path d="M96.7559 13.1523C96.9008 13.2073 96.9558 13.3448 96.8883 13.4797C96.8159 13.6097 96.6509 13.6747 96.5059 13.6247C96.361 13.5697 96.3035 13.4272 96.3735 13.2923C96.4459 13.1623 96.6134 13.1023 96.7559 13.1523Z" fill="white"/>
<path d="M95.6278 13.7377C95.7552 13.7827 95.8027 13.9001 95.7402 14.0151C95.6753 14.1276 95.5253 14.1851 95.3953 14.1426C95.2653 14.0976 95.2178 13.9776 95.2828 13.8601C95.3478 13.7527 95.5003 13.6977 95.6278 13.7377Z" fill="white"/>
<path d="M99.6084 11.8703C99.7708 11.9378 99.8508 12.0978 99.7933 12.2452C99.7308 12.3902 99.5559 12.4552 99.3884 12.3902C99.2234 12.3227 99.1435 12.1578 99.2035 12.0103C99.2684 11.8678 99.4459 11.8078 99.6084 11.8703Z" fill="white"/>
<path d="M98.0696 12.53C98.2321 12.5975 98.312 12.76 98.2546 12.9049C98.1921 13.0499 98.0171 13.1124 97.8496 13.0499C97.6822 12.9824 97.6047 12.8174 97.6647 12.67C97.7297 12.525 97.9046 12.465 98.0696 12.53Z" fill="white"/>
<path d="M99.9678 5.20365C100.088 5.25126 100.153 5.34396 100.116 5.41913C100.076 5.49179 99.9503 5.51434 99.825 5.46673C99.7022 5.41662 99.6371 5.32392 99.6747 5.25126C99.7173 5.1786 99.845 5.15855 99.9678 5.20365Z" fill="white"/>
<path d="M103.135 1.79308C103.24 1.83565 103.307 1.90075 103.29 1.95834C103.267 2.01343 103.175 2.01594 103.072 1.97337C102.967 1.9308 102.899 1.86319 102.917 1.8081C102.939 1.75301 103.032 1.75051 103.135 1.79308Z" fill="white"/>
<path d="M101.234 11.3631C101.371 11.4231 101.446 11.5606 101.404 11.6831C101.356 11.803 101.216 11.853 101.074 11.7955C100.934 11.7331 100.859 11.5956 100.904 11.4706C100.954 11.3531 101.094 11.3081 101.234 11.3631Z" fill="white"/>
<path d="M102.75 10.8504C102.88 10.9104 102.955 11.0404 102.92 11.1528C102.882 11.2628 102.752 11.3078 102.617 11.2503C102.485 11.1903 102.41 11.0579 102.447 10.9429C102.492 10.8329 102.62 10.7929 102.75 10.8504Z" fill="white"/>
<path d="M104.164 10.5356C104.289 10.5933 104.362 10.7185 104.337 10.8238C104.307 10.929 104.187 10.9666 104.061 10.9115C103.936 10.8513 103.861 10.7261 103.888 10.6208C103.921 10.5156 104.039 10.4805 104.164 10.5356Z" fill="white"/>
<path d="M97.296 5.11125C97.4163 5.14883 97.4764 5.23151 97.4313 5.30167C97.3837 5.37182 97.2534 5.39688 97.1282 5.3593C97.0054 5.32171 96.9453 5.23903 96.9929 5.16637C97.043 5.09872 97.1733 5.07366 97.296 5.11125Z" fill="white"/>
<path d="M98.0904 5.98865C98.2354 6.04114 98.3078 6.14861 98.2554 6.23859C98.2004 6.33107 98.0454 6.36107 97.8954 6.31358C97.748 6.26359 97.6755 6.15361 97.728 6.06113C97.783 5.97365 97.9404 5.94116 98.0904 5.98865Z" fill="white"/>
<path d="M99.2326 6.4998C99.3601 6.54979 99.4251 6.64977 99.3851 6.73475C99.3401 6.81723 99.2051 6.84472 99.0726 6.79723C98.9427 6.74725 98.8752 6.64727 98.9202 6.56229C98.9677 6.4798 99.1001 6.45231 99.2326 6.4998Z" fill="white"/>
<path d="M100.363 6.94899C100.478 6.99659 100.538 7.0918 100.503 7.16947C100.465 7.24715 100.348 7.2697 100.232 7.2271C100.117 7.1795 100.057 7.08429 100.092 7.00661C100.13 6.92894 100.25 6.90639 100.363 6.94899Z" fill="white"/>
<path d="M101.436 7.4039C101.546 7.45401 101.609 7.54671 101.577 7.62689C101.541 7.70456 101.431 7.72962 101.318 7.68452C101.206 7.63441 101.146 7.5392 101.176 7.45902C101.211 7.38135 101.323 7.3588 101.436 7.4039Z" fill="white"/>
<path d="M103.873 2.07536C103.974 2.11542 104.044 2.18053 104.029 2.23561C104.011 2.2907 103.926 2.29321 103.823 2.25314C103.721 2.21057 103.653 2.14797 103.666 2.09038C103.683 2.0378 103.768 2.0378 103.873 2.07536Z" fill="white"/>
<path d="M103.341 1.46025C103.431 1.49781 103.492 1.5554 103.479 1.60798C103.464 1.65806 103.386 1.65806 103.296 1.6205C103.206 1.58294 103.143 1.52285 103.158 1.47277C103.174 1.42268 103.251 1.42268 103.341 1.46025Z" fill="white"/>
<path d="M102.778 0.924313C102.858 0.956866 102.916 1.00945 102.904 1.05452C102.891 1.0996 102.821 1.1021 102.738 1.06955C102.656 1.03699 102.601 0.98441 102.611 0.939338C102.626 0.894265 102.696 0.891761 102.778 0.924313Z" fill="white"/>
<path d="M104.486 2.79492C104.594 2.85 104.661 2.93013 104.646 2.99273C104.624 3.05533 104.531 3.05283 104.421 2.99774C104.313 2.94265 104.243 2.86252 104.26 2.79742C104.283 2.73732 104.378 2.74233 104.486 2.79492Z" fill="white"/>
<path d="M96.8968 5.64511C97.0218 5.6826 97.0792 5.77008 97.0343 5.84507C96.9843 5.91755 96.8493 5.94754 96.7243 5.91005C96.5969 5.87256 96.5394 5.78508 96.5869 5.7101C96.6393 5.63761 96.7718 5.60762 96.8968 5.64511Z" fill="white"/>
<path d="M95.7868 5.33875C95.9046 5.37132 95.9572 5.44398 95.9121 5.51163C95.862 5.57678 95.7317 5.60684 95.6115 5.57678C95.4912 5.54421 95.4386 5.47155 95.4862 5.4039C95.5363 5.33875 95.6691 5.31119 95.7868 5.33875Z" fill="white"/>
<path d="M105.226 4.9334C105.191 5.06087 105.304 5.23334 105.496 5.35831C105.271 5.28332 105.081 5.32082 105.036 5.46579C105.001 5.59326 105.089 5.75572 105.251 5.89569C105.059 5.8607 104.909 5.91069 104.866 6.04316C104.824 6.20063 104.946 6.40558 105.161 6.55305C104.924 6.48056 104.724 6.53305 104.671 6.69802C104.634 6.83799 104.711 7.00795 104.866 7.15292C104.674 7.13042 104.526 7.19541 104.481 7.34288C104.436 7.50534 104.534 7.7003 104.719 7.85527C104.499 7.81777 104.321 7.89026 104.269 8.05772C104.209 8.28517 104.396 8.57511 104.706 8.72508C104.959 8.84005 105.191 8.81506 105.306 8.68259C105.336 8.88504 105.509 9.09999 105.756 9.22247C105.971 9.32245 106.164 9.31745 106.284 9.22747C106.348 9.40743 106.506 9.58239 106.713 9.68737C106.923 9.78985 107.111 9.78235 107.226 9.68987C107.293 9.87233 107.451 10.0498 107.658 10.1548C107.871 10.2597 108.058 10.2497 108.163 10.1473C108.231 10.3372 108.393 10.5247 108.601 10.6347C108.893 10.7796 109.13 10.7071 109.158 10.4647C109.17 10.2822 109.055 10.0698 108.875 9.90732C109.068 9.94231 109.205 9.86483 109.225 9.69487C109.235 9.5374 109.14 9.35244 108.985 9.20247C109.153 9.22247 109.268 9.15248 109.283 9.00252C109.295 8.82255 109.155 8.6026 108.945 8.45264C109.163 8.52512 109.323 8.46763 109.34 8.30017C109.348 8.1552 109.248 7.98024 109.085 7.83777C109.255 7.87026 109.375 7.81777 109.388 7.6778C109.398 7.52034 109.258 7.31788 109.055 7.17541C109.245 7.2429 109.383 7.20291 109.395 7.06794C109.403 6.91297 109.24 6.70302 109.018 6.58304C108.823 6.48306 108.66 6.48556 108.603 6.58554C108.573 6.44057 108.428 6.27311 108.233 6.17063C108.046 6.07565 107.886 6.07315 107.816 6.15813C107.781 6.00567 107.626 5.82821 107.416 5.71573C107.201 5.60575 107.013 5.60825 106.936 5.70823C106.906 5.57076 106.768 5.4133 106.576 5.31332C106.341 5.19834 106.136 5.20584 106.099 5.35081C106.131 5.20334 105.966 5.00589 105.731 4.88591C105.486 4.77344 105.274 4.79093 105.226 4.9334ZM108.256 9.36244C108.368 9.42243 108.448 9.5374 108.441 9.62988C108.428 9.72236 108.331 9.74735 108.216 9.68987C108.101 9.62988 108.021 9.51241 108.033 9.42242C108.046 9.32994 108.141 9.30495 108.256 9.36244ZM107.353 8.92253C107.456 8.97502 107.526 9.075 107.513 9.15748C107.498 9.23747 107.408 9.25996 107.306 9.20997C107.203 9.15748 107.133 9.055 107.143 8.97252C107.158 8.89504 107.251 8.87254 107.353 8.92253ZM106.438 8.47013C106.543 8.52262 106.611 8.6226 106.598 8.70258C106.581 8.78256 106.488 8.80256 106.383 8.75257C106.279 8.70008 106.211 8.5976 106.226 8.52012C106.244 8.44014 106.336 8.42014 106.438 8.47013ZM105.621 8.22519C105.599 8.31267 105.489 8.33516 105.369 8.28017C105.249 8.22019 105.171 8.10771 105.194 8.01773C105.219 7.93275 105.329 7.91025 105.446 7.96524C105.564 8.02523 105.639 8.13521 105.621 8.22519ZM108.371 8.72258C108.468 8.77507 108.541 8.87254 108.531 8.95003C108.521 9.02751 108.436 9.04751 108.336 8.99752C108.236 8.94503 108.166 8.84505 108.173 8.76757C108.186 8.69008 108.268 8.67009 108.371 8.72258ZM105.601 7.33538C105.704 7.38787 105.771 7.48285 105.754 7.55783C105.736 7.63281 105.639 7.65031 105.534 7.60032C105.429 7.54783 105.364 7.45035 105.379 7.37787C105.404 7.30289 105.496 7.28789 105.601 7.33538ZM108.451 8.05522C108.546 8.10521 108.616 8.20019 108.608 8.27267C108.598 8.34516 108.518 8.36266 108.421 8.31267C108.323 8.26018 108.253 8.1652 108.261 8.09271C108.273 8.02023 108.353 8.00523 108.451 8.05522ZM105.759 6.69552C105.859 6.74801 105.924 6.83799 105.909 6.90797C105.891 6.97796 105.799 6.99295 105.696 6.94296C105.594 6.89048 105.529 6.80049 105.546 6.72801C105.564 6.66302 105.656 6.64803 105.759 6.69552ZM108.523 7.42786C108.616 7.47785 108.685 7.56283 108.678 7.63531C108.668 7.7078 108.591 7.7178 108.496 7.66781C108.401 7.61782 108.333 7.53034 108.341 7.45785C108.351 7.39037 108.428 7.38037 108.523 7.42786ZM105.906 6.09815C106.004 6.14814 106.069 6.23062 106.054 6.3006C106.036 6.37059 105.949 6.37809 105.849 6.3306C105.749 6.28061 105.684 6.19563 105.699 6.12564C105.719 6.05816 105.809 6.05066 105.906 6.09815ZM108.563 6.783C108.665 6.83799 108.735 6.93297 108.73 7.00295C108.723 7.07294 108.638 7.08543 108.533 7.03294C108.431 6.97796 108.358 6.88048 108.363 6.81049C108.376 6.74301 108.461 6.73051 108.563 6.783ZM107.758 6.37809C107.848 6.42558 107.913 6.50556 107.906 6.57304C107.893 6.63803 107.818 6.64553 107.723 6.59804C107.631 6.54805 107.566 6.46807 107.576 6.40308C107.586 6.3356 107.663 6.3306 107.758 6.37809ZM106.938 5.95818C107.031 6.00567 107.093 6.08565 107.083 6.15064C107.071 6.21562 106.988 6.22062 106.896 6.17563C106.801 6.12564 106.738 6.04816 106.751 5.98317C106.766 5.91819 106.846 5.91319 106.938 5.95818ZM106.054 5.49578C106.159 5.55077 106.229 5.64075 106.214 5.70823C106.196 5.77572 106.101 5.78821 105.994 5.73323C105.889 5.67824 105.819 5.58576 105.834 5.51827C105.854 5.45329 105.949 5.44329 106.054 5.49578Z" fill="white"/>
<defs>
<radialGradient id="paint0_radial_2210_60375" cx="0" cy="0" r="1" gradientUnits="userSpaceOnUse" gradientTransform="translate(83.6811 29.2479) scale(44.3352 44.3352)">
<stop offset="0.29" stop-color="#7EBE42"/>
<stop offset="0.44" stop-color="#63AE45"/>
<stop offset="0.685" stop-color="#009848"/>
<stop offset="0.705" stop-color="#0763AF"/>
<stop offset="0.9" stop-color="#1798D5"/>
<stop offset="1" stop-color="#26AAE1"/>
</radialGradient>
</defs>
</svg>
