<svg width="159" height="159" viewBox="0 0 159 159" fill="none" xmlns="http://www.w3.org/2000/svg">
<g id="Logo shape" clip-path="url(#clip0_22_165)">
<path id="Vector" fill-rule="evenodd" clip-rule="evenodd" d="M79.5157 0C123.565 0 159.031 35.5504 159.031 79.3267C159.031 123.103 123.565 159.032 79.5157 159.032C35.4661 159.032 0 123.103 0 79.3267C0 35.5504 35.4661 0 79.5157 0Z" fill="url(#paint0_radial_22_165)"/>
<path id="Vector_2" fill-rule="evenodd" clip-rule="evenodd" d="M80.2388 4.85352C78.7611 11.598 76.8746 17.2079 74.6422 22.0614C72.0326 26.5368 69.8002 29.5308 67.5365 30.2872C65.3041 30.2872 63.0717 29.5308 61.1853 28.0496C58.9529 26.915 56.3433 24.6773 52.6017 21.6832L62.3172 58.3368C63.7949 64.7031 64.5495 68.8002 64.5495 70.6912C64.5495 72.1724 64.5495 73.307 63.7949 74.0634C63.0403 74.4416 62.3172 74.4416 61.5626 74.4416C59.3302 74.4416 56.7205 72.5822 54.1109 69.5881C51.8785 66.9723 49.9921 64.3564 48.137 62.1187C46.6593 59.8811 44.7728 56.887 42.1631 53.1366C39.9308 49.7643 38.0443 47.5267 37.3211 46.3921H36.5665C37.3211 49.3861 37.6984 52.3802 37.6984 54.996C37.6984 58.3683 36.9438 60.2278 36.2207 61.3623C36.2207 61.3623 35.8434 61.7405 34.7429 61.7405C30.6241 61.7405 22.4178 59.5029 10.8473 55.3742C13.457 60.9841 15.312 65.1128 16.4439 68.1068C17.5758 71.1009 18.299 74.0949 18.299 77.8454C17.9217 79.7049 16.4439 80.8394 14.1801 81.5958C11.9478 81.974 7.82892 82.3522 2.60962 82.3522C17.5444 93.5721 27.983 101.42 34.3342 106.305C40.3081 111.158 43.295 114.152 43.295 115.287C43.295 119.415 42.5404 123.134 41.44 126.885C42.9177 126.885 44.8042 126.507 47.4138 125.75C49.6462 125.372 53.0104 124.269 57.1293 123.134C61.2481 122 64.2351 120.897 66.8447 120.519C69.0771 119.762 70.9636 119.384 72.8186 119.384C74.2964 119.384 75.8056 120.14 76.5602 121.622C77.3148 123.481 77.6921 125.372 77.6921 127.232V158.653H82.9114V127.232C82.9114 125.75 83.2887 123.859 84.3891 122C85.1437 120.14 86.2442 119.384 87.3761 119.384C89.2311 119.384 94.1046 120.519 101.556 122.378C109.008 124.616 114.982 126.128 119.478 126.853C118 123.481 117.246 119.731 117.246 114.877C117.623 114.121 118.377 113.018 120.233 111.505C122.465 109.645 124.697 107.754 127.684 105.517C130.671 103.279 134.79 99.9068 140.732 95.4C146.329 91.2714 151.926 86.796 157.9 82.3207C150.794 82.3207 145.952 81.5643 143.719 80.083C142.587 79.3267 142.242 77.8454 142.242 76.3326C142.242 71.8573 144.851 64.7346 149.693 55.3742C139.601 59.5029 131.394 61.3623 124.697 61.3623C123.565 60.9841 122.842 59.1247 122.842 54.996C122.842 52.7584 123.219 49.7643 123.597 46.3921C122.119 48.2515 119.855 51.6238 116.491 56.1306C113.127 60.6375 110.517 63.9782 109.039 66.2474C104.92 71.8573 101.588 74.4731 98.6007 74.4731C96.7457 74.0949 95.9911 72.6137 95.9911 70.3445C95.9911 68.8632 96.3684 66.9722 96.7457 65.1128L107.939 21.7148C101.588 27.7029 97.123 30.3187 93.7587 30.3187C91.1491 29.5623 88.5394 26.9465 86.3071 22.4712C84.452 17.9958 82.1882 12.0077 80.3332 4.88503L80.2388 4.85352Z" fill="url(#paint1_radial_22_165)"/>
</g>
<defs>
<radialGradient id="paint0_radial_22_165" cx="0" cy="0" r="1" gradientUnits="userSpaceOnUse" gradientTransform="translate(50.8725 56.2567) scale(74.768 74.9459)">
<stop stop-color="white"/>
<stop offset="1" stop-color="#DA242C"/>
</radialGradient>
<radialGradient id="paint1_radial_22_165" cx="0" cy="0" r="1" gradientUnits="userSpaceOnUse" gradientTransform="translate(38.6731 29.8775) scale(159.534 159.914)">
<stop stop-color="white"/>
<stop offset="1" stop-color="#DA242C"/>
</radialGradient>
<clipPath id="clip0_22_165">
<rect width="159" height="159" fill="white"/>
</clipPath>
</defs>
</svg>
