<?xml version="1.0" encoding="UTF-8"?><svg id="Layer_2" xmlns="http://www.w3.org/2000/svg" xmlns:xlink="http://www.w3.org/1999/xlink" viewBox="0 0 352.81 111.93"><defs><style>.cls-1{fill:none;}.cls-1,.cls-2{stroke-width:0px;}.cls-2{fill:#fff;}.cls-3{clip-path:url(#clippath);}</style><clipPath id="clippath"><rect class="cls-1" y="0" width="352.81" height="111.93"/></clipPath></defs><g id="Layer_1-2"><g class="cls-3"><path class="cls-2" d="m103.45,14.99c-5.53-4.64-24.11,11.9-31.72,19.24,2,14.11-.64,25.41-7.69,36.23-.76,1.16-1.55,2.21-2.37,3.17,7.55.95,18.87-5.93,32.6-25.28,7.66-10.79,15.78-27.82,9.18-33.36"/><path class="cls-2" d="m42.34,82.15c-11.53-2.27-13.71-15.02-13.04-27.12.01-.4.03-.82.04-1.23-9.66-7.52-22.89-16.31-27.16-12.29-6.57,6.2,2.97,23.52,11.65,34.34,19.58,24.41,33.94,28.41,40.83,21.82,2.27-2.17,4.12-7.94-1.05-17.63-.09.05-.18.1-.28.14-4.41,2.13-8.55,2.45-11,1.97"/><path class="cls-2" d="m71.74,34.24h0C69.08,18.01,58.32-.42,49.84,0c-8.88.45-19.57,32.28-20.5,53.8,5.46,4.25,9.78,8.1,10.68,9,6.77,6.73,11.04,12.46,13.59,17.24,2.71-1.36,5.51-3.41,8.07-6.41-1.95-.25-3.65-1.01-5.07-2.22-3.41-2.9-6.39-13.49,12-34.03.39-.44,1.52-1.59,3.13-3.15"/></g><polygon class="cls-2" points="169.98 2.92 164.43 2.92 157.33 34.78 148.05 3.17 147.97 2.92 142.42 2.92 133.47 34.69 126.41 3.2 126.35 2.92 120.52 2.92 129.95 44.2 130.01 44.48 136.24 44.48 145.15 12.36 154.23 44.22 154.3 44.48 160.38 44.48 169.92 3.16 169.98 2.92 169.98 2.92"/><path class="cls-2" d="m321.62,37.17V2.73h-5.46v14.5c-.79-.73-1.71-1.35-2.73-1.86-1.84-.91-3.9-1.4-5.96-1.4-2.17,0-4.13.47-5.83,1.39-2.29,1.25-4.05,3.27-5.23,6.01-1,2.34-1.53,5.15-1.53,8.12,0,4.01,1,7.74,2.81,10.5,1.05,1.62,2.38,2.89,3.94,3.77,1.72.97,3.68,1.47,5.85,1.47s4.11-.49,5.92-1.44c1.03-.54,1.99-1.24,2.86-2.1l.11,2.72h5.6l-.14-2.25c-.1-1.55-.21-3.3-.21-4.99m-5.58-8.23c0,3.28-.65,6.01-1.88,7.89-.67,1.05-1.5,1.83-2.55,2.38-1.13.6-2.51.91-4.09.91-1.31,0-2.41-.32-3.35-.98-.63-.43-1.17-1.02-1.67-1.79-.65-1.03-1.15-2.34-1.47-3.91-.27-1.31-.42-2.81-.42-4.34,0-2.76.6-5.24,1.67-6.96.61-.97,1.37-1.71,2.25-2.22.99-.57,2.13-.85,3.48-.85s2.64.27,3.7.8c1.42.72,2.52,1.93,3.26,3.58.69,1.54,1.05,3.43,1.05,5.49"/><path class="cls-2" d="m188.52,15.29c-1.86-.91-3.98-1.38-6.29-1.38s-4.44.46-6.29,1.37c-2.53,1.23-4.6,3.3-5.97,5.99-1.24,2.43-1.9,5.28-1.9,8.27,0,4.06,1.21,7.84,3.41,10.64,1.21,1.56,2.71,2.77,4.45,3.62,1.86.91,3.98,1.37,6.3,1.37s4.43-.46,6.29-1.37c2.53-1.23,4.6-3.3,5.97-5.99,1.24-2.43,1.89-5.29,1.89-8.27,0-4.06-1.21-7.84-3.41-10.65-1.22-1.56-2.72-2.78-4.45-3.61m-2.49,23.83c-1.11.63-2.39.95-3.81.95s-2.7-.32-3.81-.95c-1.46-.83-2.66-2.25-3.48-4.09-.73-1.65-1.12-3.6-1.12-5.48,0-2.63.73-5.23,2.02-7.12.71-1.06,1.58-1.88,2.58-2.45,1.1-.63,2.39-.95,3.81-.95s2.7.32,3.81.95c1.47.83,2.67,2.25,3.48,4.09.72,1.63,1.12,3.58,1.12,5.49,0,2.63-.73,5.23-2.01,7.12-.72,1.06-1.59,1.89-2.58,2.45"/><path class="cls-2" d="m219.3,15.46c-1.87-.91-3.99-1.37-6.29-1.37s-4.42.46-6.29,1.37c-2.53,1.23-4.6,3.3-5.97,5.99-1.24,2.43-1.9,5.29-1.9,8.26,0,4.07,1.21,7.85,3.41,10.64,1.22,1.55,2.72,2.77,4.45,3.61,1.86.91,3.98,1.37,6.29,1.37s4.43-.46,6.29-1.37c2.54-1.23,4.6-3.31,5.97-5.99,1.24-2.43,1.9-5.28,1.9-8.26,0-4.07-1.21-7.85-3.41-10.64-1.23-1.56-2.73-2.78-4.46-3.61m2.12,14.26c0,2.6-.75,5.26-2.01,7.12-.72,1.06-1.59,1.89-2.58,2.46-1.12.63-2.41.96-3.81.96s-2.69-.32-3.81-.96c-1.46-.83-2.66-2.24-3.48-4.08-.73-1.65-1.12-3.6-1.12-5.49,0-2.58.76-5.24,2.02-7.12.73-1.07,1.6-1.9,2.59-2.46,1.1-.63,2.38-.95,3.81-.95s2.71.32,3.81.95c1.46.83,2.67,2.25,3.47,4.1.72,1.63,1.12,3.58,1.12,5.48"/><path class="cls-2" d="m256.38,37.28V2.85h-5.47v14.5c-.79-.73-1.7-1.35-2.73-1.86-1.83-.91-3.89-1.4-5.96-1.4s-4.13.47-5.83,1.39c-2.29,1.25-4.05,3.27-5.22,6.01-1,2.35-1.54,5.16-1.54,8.13,0,4.01,1.01,7.74,2.81,10.5,1.06,1.62,2.39,2.89,3.93,3.77,1.72.97,3.69,1.47,5.85,1.47s4.12-.49,5.92-1.44c1.02-.54,1.98-1.24,2.87-2.1l.11,2.73h5.61l-.12-1.94c-.11-1.65-.23-3.51-.23-5.3m-5.58-8.23c0,3.28-.65,6.01-1.87,7.89-.68,1.05-1.52,1.83-2.56,2.38-1.13.6-2.5.91-4.09.91-1.31,0-2.41-.32-3.35-.98-.63-.44-1.19-1.04-1.67-1.79-.65-1.03-1.16-2.39-1.47-3.91-.27-1.33-.42-2.83-.42-4.34,0-2.76.6-5.23,1.68-6.96.61-.97,1.36-1.72,2.24-2.22.99-.57,2.13-.85,3.49-.85s2.65.27,3.69.8c1.42.72,2.52,1.93,3.27,3.58.69,1.53,1.05,3.43,1.05,5.49"/><path class="cls-2" d="m278.17,27.9c-2.32-.8-4.41-1.32-6.28-1.79-1.2-.3-2.24-.56-3.12-.84-1.1-.35-1.86-.71-2.31-1.13-.21-.19-.36-.39-.46-.64-.11-.26-.17-.55-.17-.92,0-.58.13-1.08.4-1.52.37-.6,1-1.07,1.88-1.39.84-.32,1.89-.48,3.03-.48,1.69,0,3.1.3,4.09.87.52.3.92.66,1.21,1.09.32.49.51,1.04.57,1.7l.08.95h5.75l-.08-1.12c-.12-1.57-.52-2.94-1.17-4.08-.93-1.61-2.36-2.81-4.27-3.55-1.62-.63-3.59-.95-5.86-.95-2.07,0-5.06.32-7.55,1.86-1.18.72-2.1,1.64-2.74,2.73-.71,1.19-1.07,2.58-1.07,4.13,0,1.38.3,2.61.91,3.67.43.73.99,1.38,1.68,1.92.87.7,1.97,1.28,3.37,1.77,1.2.43,2.47.74,3.78,1.05l.82.18c1.94.42,3.77.81,5.09,1.43.72.34,1.27.74,1.62,1.19.37.49.54,1.05.55,1.78,0,.74-.17,1.38-.51,1.95-.46.79-1.23,1.41-2.29,1.85-1,.41-2.24.64-3.51.64-1.93,0-3.54-.34-4.65-.97-.62-.36-1.08-.78-1.4-1.3-.37-.57-.58-1.25-.64-2.07l-.07-.97h-5.69v1.06c.04,1.63.43,3.1,1.15,4.37.99,1.7,2.54,3,4.61,3.87,1.73.73,3.76,1.12,5.88,1.12,3.34,0,6.43-.84,8.71-2.35,1.28-.84,2.29-1.9,3.01-3.15.76-1.34,1.15-2.86,1.15-4.53s-.52-3.24-1.5-4.56c-.96-1.3-2.34-2.28-3.98-2.84"/><polygon class="cls-2" points="286.18 9.12 292.2 9.12 292.2 2.93 286.18 2.93 286.18 9.12 286.18 9.12"/><polygon class="cls-2" points="286.45 44.61 291.93 44.61 291.93 14.99 286.45 14.99 286.45 44.61 286.45 44.61"/><path class="cls-2" d="m346.83,34.4c-.37,1.58-1.25,3.01-2.5,4.04-1.3,1.07-2.87,1.63-4.56,1.63-1.51,0-2.84-.26-3.96-.76-1.53-.69-2.71-1.86-3.51-3.47-.63-1.23-1.01-2.74-1.14-4.48h21.66v-1.05c0-4.85-1.04-8.73-3.09-11.51-1.15-1.57-2.62-2.78-4.37-3.59-1.83-.86-4-1.29-6.42-1.29-2.17,0-4.18.45-5.96,1.34-2.44,1.23-4.43,3.28-5.76,5.93-1.23,2.45-1.88,5.34-1.88,8.35,0,4.15,1.14,7.96,3.22,10.73,1.15,1.54,2.56,2.74,4.2,3.56,1.77.88,3.77,1.33,5.95,1.33,3.63,0,6.62-.85,8.88-2.54,2.3-1.71,3.94-4.35,4.86-7.84l.1-.39h-5.71Zm-13.34-12.91c.66-.78,1.44-1.39,2.32-1.8.94-.44,2.01-.67,3.17-.67,1.28,0,2.43.21,3.42.62,1.37.57,2.47,1.55,3.28,2.89.6,1.03,1.02,2.27,1.24,3.72h-15.56c.34-1.86,1.09-3.54,2.13-4.76"/><polygon class="cls-2" points="136.45 81.63 155.83 81.63 155.83 76.24 136.45 76.24 136.45 63.78 156.82 63.78 156.82 58.39 130.18 58.39 130.18 100.5 157.27 100.5 157.27 95.11 136.45 95.11 136.45 81.63 136.45 81.63"/><path class="cls-2" d="m183.81,72.29c-1.98-1.32-4.28-1.99-6.86-1.99-4.14,0-7.19,1.62-9.06,4.82l-.22-4.05h-5.93v.25c.07,1.33.09,2.54.09,3.61v25.58h6.1v-17.61c0-2.38.76-4.35,2.25-5.86,1.36-1.38,3.1-2.08,5.15-2.08s3.65.67,4.96,2c.97.93,1.45,2.46,1.45,4.55v18.99h6.1v-20.1c0-3.63-1.36-6.36-4.04-8.12h0Z"/><path class="cls-2" d="m237.23,70.3c-4.5,0-7.49,1.63-8.9,4.84l-.09-4.08h-5.94v.25c.07,1.33.1,2.55.1,3.61v25.58h6.1v-15.99c0-5.8,2.58-8.62,7.88-8.62.95,0,1.72.04,2.3.11l.27.03-.03-5.74h-1.68Z"/><path class="cls-2" d="m259.26,77.04c1.55,1.55,2.33,4.09,2.33,7.56,0,3.67-.68,6.47-2.02,8.32-1.31,1.81-3.36,2.73-6.12,2.73-2.36,0-4.22-.88-5.52-2.62-1.3-1.78-1.96-4.37-1.96-7.7,0-7.15,2.45-10.63,7.49-10.63,2.3,0,4.25.79,5.8,2.34h0Zm2.7-2.68c-2.07-2.69-5.04-4.06-8.84-4.06s-7.12,1.33-9.56,3.95c-2.45,2.62-3.69,6.41-3.69,11.28,0,4.28,1.04,7.8,3.08,10.47,2.08,2.69,5.35,4.05,9.72,4.05s7.28-1.42,8.92-4.22c-.05,4.23-.45,7.12-1.19,8.61-1.01,2.05-3.13,3.09-6.3,3.09-4.21,0-6.32-1.75-6.47-5.35v-.23h-6.28v.24c.06,3.51,1.1,6.05,3.1,7.54,1.98,1.46,5.19,2.2,9.56,2.2,4.93,0,8.5-1.09,10.6-3.23,1.22-1.16,2.04-2.62,2.44-4.33.42-1.71.63-4.63.63-8.68v-19.65c.02-.62.03-1.48.03-2.58s.02-1.81.05-2.12l.03-.26h-5.76l-.1,3.3h0Z"/><polygon class="cls-2" points="295.2 71.06 286.45 93.05 277.36 71.21 277.3 71.06 270.73 71.06 282.94 100.04 278.46 111.31 284.6 111.31 289.1 99.68 301.63 71.39 301.78 71.06 295.2 71.06 295.2 71.06"/><path class="cls-2" d="m212.69,90.64c-.37,1.58-1.25,3.01-2.5,4.04-1.3,1.07-2.88,1.63-4.56,1.63-1.5,0-2.84-.26-3.96-.76-1.53-.69-2.71-1.86-3.51-3.47-.63-1.23-1.01-2.74-1.14-4.48h21.66v-1.05c0-4.85-1.04-8.73-3.09-11.51-1.14-1.57-2.61-2.77-4.37-3.59-1.83-.86-4-1.29-6.42-1.29-2.17,0-4.18.45-5.96,1.34-2.44,1.23-4.43,3.28-5.76,5.93-1.23,2.45-1.88,5.34-1.88,8.35,0,4.15,1.14,7.96,3.22,10.73,1.15,1.54,2.56,2.74,4.2,3.56,1.77.88,3.77,1.33,5.95,1.33,3.63,0,6.62-.86,8.88-2.54,2.3-1.71,3.94-4.35,4.86-7.84l.1-.39h-5.71Zm-13.34-12.91c.66-.78,1.44-1.39,2.32-1.8.94-.44,2.01-.67,3.18-.67,1.28,0,2.43.21,3.41.62,1.37.57,2.47,1.55,3.28,2.89.6,1.02,1.02,2.27,1.24,3.72h-15.56c.34-1.86,1.09-3.54,2.13-4.76"/></g></svg>