<?xml version='1.0' encoding='utf-8'?>
<svg class="w-[150px] lg:w-[220px] h-auto text-white" fill="none" xmlns="http://www.w3.org/2000/svg" viewBox="0 0 220 48" style="color: #ffffff;"><g clip-path="url(#clip0_2188_28224)"><path d="M143.821 15.6596C143.821 7.65132 138.226 0 129.395 0H75.6729V47.9232H85.7468V9.33371H128.267C132.96 9.33371 134.55 12.7979 134.55 15.6596C134.55 18.5213 132.585 21.6059 128.267 21.6059H93.6322V30.9397H113.158L129.006 47.9247H141.806L125.788 30.9397H129.395C138.225 30.9397 143.82 23.6679 143.82 15.6596H143.821Z" fill="currentColor"/><path d="M205.04 19.3331H188.374V28.6653H210.083V34.565C210.083 37.0426 207.353 38.6663 204.892 38.6663H167.125C163.828 38.6663 161.155 35.9748 161.155 32.6552V15.4171C161.155 12.0569 163.861 9.3322 167.199 9.3322H217.853V0H166.683C158.224 0 151.368 6.90276 151.368 15.4186V32.497C151.368 41.0581 158.262 48 166.765 48H204.528C212.203 48 219.428 42.1998 219.428 34.4716V19.3331H205.037H205.04Z" fill="currentColor"/><path d="M55.6596 0L37.3382 19.3678C34.9357 21.8966 34.9417 25.9949 37.3502 28.5177L55.7867 47.9232H68.3456L45.641 23.9495L68.3456 0H55.6611H55.6596Z" fill="currentColor"/><path d="M12.6331 0H0.000976562L22.7056 23.9495L0.000976562 47.9232H12.5059L30.8423 28.6217C33.3062 26.0431 33.3121 21.8499 30.8542 19.2624L12.6331 0Z" fill="currentColor"/></g><defs><clippath id="clip0_2188_28224"><rect width="219.429" height="48" fill="white"/></clippath></defs></svg>