<svg xmlns="http://www.w3.org/2000/svg" width="172.706" height="43.5" viewBox="0 0 172.706 43.5">
  <g id="Group_1550" data-name="Group 1550" transform="translate(-663.705 -385.512)">
    <path id="Path_5185" data-name="Path 5185" d="M768.445,402.8l-2.535-4.386L760.5,389.06a7.052,7.052,0,0,0-6.112-3.528h-5.945l-.092.054,6.912,11.958.016.026c.084.123.161.247.234.373l5.408,9.351,2.538,4.387c.092.157.284.539.284.539a9.1,9.1,0,0,1,.109,7.81l4.637-8.2a9.1,9.1,0,0,0-.047-9.038" transform="translate(52.702 0.013)" fill="#ffc200"/>
    <path id="Path_5186" data-name="Path 5186" d="M776.616,385.532l-12.453,21.725a11.471,11.471,0,0,0-1.475-5.231l-2.938-5.087,4.6-8.149a6.409,6.409,0,0,1,5.585-3.258Z" transform="translate(59.796 0.013)" fill="#ffc200"/>
    <path id="Path_5187" data-name="Path 5187" d="M763.738,411.641,761,416.494c-.026.045-.054.091-.084.138a8.145,8.145,0,0,1-7.018,4h-5.328l7.251-12.823,5-8.85,2.812,4.863v0a9.093,9.093,0,0,1,.107,7.81" transform="translate(52.833 8.375)" fill="#fce68b"/>
    <path id="Path_5188" data-name="Path 5188" d="M679.019,403.764v5.445h3.7a2.723,2.723,0,1,0,0-5.445Zm3.7-2.179a4.906,4.906,0,1,1,0,9.8h-3.7v5.445h-2.4V401.585Z" transform="translate(8.043 10.007)" fill="#ffc200"/>
    <path id="Path_5189" data-name="Path 5189" d="M690.115,406.365c-1.634,0-2.723,1.089-2.723,3.05v5.663h-2.179V404.622h2.179v1.089a4.565,4.565,0,0,1,3.158-1.306h.545v2.069a4.492,4.492,0,0,0-.98-.109" transform="translate(13.391 11.763)" fill="#ffc200"/>
    <path id="Path_5190" data-name="Path 5190" d="M694.955,406.365a3.493,3.493,0,1,0,3.268,3.485,3.4,3.4,0,0,0-3.268-3.485m0-1.96a5.446,5.446,0,1,1-5.447,5.445,5.534,5.534,0,0,1,5.447-5.445" transform="translate(16.065 11.763)" fill="#ffc200"/>
    <path id="Path_5191" data-name="Path 5191" d="M706.075,411.606a3.174,3.174,0,1,0-3.159,3.485,3.385,3.385,0,0,0,3.159-3.485m0-4.03v-5.991h2.179v15.249h-2.179v-1.2a4.934,4.934,0,0,1-3.377,1.417,5.457,5.457,0,0,1,0-10.892,4.934,4.934,0,0,1,3.377,1.417" transform="translate(21.09 10.007)" fill="#ffc200"/>
    <path id="Path_5192" data-name="Path 5192" d="M713.291,413.906a4.571,4.571,0,0,1-3.159,1.306c-2.505,0-4.248-1.743-4.248-4.574v-6.1h2.179v6.1a2.492,2.492,0,0,0,2.505,2.614c1.632,0,2.723-1.089,2.723-3.049v-5.664h2.179v10.456h-2.179Z" transform="translate(26.26 11.846)" fill="#ffc200"/>
    <path id="Path_5193" data-name="Path 5193" d="M718.78,404.4a5.6,5.6,0,0,1,4.248,2.069l-1.416,1.417a3.577,3.577,0,0,0-2.831-1.525,3.493,3.493,0,0,0,0,6.971,3.864,3.864,0,0,0,2.94-1.634l1.416,1.416a5.881,5.881,0,0,1-4.357,2.179,5.446,5.446,0,1,1,0-10.892" transform="translate(30.898 11.763)" fill="#ffc200"/>
    <path id="Path_5194" data-name="Path 5194" d="M722.358,402.391h1.96v3.485H726.5v1.96h-2.179v5.424a1.264,1.264,0,0,0,1.308,1.329,3.371,3.371,0,0,0,1.089-.217v1.96a5.294,5.294,0,0,1-1.525.219c-1.96,0-3.049-1.09-3.049-3.268v-5.447h-1.962v-1.96h1.09c.654,0,1.089-.436,1.089-1.306Z" transform="translate(35.16 10.509)" fill="#ffc200"/>
    <path id="Path_5195" data-name="Path 5195" d="M728.145,416.75h-2.179V406.294h2.179Zm-1.089-12.416a1.307,1.307,0,1,1,1.308-1.308,1.258,1.258,0,0,1-1.308,1.308" transform="translate(38.628 10.091)" fill="#ffc200"/>
    <path id="Path_5196" data-name="Path 5196" d="M734.217,406.365a3.493,3.493,0,1,0,3.268,3.485,3.4,3.4,0,0,0-3.268-3.485m0-1.96a5.446,5.446,0,1,1-5.447,5.445,5.534,5.534,0,0,1,5.447-5.445" transform="translate(40.509 11.763)" fill="#ffc200"/>
    <path id="Path_5197" data-name="Path 5197" d="M739.137,405.712A4.564,4.564,0,0,1,742.3,404.4c2.5,0,4.248,1.743,4.248,4.576v6.1h-2.179v-6.1a2.492,2.492,0,0,0-2.505-2.614c-1.634,0-2.723,1.089-2.723,3.049v5.664h-2.179V404.623h2.179Z" transform="translate(45.607 11.762)" fill="#ffc200"/>
    <path id="Path_5198" data-name="Path 5198" d="M673.58,394.909l5.014-9.116h4.861l-7.6,13.674v7.6H671.3v-7.6l-7.6-13.674h4.861Z" transform="translate(0 0.175)" fill="#fff"/>
    <rect id="Rectangle_232" data-name="Rectangle 232" width="4.558" height="21.271" transform="translate(688.015 385.968)" fill="#fff"/>
    <path id="Path_5199" data-name="Path 5199" d="M704.8,385.793v21.271h-3.949l-10.484-13.521v13.521H685.8V385.793h3.949l10.483,13.523V385.793Z" transform="translate(13.759 0.175)" fill="#fff"/>
    <path id="Path_5200" data-name="Path 5200" d="M701.359,391.741c0-3.343,2.887-6.229,7.444-6.229a9.106,9.106,0,0,1,6.989,2.887l-2.734,2.887a5.547,5.547,0,0,0-3.949-1.824c-1.824,0-2.887,1.064-2.887,2.28,0,3.949,10.484,1.671,10.484,9.268,0,3.8-2.887,6.684-8.053,6.684A10.581,10.581,0,0,1,700.6,404.2l2.734-2.736a6.8,6.8,0,0,0,5.014,2.28c2.28,0,3.5-1.215,3.5-2.734,0-3.949-10.484-1.671-10.484-9.268" transform="translate(22.97 0)" fill="#fff"/>
    <path id="Path_5201" data-name="Path 5201" d="M724.787,385.513a11.1,11.1,0,1,1-11.546,11.09,11.257,11.257,0,0,1,11.546-11.09m0,18.079a6.99,6.99,0,1,0-6.838-6.988,6.843,6.843,0,0,0,6.838,6.988" transform="translate(30.841 0.001)" fill="#fff"/>
    <path id="Path_5202" data-name="Path 5202" d="M750.023,385.793v21.271h-3.949l-10.484-13.521v13.521h-4.558V385.793h3.949l10.484,13.523V385.793Z" transform="translate(41.917 0.175)" fill="#fff"/>
  </g>
</svg>
